<svg width="100%" height="100%" viewBox="0 0 512 512" xmlns="http://www.w3.org/2000/svg">
  <path d="M417.049 0h-99.067L257 27.239l-1-.432v241.865h67.683l106.47-191.135a15.005 15.005 0 001.896-7.3V15c0-8.284-6.716-15-15-15z" fill="#009985"/>
  <path d="M194.018 0H94.951c-8.284 0-15 6.716-15 15v55.237c0 2.555.653 5.067 1.896 7.3l106.471 191.135H256V26.806z" fill="#b5fb49"/>
  <path d="M194.018 0v278.911H256l14.798-131.793L256 0z" fill="#84e36b"/>
  <path d="M256 0h61.982v278.911H256z" fill="#00cc71"/>
  <path d="M123.417 379.417C123.417 452.524 182.894 512 256 512l14.798-126.044L256 246.835c-73.106 0-132.583 59.476-132.583 132.582z" fill="#ffd74a"/>
  <path d="M256 246.835V512c73.106 0 132.583-59.476 132.583-132.583 0-73.106-59.477-132.582-132.583-132.582z" fill="#fdbf00"/>
  <g>
    <path d="M241 349.417v60c0 8.284 6.716 15 15 15l7.5-45-7.5-45c-8.284 0-15 6.716-15 15z" fill="#fdbf00"/>
  </g>
  <path d="M256 334.417v90c8.284 0 15-6.716 15-15v-60c0-8.284-6.716-15-15-15z" fill="#ff9102"/>
</svg>