<svg width="100%" height="100%" viewBox="0 0 512 512" xmlns="http://www.w3.org/2000/svg" xmlns:xlink="http://www.w3.org/1999/xlink">
  <linearGradient id="a">
    <stop offset="0" stop-color="#43386b"/>
    <stop offset="1" stop-color="#7662bd"/>
  </linearGradient>
  <linearGradient id="c" gradientUnits="userSpaceOnUse" x1="394.973" x2="401.088" xlink:href="#a" y1="267.445" y2="256.853"/>
  <linearGradient id="d" gradientTransform="matrix(-1 0 0 1 1933.929 0)" gradientUnits="userSpaceOnUse" x1="1512.62" x2="1512.62" xlink:href="#a" y1="312.441" y2="259.015"/>
  <linearGradient id="e" gradientUnits="userSpaceOnUse" x1="429.402" x2="419.354" xlink:href="#a" y1="270.829" y2="288.232"/>
  <linearGradient id="f" gradientUnits="userSpaceOnUse" x1="426.669" x2="432.785" xlink:href="#a" y1="167.37" y2="156.778"/>
  <linearGradient id="g" gradientTransform="matrix(-1 0 0 1 1933.929 0)" gradientUnits="userSpaceOnUse" x1="1480.923" x2="1480.923" xlink:href="#a" y1="212.366" y2="158.94"/>
  <linearGradient id="h" gradientUnits="userSpaceOnUse" x1="461.099" x2="451.051" xlink:href="#a" y1="170.754" y2="188.157"/>
  <linearGradient id="b">
    <stop offset="0" stop-color="#e37a34"/>
    <stop offset="1" stop-color="#ffc538"/>
  </linearGradient>
  <linearGradient id="i" gradientUnits="userSpaceOnUse" x1="296.804" x2="437.808" xlink:href="#b" y1="339.728" y2="166.998"/>
  <linearGradient id="j" gradientUnits="userSpaceOnUse" x1="224.379" x2="230.495" xlink:href="#a" y1="378.433" y2="367.84"/>
  <linearGradient id="k" gradientTransform="matrix(-1 0 0 1 1933.929 0)" gradientUnits="userSpaceOnUse" x1="1683.214" x2="1683.214" xlink:href="#a" y1="423.428" y2="370.003"/>
  <linearGradient id="l" gradientUnits="userSpaceOnUse" x1="258.808" x2="248.76" xlink:href="#a" y1="381.816" y2="399.22"/>
  <linearGradient id="m" gradientUnits="userSpaceOnUse" x1="106.605" x2="112.72" xlink:href="#a" y1="382.584" y2="371.992"/>
  <linearGradient id="n" gradientTransform="matrix(-1 0 0 1 1933.929 0)" gradientUnits="userSpaceOnUse" x1="1800.988" x2="1800.988" xlink:href="#a" y1="427.579" y2="374.154"/>
  <linearGradient id="o" gradientUnits="userSpaceOnUse" x1="141.034" x2="130.986" xlink:href="#a" y1="385.968" y2="403.371"/>
  <linearGradient id="p" gradientUnits="userSpaceOnUse" x1="273.56" x2="313.778" xlink:href="#b" y1="371.328" y2="301.669"/>
  <linearGradient id="q" gradientUnits="userSpaceOnUse" x1="92.759" x2="192.386" xlink:href="#b" y1="133.264" y2="133.264"/>
  <path d="M431.173 264.43l-49.019-28.03v.001c-2.565-1.359-5.859-1.165-9.453.91-8.178 4.721-14.807 17.388-14.807 28.291 0 5.994 2.006 10.202 5.17 11.997l-.002.005 48.458 27.717 1.536-3.197c.707-.27 1.431-.613 2.167-1.038 8.177-4.721 14.807-17.388 14.807-28.291 0-1.8-.184-3.436-.523-4.898z" fill="url(#c)"/>
  <path d="M436.116 276.298c0-10.903-6.629-15.915-14.807-11.194-8.177 4.721-14.807 17.388-14.807 28.291s6.629 15.915 14.807 11.194c8.177-4.722 14.807-17.388 14.807-28.291z" fill="url(#d)"/>
  <path d="M430.528 279.524c0-6.789-4.127-9.909-9.219-6.969-5.091 2.94-9.219 10.826-9.219 17.614 0 6.789 4.127 9.909 9.219 6.969 5.091-2.939 9.219-10.826 9.219-17.614z" fill="url(#e)"/>
  <path d="M462.87 164.355l-49.019-28.03v.001c-2.565-1.359-5.859-1.165-9.453.91-8.178 4.721-14.807 17.388-14.807 28.291 0 5.994 2.006 10.202 5.17 11.997l-.002.005 48.458 27.717 1.536-3.197c.707-.27 1.431-.613 2.167-1.038 8.178-4.721 14.807-17.388 14.807-28.291 0-1.8-.184-3.436-.523-4.898z" fill="url(#f)"/>
  <path d="M467.812 176.223c0-10.903-6.629-15.915-14.807-11.194s-14.807 17.387-14.807 28.291c0 10.903 6.629 15.915 14.807 11.194 8.178-4.722 14.807-17.388 14.807-28.291z" fill="url(#g)"/>
  <path d="M462.224 179.449c0-6.789-4.128-9.909-9.219-6.969-5.091 2.939-9.219 10.826-9.219 17.614 0 6.789 4.127 9.909 9.219 6.969 5.092-2.939 9.219-10.826 9.219-17.614z" fill="url(#h)"/>
  <path d="M290.498 259.592L427.05 79.683l37.452 21.623-73.294 223.268z" fill="url(#i)"/>
  <path d="M260.579 375.417l-49.019-28.03v.001c-2.565-1.359-5.859-1.165-9.453.91-8.177 4.721-14.807 17.388-14.807 28.291 0 5.994 2.006 10.202 5.17 11.997l-.002.005 48.458 27.717 1.536-3.197c.708-.27 1.431-.613 2.167-1.039 8.178-4.721 14.807-17.388 14.807-28.291 0-1.8-.184-3.436-.523-4.898z" fill="url(#j)"/>
  <path d="M265.522 387.285c0-10.904-6.629-15.915-14.807-11.194-8.177 4.721-14.807 17.388-14.807 28.291s6.629 15.915 14.807 11.194 14.807-17.387 14.807-28.291z" fill="url(#k)"/>
  <path d="M259.934 390.511c0-6.789-4.128-9.909-9.219-6.969s-9.219 10.826-9.219 17.614c0 6.789 4.127 9.909 9.219 6.969 5.091-2.939 9.219-10.825 9.219-17.614z" fill="url(#l)"/>
  <path d="M142.805 379.569l-49.019-28.03v.001c-2.565-1.359-5.859-1.165-9.453.91-8.178 4.721-14.807 17.388-14.807 28.291 0 5.995 2.006 10.202 5.17 11.997l-.002.005 48.458 27.717 1.536-3.197c.708-.27 1.431-.613 2.167-1.039 8.178-4.721 14.807-17.388 14.807-28.291 0-1.8-.184-3.436-.523-4.898z" fill="url(#m)"/>
  <path d="M147.747 391.437c0-10.904-6.629-15.915-14.807-11.194s-14.807 17.388-14.807 28.291 6.629 15.915 14.807 11.194c8.178-4.722 14.807-17.388 14.807-28.291z" fill="url(#n)"/>
  <path d="M142.16 394.663c0-6.789-4.128-9.909-9.219-6.969s-9.219 10.826-9.219 17.614 4.127 9.909 9.219 6.969c5.091-2.94 9.219-10.826 9.219-17.614z" fill="url(#o)"/>
  <path d="M180.635 212.451l14.493-63.847-29.326-16.931-37.262 51.009z" fill="#ffc538"/>
  <path d="M491.136 402.047S512 420.05 511.838 427.823c0 0 2.079 16.463-8.648 22.656 0 0-29.334 21.177-68.127 5.705 0 0-56.089-25.852-116.407-66.681-31.413-21.263-104.109-88.367-162.331-148.412l-45.907-48.369a13.786 13.786 0 01-2.418-15.48c3.389-7.022 11.925-9.836 18.826-6.206l274.74 147.012a232.992 232.992 0 0189.57 83.999z" fill="url(#p)"/>
  <path d="M192.386 216.368L139.115 76.924 92.759 50.16l24.408 122.78z" fill="url(#q)"/>
  <path d="M161.834 225.377H66.26l-25.781-14.884 81.793-20.76z" fill="#ffc538"/>
  <path d="M487.336 396.086a232.93 232.93 0 00-23.132-29.663c1.33 4.469-.011 11.472-4.403 15.648-11.208 10.658-47.783 13.449-65.85 7.427-9.856-3.285-14.976-6.407-14.976-6.407l10.712 22.482s25.46 20.76 59.538 14.884c22.478-3.875 33.193-14.397 38.111-24.371z" fill="#43386b"/>
  <path d="M236.984 304.597L0 358.567l40.479 23.371 267.727-3.368a68.254 68.254 0 00-30.287-47.312z" fill="#ffc538"/>
</svg>