<svg width="100%" height="100%" viewBox="0 0 512 512" xmlns="http://www.w3.org/2000/svg">
  <path d="M395.31 0H226.23l-12.896 234.666 12.896 217.667h169.08c30.327 0 55-24.673 55-55V55c0-30.327-24.673-55-55-55z" fill="#fdc673"/>
  <path d="M176.23 0c-30.327 0-55 24.673-55 55v342.333c0 30.327 24.673 55 55 55h49.999V0z" fill="#ffdf8e"/>
  <g>
    <path d="M335.769 59.667h-109.54l-12.896 236.374L226.229 512h109.54c30.327 0 55-24.673 55-55V114.667c0-30.327-24.672-55-55-55z" fill="#e2e2ea"/>
    <path d="M116.69 59.667c-30.327 0-55 24.673-55 55V457c0 30.327 24.673 55 55 55h109.539V59.667z" fill="#f4f4f6"/>
    <path d="M301.229 128h30v30h-30z" fill="#9ccefd"/>
    <path d="M121.23 380.431h30v30h-30z" fill="#b0d8fd"/>
    <g>
      <path d="M226.229 454.936l40.563-24.91V234.667h-40.563l-12.896 106.666z" fill="#a7a7c1"/>
      <path d="M185.668 430.026l40.561 24.91V234.667h-40.561z" fill="#bcbcd0"/>
      <path d="M266.889 230.298V118.997h-40.66l-12.896 62.336 12.896 48.965z" fill="#dc4b4b"/>
      <path d="M185.571 118.997h40.658v111.301h-40.658z" fill="#e07037"/>
      <g>
        <path d="M292.735 197.676c-.286 13.209-11.267 23.956-24.479 23.956h-42.027l-12.896 13.034 12.896 16.966h42.027c14.331 0 27.864-5.521 38.107-15.544s16.054-23.435 16.363-37.763z" fill="#fdc673"/>
        <path d="M184.203 221.632c-13.212 0-24.193-10.747-24.48-23.956l-29.992.649c.31 14.328 6.121 27.739 16.364 37.762 10.242 10.024 23.775 15.544 38.107 15.544h42.026v-30h-42.025z" fill="#ffdf8e"/>
      </g>
    </g>
  </g>
</svg>