<svg width="100%" height="100%" viewBox="0 0 512 512" xmlns="http://www.w3.org/2000/svg">
  <path clip-rule="evenodd" d="M66.272 171.685v305.796c0 13.351 10.828 24.321 24.15 24.519H475.15c13.294-.198 24.122-11.168 24.122-24.519V34.491c0-13.464-11.026-24.491-24.49-24.491H90.762c-13.464 0-24.49 11.027-24.49 24.491V120.323zm89.74 176.935V52.009h301.281v323.993H156.012z" fill="#d5ea7a" fill-rule="evenodd"/>
  <path clip-rule="evenodd" d="M156.012 52.009v141.985h48.725v-19.559c0-26.305 20.522-33.306 30.953-37.813-4.592-4.876-7.398-11.48-7.398-18.737 0-15.137 12.273-27.382 27.381-27.382 15.136 0 27.41 12.245 27.41 27.382 0 7.257-2.806 13.861-7.398 18.737 10.431 4.507 30.953 11.508 30.953 37.813 0-26.305 20.522-33.306 30.981-37.813-4.62-4.876-7.426-11.48-7.426-18.737 0-15.137 12.273-27.382 27.41-27.382s27.381 12.245 27.381 27.382c0 7.257-2.806 13.861-7.398 18.737 10.431 4.507 30.953 11.508 30.953 37.813v19.559h48.754V52.009z" fill="#fff" fill-rule="evenodd"/>
  <path clip-rule="evenodd" d="M255.674 90.502c-15.108 0-27.381 12.245-27.381 27.382 0 7.257 2.806 13.861 7.398 18.737 5.017 5.329 12.103 8.674 19.983 8.674 7.908 0 14.995-3.345 20.012-8.674 4.592-4.876 7.398-11.48 7.398-18.737 0-15.136-12.274-27.382-27.41-27.382zM357.603 90.502c-15.136 0-27.41 12.245-27.41 27.382 0 7.257 2.806 13.861 7.426 18.737 4.989 5.329 12.103 8.674 19.983 8.674s14.995-3.345 19.983-8.674c4.592-4.876 7.398-11.48 7.398-18.737.002-15.136-12.244-27.382-27.38-27.382z" fill="#ffdcd5" fill-rule="evenodd"/>
  <path clip-rule="evenodd" d="M255.674 145.295c-7.88 0-14.966-3.345-19.983-8.674-10.431 4.507-30.953 11.508-30.953 37.813v19.559h101.901v-19.559c0-26.305-20.522-33.306-30.953-37.813-5.017 5.329-12.104 8.674-20.012 8.674z" fill="#d5ea7a" fill-rule="evenodd"/>
  <path clip-rule="evenodd" d="M337.62 136.621c-10.459 4.507-30.981 11.508-30.981 37.813v19.559H408.54v-19.559c0-26.305-20.522-33.306-30.953-37.813-4.989 5.329-12.103 8.674-19.983 8.674s-14.995-3.345-19.984-8.674z" fill="#ff7b79" fill-rule="evenodd"/>
  <path clip-rule="evenodd" d="M306.639 193.993V348.62c0-33.193 36.934-42.009 50.114-47.678a34.363 34.363 0 01-9.354-23.641c0-19.077 15.476-34.554 34.553-34.554 19.105 0 34.581 15.477 34.581 34.554 0 9.156-3.571 17.461-9.354 23.641 13.181 5.669 50.114 14.485 50.114 47.678V193.993h-48.754zM306.639 193.993H156.013V348.62c0-33.193 36.934-42.009 50.086-47.678-5.782-6.179-9.354-14.485-9.354-23.641 0-19.077 15.476-34.554 34.581-34.554 19.076 0 34.553 15.477 34.553 34.554a34.365 34.365 0 01-9.354 23.641c13.181 5.669 50.114 14.485 50.114 47.678V199.209z" fill="#fff" fill-rule="evenodd"/>
  <path clip-rule="evenodd" d="M231.326 242.748c-19.105 0-34.581 15.477-34.581 34.554 0 9.156 3.571 17.461 9.354 23.641 6.321 6.718 15.278 10.913 25.227 10.913s18.906-4.195 25.199-10.913a34.363 34.363 0 009.354-23.641c-.001-19.077-15.477-34.554-34.553-34.554z" fill="#ffdcd5" fill-rule="evenodd"/>
  <path clip-rule="evenodd" d="M231.326 311.856c-9.949 0-18.906-4.195-25.227-10.913-13.152 5.669-50.086 14.485-50.086 47.678v27.382h150.625V348.62c0-33.193-36.934-42.009-50.114-47.678-6.292 6.718-15.249 10.914-25.198 10.914z" fill="#ff7b79" fill-rule="evenodd"/>
  <path clip-rule="evenodd" d="M356.753 300.942c-13.181 5.669-50.114 14.485-50.114 47.678v27.382h150.654V348.62c0-33.193-36.934-42.009-50.114-47.678-6.321 6.718-15.278 10.913-25.227 10.913a34.456 34.456 0 01-25.199-10.913z" fill="#a0c8ff" fill-rule="evenodd"/>
  <path clip-rule="evenodd" d="M381.952 242.748c-19.076 0-34.553 15.477-34.553 34.554a34.365 34.365 0 009.354 23.641 34.462 34.462 0 0025.199 10.913c9.949 0 18.906-4.195 25.227-10.913 5.782-6.179 9.354-14.485 9.354-23.641 0-19.077-15.477-34.554-34.581-34.554z" fill="#ffdcd5" fill-rule="evenodd"/>
  <path d="M474.782 0H327.671c-5.523 0-10 4.477-10 10s4.477 10 10 10h147.111c7.99 0 14.49 6.5 14.49 14.491v442.99c0 8.006-6.5 14.519-14.49 14.519H90.762c-7.99 0-14.49-6.513-14.49-14.519v-75.803h4.427c10.647 0 19.309 8.662 19.309 19.31 0 5.523 4.477 10 10 10s10-4.477 10-10c0-21.675-17.634-39.31-39.309-39.31h-4.427v-90.011h4.427c10.647 0 19.309 8.675 19.309 19.338 0 5.523 4.477 10 10 10s10-4.477 10-10c0-21.691-17.634-39.338-39.309-39.338h-4.427v-89.982h4.427c10.647 0 19.309 8.662 19.309 19.31 0 5.523 4.477 10 10 10s10-4.477 10-10c0-21.675-17.634-39.31-39.309-39.31h-4.427v-90.01h4.427c10.647 0 19.309 8.662 19.309 19.31 0 5.523 4.477 10 10 10s10-4.477 10-10c0-21.675-17.634-39.31-39.309-39.31h-4.427V34.491c0-7.99 6.5-14.491 14.49-14.491h147.111c5.523 0 10-4.477 10-10s-4.477-10-10-10H90.762c-19.018 0-34.49 15.473-34.49 34.491v17.184H42.037c-21.675 0-39.309 17.634-39.309 39.31 0 21.691 17.634 39.338 39.309 39.338h14.235v31.363H42.037c-21.675 0-39.309 17.634-39.309 39.31s17.634 39.31 39.309 39.31h14.235v31.363H42.037c-21.675 0-39.309 17.647-39.309 39.338 0 21.675 17.634 39.31 39.309 39.31h14.235v31.363H42.037c-21.675 0-39.309 17.634-39.309 39.31s17.634 39.31 39.309 39.31h14.235v17.184c0 19.034 15.472 34.519 34.49 34.519h384.02c19.018 0 34.49-15.485 34.49-34.519V34.491C509.272 15.473 493.8 0 474.782 0zM56.272 440.297H42.037c-10.647 0-19.309-8.662-19.309-19.31s8.662-19.31 19.309-19.31h14.235zm0-109.982H42.037c-10.647 0-19.309-8.662-19.309-19.31 0-10.663 8.662-19.338 19.309-19.338h14.235zm0-110.011H42.037c-10.647 0-19.309-8.662-19.309-19.31s8.662-19.31 19.309-19.31h14.235zm0-109.982H42.037c-10.647 0-19.309-8.675-19.309-19.338 0-10.647 8.662-19.31 19.309-19.31h14.235z"/>
  <path d="M391.753 417.983c0-5.523-4.477-10-10-10H231.524c-5.523 0-10 4.477-10 10s4.477 10 10 10h150.229c5.523 0 10-4.477 10-10zM467.293 376.002V52.009c0-5.523-4.477-10-10-10h-301.28c-5.523 0-10 4.477-10 10v323.993c0 5.523 4.477 10 10 10H457.292c5.524 0 10.001-4.477 10.001-10zm-85.341-74.147c-13.539 0-24.553-11.015-24.553-24.554s11.014-24.554 24.553-24.554c13.554 0 24.581 11.015 24.581 24.554s-11.027 24.554-24.581 24.554zm0-69.107c-24.566 0-44.553 19.987-44.553 44.554a44.278 44.278 0 004.163 18.776c-7.452 2.924-16.729 7.074-24.924 13.374V203.993h130.654v105.458c-8.195-6.3-17.473-10.451-24.926-13.375a44.246 44.246 0 004.166-18.775c.001-24.566-19.998-44.553-44.58-44.553zm-24.349-77.453a37.144 37.144 0 0021.748-7.012c10.8 4.931 19.188 11.085 19.188 26.151v9.559h-81.901v-9.559c0-15.067 8.393-21.222 19.202-26.15a37.194 37.194 0 0021.763 7.011zm-17.41-37.411c0-9.584 7.81-17.382 17.41-17.382 9.584 0 17.381 7.797 17.381 17.382 0 9.6-7.797 17.411-17.381 17.411-9.6 0-17.41-7.811-17.41-17.411zm-43.554 248.118H166.012V348.62c0-20.222 18.447-28.812 37.342-35.877l.674-.253c7.549 5.862 17.018 9.366 27.296 9.366 10.271 0 19.734-3.503 27.278-9.365l.656.246c18.913 7.063 37.378 15.653 37.378 35.884v17.381zm-89.894-88.7c0-13.539 11.027-24.554 24.581-24.554 13.539 0 24.553 11.015 24.553 24.554s-11.014 24.554-24.553 24.554c-13.555-.001-24.581-11.015-24.581-24.554zm89.894 32.149c-8.194-6.299-17.471-10.45-24.924-13.374a44.278 44.278 0 004.163-18.776c0-24.567-19.986-44.554-44.553-44.554-24.582 0-44.581 19.987-44.581 44.554 0 6.707 1.5 13.069 4.168 18.78-7.443 2.923-16.711 7.072-24.9 13.368V203.993h130.626v105.458zm0-125.458h-81.901v-9.559c0-15.066 8.389-21.221 19.188-26.151 6.132 4.406 13.639 7.012 21.748 7.012a37.195 37.195 0 0021.769-7.015c10.803 4.931 19.196 11.085 19.196 26.155zm-58.347-66.109c0-9.584 7.797-17.382 17.381-17.382 9.6 0 17.41 7.797 17.41 17.382 0 9.6-7.81 17.411-17.41 17.411-9.583 0-17.381-7.811-17.381-17.411zm68.348 27.001c-4.933-5.871-10.972-9.841-16.417-12.663a37.205 37.205 0 002.861-14.337c0-20.612-16.782-37.382-37.41-37.382-20.612 0-37.381 16.77-37.381 37.382 0 5.077 1.02 9.92 2.859 14.338-11.797 6.116-26.414 17.575-26.414 42.212v9.559h-28.725V62.009h281.28v121.984H418.54v-9.559c0-24.637-14.618-36.097-26.414-42.212a37.227 37.227 0 002.859-14.338c0-20.612-16.769-37.382-37.381-37.382-20.628 0-37.41 16.77-37.41 37.382 0 5.079 1.022 9.922 2.863 14.342-5.449 2.823-11.486 6.792-16.417 12.659zm140.653 221.117H316.639V348.62c0-20.231 18.465-28.82 37.378-35.884l.656-.246c7.544 5.862 17.007 9.365 27.278 9.365 10.279 0 19.75-3.504 27.299-9.368l.664.249c18.913 7.063 37.378 15.653 37.378 35.884v17.382zM276.111 469.991h158.166c5.523 0 10-4.477 10-10s-4.477-10-10-10H276.111c-5.523 0-10 4.477-10 10s4.477 10 10 10zM179 449.991c-5.523 0-10 4.477-10 10s4.477 10 10 10h47.138c5.523 0 10-4.477 10-10s-4.477-10-10-10z"/>
  <g>
    <path d="M282.829 20h-.057c-5.523 0-10-4.477-10-10s4.477-10 10-10S292.8 4.477 292.8 10s-4.448 10-9.971 10z"/>
  </g>
</svg>