<svg width="100%" height="100%" viewBox="0 0 64 64" xmlns="http://www.w3.org/2000/svg">
  <path d="M30.999 54h1.999v8.998h-1.999zM34.999 51h1.999v8.998h-1.999zM38.999 48h1.999v8.998h-1.999zM42.999 44.999h1.999v8.999h-1.999zM46.999 42h1.999v8.998h-1.999zM27 51h1.999v8.999H27zM23 48h1.999v8.999H23zM19 44.999h1.999v8.999H19zM15 42h1.999v8.998H15z" fill="#f19552"/>
  <path d="M50 7v35L32 56 14 42V7" fill="#e2722e"/>
  <path d="M44 7v25.667L32 42l-12-9.333V7z" fill="#f19552"/>
  <path d="M35.153 22.48l-.763-1.848 5.103-2.107a.794.794 0 00.507-.738.79.79 0 00-.789-.787H37v-2h2.211A2.792 2.792 0 0142 17.788a2.782 2.782 0 01-1.754 2.59zM28.935 22.599l-5.205-2.23A2.768 2.768 0 0122 17.788a2.771 2.771 0 01.815-1.972A2.777 2.777 0 0124.787 15H27v2h-2.213a.783.783 0 00-.787.788c0 .326.194.613.495.734l5.228 2.24zM30 24h4v4h-4z" fill="#f2c351"/>
  <path d="M50 28L32 42 14 28v9l18 14 18-14z" fill="#dd602a"/>
  <path d="M50 37L32 51 14 37v5l18 14 18-14z" fill="#c13b1f"/>
  <path d="M10 8H5a3 3 0 110-6h5zM54 8h5a3 3 0 100-6h-5z" fill="#976947"/>
  <path d="M10 3h44v4H10z" fill="#d5cec2"/>
  <path d="M10 3h44v2H10z" fill="#e7e4dd"/>
  <path d="M27 15v1.757c0 2.717 1.079 5.322 3 7.243h4c1.921-1.921 3-4.526 3-7.243V15zM30 28l-1.336.891A3.736 3.736 0 0027 32h10a3.736 3.736 0 00-1.664-3.109L34 28z" fill="#f7d881"/>
  <path d="M9.988 2H5a3 3 0 00-3 3 2.99 2.99 0 001.628 2.654A8.819 8.819 0 009.988 2zM61.437 3.261A2.99 2.99 0 0059 2h-5v5.859a8.804 8.804 0 007.437-4.598z" fill="#c18e59"/>
  <path d="M58.999 1h-5A.999.999 0 0053 2H10.999a1 1 0 00-1-1H4.998C2.794 1 1 2.794 1 5s1.794 4 3.998 4h5.001a1 1 0 001-1H13v33.999c0 .309.142.601.386.79L15 44.044v6.955h1.999v-5.4L19 47.155v6.843h1.999V48.71L23 50.266v6.733h1.999v-5.178L27 53.378v6.621h1.999v-5.066L31 56.489v6.51h1.999v-6.51L35 54.933v5.066h1.999v-6.621L39 51.822v5.177h1.999v-6.732L43 48.711v5.288h1.999v-6.842L47 45.599v5.4h1.999v-6.954l1.614-1.256a.998.998 0 00.386-.789V8H53a1 1 0 001 1h4.999c2.206 0 4-1.795 4-4 0-2.207-1.794-4-4-4zm-50 6H4.998a2.001 2.001 0 010-4h4.001zM19 8v22.623l-4-3.111V8zm29.999 28.511L32 49.732 15 36.511v-6.466l16.386 12.744a.994.994 0 001.227 0l16.386-12.744zM32 40.732l-11.001-8.556V8H43v24.178zm0 14L15 41.51v-2.465l16.386 12.744a.994.994 0 001.227 0l16.386-12.744v2.466zm16.999-27.221l-4 3.111V8h4zM10.999 6V4H53v2zm48 1H55V3h3.999c1.104 0 2 .897 2 2s-.896 2-2 2z"/>
  <path d="M39.211 15H38a1 1 0 00-1-1H27c-.553 0-1 .447-1 .999V15h-1.213c-.744 0-1.444.29-1.972.816A2.77 2.77 0 0022 17.788c0 1.147.687 2.163 1.752 2.59l3.421 1.368c.473.953 1.086 1.84 1.827 2.639v3.079l-.892.594A4.723 4.723 0 0026 32c0 .552.447 1 1 .999h10a.997.997 0 001-1 4.734 4.734 0 00-2.11-3.94l-.891-.594v-3.08a11.227 11.227 0 001.826-2.638l3.421-1.369a2.777 2.777 0 001.753-2.59A2.79 2.79 0 0039.211 15zm-11.212 1H36v.757A9.178 9.178 0 0133.573 23h-3.148a9.182 9.182 0 01-2.426-6.242zm3 8.999H33V27h-2.001zm-6.504-6.478a.786.786 0 01-.495-.734.783.783 0 01.787-.787h1.224c.016.761.108 1.508.271 2.236zM35.811 31h-7.623a2.733 2.733 0 011.03-1.277L30.302 29h3.395l1.083.722A2.75 2.75 0 0135.811 31zm3.692-12.479l-1.786.715A11.3 11.3 0 0037.988 17h1.223a.789.789 0 01.292 1.521z"/>
</svg>