<svg width="100%" height="100%" viewBox="0 0 512 512" xmlns="http://www.w3.org/2000/svg">
  <path d="M427 297H105V117h322z" fill="#82551e"/>
  <path d="M307 117h120v180H307z" fill="#704413"/>
  <g fill="#a06428">
    <path d="M427 312c-57.897 0-105-47.103-105-105s47.103-105 105-105c8.284 0 15 6.716 15 15v180c0 8.284-6.716 15-15 15zM105 312C47.103 312 0 264.897 0 207s47.103-105 105-105c8.284 0 15 6.716 15 15v180c0 8.284-6.716 15-15 15z"/>
    <path d="M427 312H105c-8.284 0-15-6.716-15-15V117c0-8.284 6.716-15 15-15h322c8.284 0 15 6.716 15 15v180c0 8.284-6.716 15-15 15zm-307-30h292V132H120z"/>
  </g>
  <path d="M427 102H307v30h105v150H307v30h120c8.284 0 15-6.716 15-15V117c0-8.284-6.716-15-15-15z" fill="#82551e"/>
  <path d="M457 312H157a15 15 0 01-13.676-21.163c13.076-29.017 35.293-53.71 64.25-71.411C236.927 201.484 271.308 192 307 192s70.073 9.484 99.426 27.426c28.957 17.701 51.174 42.394 64.25 71.411A15 15 0 01457 312z" fill="#fff05f"/>
  <path d="M470.676 290.837c-13.076-29.017-35.293-53.71-64.25-71.411C377.073 201.484 342.692 192 307 192v120h150a15 15 0 0013.676-21.163z" fill="#ffd737"/>
  <path d="M237 512H105c-8.284 0-15-6.716-15-15V297c0-8.284 6.716-15 15-15h132c8.284 0 15 6.716 15 15v200c0 8.284-6.716 15-15 15z" fill="#be823c"/>
  <path d="M237 282h260c8.284 0 15 6.716 15 15v200c0 8.284-6.716 15-15 15H237z" fill="#a06428"/>
  <path d="M497 282H307v230h190c8.284 0 15-6.716 15-15V297c0-8.284-6.716-15-15-15z" fill="#82551e"/>
  <path d="M362 20h-5v-5c0-8.284-6.716-15-15-15s-15 6.716-15 15v5h-5c-8.284 0-15 6.716-15 15s6.716 15 15 15h5v5c0 8.284 6.716 15 15 15s15-6.716 15-15v-5h5c8.284 0 15-6.716 15-15s-6.716-15-15-15zM497 20h-5v-5c0-8.284-6.716-15-15-15s-15 6.716-15 15v5h-5c-8.284 0-15 6.716-15 15s6.716 15 15 15h5v5c0 8.284 6.716 15 15 15s15-6.716 15-15v-5h5c8.284 0 15-6.716 15-15s-6.716-15-15-15z" fill="#ffd737"/>
  <path d="M55 372h-5v-5c0-8.284-6.716-15-15-15s-15 6.716-15 15v5h-5c-8.284 0-15 6.716-15 15s6.716 15 15 15h5v5c0 8.284 6.716 15 15 15s15-6.716 15-15v-5h5c8.284 0 15-6.716 15-15s-6.716-15-15-15zM367.782 371.993c-25.176.431-45.782-20.611-45.782-45.791V282h90v45c0 24.552-19.764 44.574-44.218 44.993z" fill="#fff05f"/>
  <path d="M352 282v45c0 8.271 6.729 15 15 15s15-6.729 15-15v-45z" fill="#fab900"/>
  <path d="M90.017 422H252v30H90.017z" fill="#fff05f"/>
  <path d="M237 422h275v30H237z" fill="#ffd737"/>
  <path d="M307 422h205v30H307z" fill="#fab900"/>
</svg>