<svg width="100%" height="100%" viewBox="0 0 512 512" xmlns="http://www.w3.org/2000/svg">
  <path d="M501.121 498.988a11.028 11.028 0 01-2.133 8.96 10.835 10.835 0 01-8.32 4.053H21.334a10.835 10.835 0 01-8.32-4.053 11.028 11.028 0 01-2.133-8.96l57.387-264.32 4.693-21.333L117.547 8.321A10.539 10.539 0 01128 .001h256a10.537 10.537 0 0110.453 8.32l44.587 205.013 4.693 21.333 57.388 264.321z" fill="#4caf50"/>
  <g fill="#fafafa">
    <path d="M439.041 213.334h-89.387c-18.347-70.187-60.8-85.333-93.653-85.333-46.933 0-79.787 30.507-93.653 85.333H72.961l-4.693 21.333h90.88a73.88 73.88 0 0017.28 48A104.832 104.832 0 00256.001 320a106.88 106.88 0 0080.427-37.973 71.916 71.916 0 0016.64-47.36h90.667l-4.694-21.333zm-183.04-64c35.627 0 58.88 21.12 71.467 64H184.321c11.946-42.24 35.84-64 71.68-64zm63.786 119.254c-28.985 35.199-81.015 40.236-116.214 11.252a82.608 82.608 0 01-10.719-10.612 52.93 52.93 0 01-12.16-34.56h150.827a50.308 50.308 0 01-11.734 33.92zM375.681 512.001h-21.76l-21.333-106.667H179.414l-21.333 106.667h-21.76l23.893-119.467a10.667 10.667 0 0110.453-8.533h170.667a10.666 10.666 0 0110.453 8.533l23.894 119.467zM319.787 72.961a9.707 9.707 0 01-2.347 8.533 9.92 9.92 0 01-8.107 3.84H202.667a9.92 9.92 0 01-8.107-3.84 9.708 9.708 0 01-2.347-8.533l12.16-72.96h21.547l-10.667 64h81.493l-10.667-64h21.547l12.161 72.96z"/>
  </g>
</svg>