<svg width="100%" height="100%" viewBox="0 0 512 512" xmlns="http://www.w3.org/2000/svg" fill="#ffffff">
  <path d="M432 352c-17.645 0-32-14.355-32-32V208c0-38.558-15.043-74.783-42.357-102.002-16.839-16.78-37.087-28.878-59.176-35.662A47.687 47.687 0 00304 48c0-26.467-21.533-48-48-48s-48 21.533-48 48a47.683 47.683 0 005.593 22.453C154.848 88.802 112 144.21 112 209.39V320c0 17.645-14.355 32-32 32-8.836 0-16 7.164-16 16v64c0 8.836 7.164 16 16 16h120.575a56.769 56.769 0 00-.575 8c0 30.878 25.122 56 56 56s56-25.122 56-56c0-2.701-.2-5.371-.575-8H432c8.836 0 16-7.164 16-16v-64c0-8.836-7.164-16-16-16zM256 32c8.822 0 16 7.178 16 16s-7.178 16-16 16-16-7.178-16-16 7.178-16 16-16zm24 424c0 13.234-10.766 24-24 24s-24-10.766-24-24c0-2.765.462-5.458 1.361-8h45.277a23.913 23.913 0 011.362 8zm136-40H96v-34.025c27.573-7.122 48-32.208 48-61.975V209.39c0-62.307 50.062-113.173 111.597-113.389l.405-.001c29.844 0 57.905 11.591 79.053 32.665C356.3 149.835 368 178.011 368 208v112c0 29.767 20.427 54.853 48 61.975z"/>
  <path d="M192 224c-8.836 0-16-7.164-16-16 0-44.112 35.888-80 80-80 8.836 0 16 7.164 16 16s-7.164 16-16 16c-26.467 0-48 21.533-48 48 0 8.836-7.164 16-16 16z"/>
</svg>