<svg width="100%" height="100%" viewBox="0 0 512 512" xmlns="http://www.w3.org/2000/svg">
  <path d="M250.618 194.941H97.258V5.925a5.726 5.726 0 015.726-5.726h141.907a5.726 5.726 0 015.726 5.726v189.016z" fill="#eab14d"/>
  <path d="M232.884.198V194.94h17.733V5.925a5.726 5.726 0 00-5.726-5.726h-12.007z" fill="#e49542"/>
  <path d="M183.635 44.319h-19.393a4.61 4.61 0 01-4.611-4.611V.198h28.615v39.51a4.611 4.611 0 01-4.611 4.611z" fill="#df6b57"/>
  <path d="M426.69 363.673H191.671V131.765a8.937 8.937 0 018.937-8.937h220.356a5.726 5.726 0 015.726 5.726z" fill="#f1cb86"/>
  <path d="M408.957 122.828v240.845h17.733V128.554a5.726 5.726 0 00-5.726-5.726z" fill="#ecbe6b"/>
  <path d="M318.877 166.949h-19.393a4.61 4.61 0 01-4.611-4.611v-39.51h28.615v39.51a4.61 4.61 0 01-4.611 4.611z" fill="#365e7d"/>
  <path d="M276.981 511.802H7.322A7.322 7.322 0 010 504.48V328.192a5.726 5.726 0 015.726-5.726h265.167a6.088 6.088 0 016.088 6.088z" fill="#eab14d"/>
  <path d="M259.248 322.466v189.336h17.733V328.554a6.088 6.088 0 00-6.088-6.088z" fill="#e49542"/>
  <path d="M148.187 366.587h-19.393a4.61 4.61 0 01-4.611-4.611v-39.51h28.615v39.51a4.61 4.61 0 01-4.611 4.611z" fill="#365e7d"/>
  <path d="M504.678 511.802H276.981V363.673h229.293a5.726 5.726 0 015.726 5.726v135.08a7.323 7.323 0 01-7.322 7.323z" fill="#eab14d"/>
  <path d="M494.267 363.673v148.129h10.411A7.322 7.322 0 00512 504.48V369.4a5.726 5.726 0 00-5.726-5.726h-12.007z" fill="#e49542"/>
  <path d="M404.187 407.794h-19.393a4.61 4.61 0 01-4.611-4.611v-39.51h28.615v39.51a4.61 4.61 0 01-4.611 4.611z" fill="#df6b57"/>
  <path d="M191.671 322.466H38.312V200.667a5.726 5.726 0 015.726-5.726h147.633z" fill="#f1cb86"/>
  <path d="M173.938 194.941h17.733v127.525h-17.733z" fill="#ecbe6b"/>
  <path d="M124.688 239.062h-19.393a4.61 4.61 0 01-4.611-4.611v-39.51h28.615v39.51a4.61 4.61 0 01-4.611 4.611z" fill="#df6b57"/>
</svg>