<svg width="100%" height="100%" viewBox="0 0 512.103 512.103" xmlns="http://www.w3.org/2000/svg">
    <path d="M268.685 267.83l5.333 7.467s-1.067 21.333 0 27.733l-36.267 13.867-17.067-39.467 48.001-9.6z" fill="#ffd15c"/><path d="M235.618 312.63s7.467-2.133 9.6-4.267c2.133-2.133 22.4-11.733 27.733-9.6 0 0 2.133 17.067 6.4 20.267 0 0 5.333 14.933 10.667 26.667 5.333 11.733 9.6 23.467 11.733 36.267 1.067 7.467 2.133 13.867 3.2 17.067 3.2 8.533 7.467 41.6 7.467 41.6l-16 14.933s-10.667 0-10.667-10.667c-1.067-10.667 0-8.533-3.2-18.133s-10.667-26.667-10.667-26.667-16-16-20.267-46.933c.001-.001-12.799-33.068-15.999-40.534z" fill="#f26f5a"/><path d="M308.151 473.696s5.333 8.533 6.4 9.6c2.133 1.067 2.133 0 2.133 0v-3.2h1.067l1.067 2.133c1.067 0 2.133 0 2.133-1.067v-3.2l2.133 2.133c2.133 0 4.267-1.067 6.4-2.133v-2.133c1.067-1.067 1.067-2.133 2.133-1.067l1.067 1.067c1.067 1.067 2.133 1.067 3.2-1.067v-5.333l-3.2-5.333-24.533 9.6z" fill="#2f4251"/><g fill="#ffd15c"><path d="M116.151 147.296s3.2 24.533-4.267 42.667c-7.467 18.133-8.533 38.4-8.533 38.4s0 6.4 3.2 9.6c3.2 2.133 4.267 9.6 4.267 9.6s0 7.467 2.133 11.733 3.2 8.533 2.133 9.6c-1.067 1.067-4.267 2.133-6.4-1.067s-3.2-7.467-3.2-7.467l-1.067-2.133s-3.2 1.067-3.2 4.267l1.067 4.267s1.067 3.2 1.067 5.333c0 0 3.2 2.133 3.2 4.267 0 0 5.333 2.133 4.267 5.333 0 0-1.067 1.067-3.2 0 0 0-2.133 0-3.2-1.067-1.067-2.133-8.533-7.467-8.533-7.467s-4.267-6.4-4.267-7.467l-3.2-5.333s1.067-19.2 2.133-21.333c0 0 1.067-4.267 0-6.4-1.067-1.067-2.133-7.467-1.067-8.533 0 0 0-14.933-1.067-33.067s5.333-46.933 8.533-55.467l19.201 11.734zM332.685 92.896l3.2-2.133s20.267 7.467 26.667 13.867c6.4 6.4 22.4 14.933 22.4 14.933s3.2 0 5.333 3.2c1.067 2.133 4.267 1.067 4.267 1.067s7.467-1.067 11.733 1.067c3.2 1.067 9.6 3.2 10.667 4.267l2.133 2.133 4.267 7.467s1.067 2.133 2.133 3.2c0 0-1.067 4.267-4.267 2.133 0 0-2.133 2.133-5.333-1.067-2.133-2.133-2.133-3.2-2.133-3.2s-4.267-3.2-5.333-4.267c0 0-1.067 0-1.067 1.067 0 0 3.2 3.2 3.2 4.267 0 1.067-2.133 3.2-5.333 2.133-3.2-2.133-4.267-2.133-4.267-2.133s-5.333 2.133-7.467 2.133c0 0-2.133 3.2-4.267 4.267 0 0 0 5.333-3.2 4.267l-2.133-2.133s-2.133-2.133-3.2-2.133-5.333-4.267-4.267-5.333c1.067-2.133 1.067-3.2 1.067-3.2s-5.333-3.2-9.6-3.2c-4.267 0-34.133-3.2-39.467-12.8-5.333-11.735 4.267-29.869 4.267-29.869z"/></g><path d="M198.285 252.896v14.933l-4.267 4.267-4.267 2.133-7.467 1.067-8.533 3.2s-2.133 9.6 4.267 14.933c5.333 5.333 14.933-5.333 14.933-5.333s4.267-5.333 4.267-8.533 5.333-10.667 5.333-10.667 6.4-5.333 7.467-11.733c0-4.267-11.733-4.267-11.733-4.267z" fill="#48b9a5"/><path d="M170.551 269.963c-1.067 5.333-3.2 9.6-6.4 12.8l-9.6 7.467-17.067 3.2-6.4-5.333c-1.067-2.133-1.067-4.267-2.133-6.4 0-2.133 0-4.267-1.067-5.333-1.067-4.267-2.133-12.8-1.067-21.333 2.133-12.8 11.733-11.733 11.733-11.733l32.001 26.665z" fill="#ffd15c"/><path fill="#f5b54c" d="M205.751 64.096l3.2 2.134 4.267 42.666-17.067 18.134-38.4-38.4 2.134-25.6z"/><path d="M334.818 105.696c-1.067 3.2-2.133 5.333-2.133 7.467-1.067 5.333-3.2 9.6-6.4 13.867-3.2 3.2-7.467 6.4-12.8 5.333-11.733-2.133-12.8-3.2-17.067-3.2s-8.533-1.067-8.533-1.067-2.133-1.067-6.4-1.067h-13.867s-3.2 0-4.267 4.267c-1.067 4.267-5.333 9.6-9.6 10.667-4.267 1.067 2.133 20.267 2.133 20.267s-2.133 10.667-3.2 13.867c0 0 3.2 3.2 1.067 12.8 0 0 0 3.2 2.133 5.333s6.4 20.267 6.4 20.267-26.667 26.667-64 24.533l-37.333-3.2s-27.733 2.133-28.8-19.2c0 0-1.067-7.467 1.067-10.667 2.133-3.2 1.067-8.533 1.067-8.533s-1.067-4.267 1.067-5.333c2.133-1.067-1.067-3.2-1.067-3.2s-1.067-9.6 3.2-16c0 0-3.2-18.133 0-27.733 0 0-3.2-2.133-3.2-3.2 0 0-9.6 12.8-10.667 19.2 0 0-7.467 1.067-11.733 1.067-4.267-1.067-11.733-2.133-12.8-6.4-1.067-3.2-4.267-3.2-10.667-11.733 0 0-3.2-2.133-1.067-8.533 3.2-5.333 14.933-32 14.933-32s11.733-20.267 11.733-23.467c0-3.2 4.267-6.4 6.4-7.467 2.133-1.067 4.267-4.267 4.267-4.267s3.2-3.2 7.467-3.2c3.2 0 7.467-3.2 7.467-3.2s6.4-4.267 11.733-5.333h2.133c8.533 24.533 23.467 40.533 39.467 55.467 0 0 6.4-7.467 13.867-22.4 6.4-13.867 2.133-29.867-2.133-41.6h1.067l1.067 5.333s25.6-2.133 36.267 5.333c0 0 12.8 0 18.133 4.267 0 0 22.4 6.4 29.867 12.8 7.467 6.4 14.933 5.333 14.933 5.333s4.267 3.2 14.933 5.333c9.6 1.067 17.067 7.467 17.067 7.467s-.001 5.332-3.201 11.732z" fill="#f26f5a"/><path d="M211.085 52.363h-5.333l-1.067-5.333h-1.067c4.267 10.667 9.6 27.733 2.133 41.6-7.467 14.933-13.867 22.4-13.867 22.4-16-14.933-30.933-30.933-39.467-55.467h-2.133c-1.066 0-2.133 0-3.2 1.067 8.533 24.533 22.4 41.6 40.533 57.6 1.067 1.067 2.133 1.067 3.2 1.067 1.067 0 3.2-1.067 4.267-2.133 0 0 7.467-8.533 14.933-23.467 7.468-10.667 4.268-25.601 1.068-37.334z" fill="#f3f3f3"/><path d="M207.885 54.496s3.2 18.133-3.2 25.6c-5.333 7.467-6.4 10.667-6.4 10.667s-5.333 9.6-12.8 8.533c-7.467-1.067-11.733-6.4-11.733-6.4s0-1.067-3.2-3.2c-3.2-1.067-12.8-9.6-14.933-17.067 0 0-2.133-5.333-2.133-8.533 0-2.133-2.133-8.533-3.2-9.6-1.067 0-1.067-7.467-1.067-7.467l52.267-3.2 6.399 10.667z" fill="#ffd15c"/><path d="M150.285 55.563s-2.133-6.4 4.267-5.333c6.4 1.067 13.867 7.467 18.133 2.133 4.267-5.333 14.933-2.133 14.933-2.133s5.333 1.067 7.467-1.067c2.133-2.133 5.333 1.067 5.333 1.067l4.267 7.467 2.133-1.067s-3.2-4.267-2.133-7.467l2.133-8.533s-1.067-10.667-2.133-14.933-4.267-20.267-20.267-24.534-26.667 4.267-33.067 8.533c-5.333 4.267-11.733 16-10.667 25.6 3.201 8.534 7.467 19.2 9.601 20.267z" fill="#425b6b"/><g fill="#ffd15c"><path d="M206.818 56.63c-1.067-2.133-2.133-5.333-1.067-8.533 1.067-3.2 1.067-8.533 3.2-9.6s4.267-1.067 4.267 1.067c1.067 2.133 0 4.267 0 4.267s-1.067 6.4 0 8.533c1.067 2.133-1.067 5.333-2.133 6.4-2.134-.001-2.134-.001-4.267-2.134zM203.618 261.43c-1.067-6.4-5.333-7.467-5.333-7.467h-2.133l-12.8 14.933-14.933-2.133s1.067 10.667-4.267 14.933c-4.267 3.2-8.533 5.333-12.8 7.467-2.133 1.067-4.267 1.067-6.4 2.133-5.333 1.067-7.467 0-7.467 0s-6.4-2.133-8.533-9.6v4.267c1.067 2.133 2.133 3.2 3.2 4.267 2.133 2.133 6.4 3.2 9.6 2.133 3.2 0 6.4-1.067 9.6-2.133 2.133-1.067 4.267-1.067 6.4-2.133 2.133-1.067 4.267-3.2 5.333-4.267l11.733-4.267s9.6-1.067 9.6-2.133c0 0 0 1.067 3.2 1.067s8.533-3.2 8.533-3.2 7.467-7.467 7.467-13.867z"/></g><path d="M255.885 211.296l7.467 1.067s1.067 1.067 2.133 9.6c1.067 8.533 3.2 13.867 3.2 13.867s3.2 7.467 3.2 12.8c0 5.333 0 7.467 1.067 10.667s1.067 14.933 1.067 14.933c-20.267 10.667-43.733 10.667-53.333 2.133l-11.733-19.2c-1.067-3.2-6.4-3.2-11.733-4.267 0 0-6.4 6.4-10.667 12.8-3.2 6.4-10.667 8.533-17.067 8.533-10.667-1.067-21.333-3.2-32-8.533-1.067-1.067-3.2-1.067-4.267-2.133-5.333-4.267-7.467-10.667-6.4-17.067l6.4-33.067 122.666-2.133z" fill="#425a6b"/><path d="M288.951 452.363s9.6-1.067 9.6-3.2c0 0-5.333-4.267 1.067-6.4s13.867-2.133 13.867-2.133 3.2 1.067 7.467 8.533c3.2 6.4 8.533 8.533 12.8 10.667 2.133 1.067 7.467 5.333 2.133 9.6 0 0-6.4-1.067-12.8 3.2s-8.533 8.533-12.8 5.333c-4.267-3.2-6.4-7.467-6.4-7.467l-14.934-18.133z" fill="#48b9a5"/><ellipse transform="rotate(-90.206 270.8 469.43)" cx="270.814" cy="469.436" rx="42.667" ry="41.6" fill="#e8eae8"/><g fill="#2f4251"><path d="M276.151 485.43l-4.266-16 13.866-10.667 11.734 10.667-5.334 16zM243.085 498.23l12.8 9.599 12.8-2.133-4.267-9.6-17.067-5.333zM244.151 473.696l10.667-10.666-3.2-14.934-11.733 1.067-5.334 14.933zM267.618 437.43l14.933 5.333 10.667-5.333-10.667-8.534h-14.933zM308.151 449.163l-2.133 1.067 1.067 13.867 4.267 9.6h1.067v-4.267c1.066-7.467-1.068-13.867-4.268-20.267zM304.951 495.03l1.067-3.2-9.6 4.267-10.667 10.667 1.067 1.067h1.067c6.4-2.135 12.8-6.401 17.066-12.801z"/></g>
</svg>