<svg width="100%" height="100%" viewBox="0 0 453.129 453.129" xmlns="http://www.w3.org/2000/svg">
  <path d="M338.565 325.129h-72l-40 40-40-40h-72c-26.51 0-48 21.49-48 48v72h320v-72c0-26.51-21.491-48-48-48z" fill="#a59f97"/>
  <g fill="#f2dbc0">
    <path d="M299.365 83.409c-7.265-18.165-27.88-27.002-46.045-19.737a35.43 35.43 0 00-7.435 4.065 35.423 35.423 0 01-39.368 1.216l-3.496-2.184c-16.59-10.37-38.445-5.327-48.815 11.263a35.426 35.426 0 00-4.137 9.457l-11.504 53.64v48c.007 33.053 18.551 63.31 48 78.32v57.68l40 40 40-40v-57.68c29.449-15.01 47.993-45.267 48-78.32v-48l-15.2-57.72zM126.565 141.129c-11.046 0-20 8.954-20 20s8.954 20 20 20h12v-40h-12zM326.565 181.129c11.046 0 20-8.954 20-20s-8.954-20-20-20h-12v40h12z"/>
  </g>
  <path d="M202.981 66.769l3.496 2.184a35.423 35.423 0 0039.368-1.216c15.908-11.388 38.036-7.724 49.424 8.184a35.454 35.454 0 014.096 7.488l15.2 57.72-3.336-79.808c-5.474-34.472-37.858-57.98-72.33-52.506a63.186 63.186 0 00-14.95 4.314l-37.384 16c-30.928 0-56 25.072-56 56l8 56 11.464-53.6c5.128-18.88 24.59-30.029 43.47-24.901a35.434 35.434 0 019.482 4.141z" fill="#4c3d24"/>
  <path d="M338.565 317.129h-64v-44.992a96 96 0 0048-83.008h4c15.464 0 28-12.536 28-28s-12.536-28-28-28h-4.328l-3.016-72.152a8.728 8.728 0 00-.096-.912C312.97 21.227 276.495-5.267 237.657.888a71.223 71.223 0 00-16.868 4.865l-35.92 15.376c-34.666.957-62.278 29.321-62.304 64-.001.38.026.76.08 1.136l6.696 46.864h-2.776c-15.464 0-28 12.536-28 28s12.536 28 28 28h4a96 96 0 0048 83.008v44.992h-64c-30.913.035-55.965 25.087-56 56v72a8 8 0 008 8h320a8 8 0 008-8v-72c-.036-30.913-25.087-55.965-56-56zm0-156c0 6.627-5.373 12-12 12h-4v-24h4c6.627 0 12 5.373 12 12zm-152-124a7.908 7.908 0 003.152-.648l37.376-16c28.029-11.991 60.471 1.01 72.462 29.039a55.238 55.238 0 013.698 12.633l.512 12.232c-12.278-20.616-38.945-27.376-59.561-15.097a43.069 43.069 0 00-3.015 1.969 27.367 27.367 0 01-30.472.944l-3.496-2.192c-20.326-12.712-47.108-6.54-59.82 13.786a43.43 43.43 0 00-5.196 12.046l-2.04 9.688-1.6-10.944c.328-26.284 21.713-47.427 48-47.456zm-60 136c-6.627 0-12-5.373-12-12s5.373-12 12-12h4v24h-4zm20 16v-47.152l11.2-52.384c4.011-14.61 19.106-23.202 33.716-19.191a27.433 27.433 0 017.276 3.191l3.504 2.192a43.311 43.311 0 0048.256-1.496c12.329-8.805 29.462-5.947 38.266 6.382a27.44 27.44 0 012.942 5.258l14.84 56.232v46.968c0 44.183-35.817 80-80 80s-80-35.817-80-80zm80 96a95.377 95.377 0 0032-5.6v42.288l-32 32-32-32v-42.288a95.368 95.368 0 0032 5.6zm152 152h-304v-64c.026-22.08 17.92-39.974 40-40h68.688l37.656 37.656a8 8 0 0011.312 0l37.656-37.656h68.688c22.08.026 39.974 17.92 40 40v64z"/>
  <path d="M186.565 151.129c-7.732 0-14 6.268-14 14s6.268 14 14 14 14-6.268 14-14c-.009-7.728-6.272-13.991-14-14zm-2 14a2 2 0 114 0c0 2.2-4 2.2-4 0zM266.565 179.129c7.732 0 14-6.268 14-14s-6.268-14-14-14-14 6.268-14 14c.008 7.728 6.271 13.991 14 14zm0-16a2 2 0 012 2c0 2.2-4 2.2-4 0a2 2 0 012-2zM256.565 205.129h-12c0 9.941-8.059 18-18 18s-18-8.059-18-18h-12c0 16.569 13.431 30 30 30s30-13.431 30-30z"/>
</svg>