<svg width="100%" height="100%" viewBox="0 0 512 512" xmlns="http://www.w3.org/2000/svg">
  <path d="M130.833 512H10.302C4.612 512 0 507.388 0 501.698V381.167c0-5.69 4.612-10.302 10.302-10.302h120.531c5.69 0 10.302 4.612 10.302 10.302v120.531c0 5.69-4.612 10.302-10.302 10.302z" fill="#ffc269"/>
  <path d="M130.833 370.865H99.928c5.69 0 10.302 4.612 10.302 10.302v120.531c0 5.69-4.612 10.302-10.302 10.302h30.905c5.69 0 10.302-4.612 10.302-10.302V381.167c0-5.69-4.612-10.302-10.302-10.302z" fill="#ffa95f"/>
  <path d="M316.266 512H195.734c-5.69 0-10.302-4.612-10.302-10.302V381.167c0-5.69 4.612-10.302 10.302-10.302h120.531c5.69 0 10.302 4.612 10.302 10.302v120.531c0 5.69-4.612 10.302-10.301 10.302z" fill="#b3e59f"/>
  <path d="M316.266 370.865H285.36c5.69 0 10.302 4.612 10.302 10.302v120.531c0 5.69-4.612 10.302-10.302 10.302h30.905c5.69 0 10.302-4.612 10.302-10.302V381.167c0-5.69-4.612-10.302-10.301-10.302z" fill="#95d6a4"/>
  <path d="M501.698 512H381.167c-5.69 0-10.302-4.612-10.302-10.302V381.167c0-5.69 4.612-10.302 10.302-10.302h120.531c5.69 0 10.302 4.612 10.302 10.302v120.531c0 5.69-4.612 10.302-10.302 10.302z" fill="#ff8086"/>
  <path d="M501.698 370.865h-30.905c5.69 0 10.302 4.612 10.302 10.302v120.531c0 5.69-4.612 10.302-10.302 10.302h30.905c5.69 0 10.302-4.612 10.302-10.302V381.167c0-5.69-4.612-10.302-10.302-10.302z" fill="#e5646e"/>
  <path d="M79.073 488.956a7.726 7.726 0 01-7.726-7.726v-71.867h-9.286a7.726 7.726 0 110-15.452h17.012a7.726 7.726 0 017.726 7.726v79.594a7.724 7.724 0 01-7.726 7.725zM252.357 489.751c-15.333 0-16.462-.377-17.494-.72-2.577-.859-4.499-2.805-5.279-5.337-1.342-4.364.526-6.809 5.516-13.344 4.048-5.3 11.582-15.165 24.204-33.199 3.744-5.35 6.159-10.14 7.181-14.242l.271-2.119c-.229-6.771-5.808-12.206-12.632-12.206-6.028 0-11.244 4.282-12.403 10.181a7.727 7.727 0 01-15.163-2.977c2.578-13.128 14.172-22.656 27.566-22.656 15.49 0 28.093 12.603 28.093 28.093 0 .327-.021.654-.062.979l-.393 3.079a7.63 7.63 0 01-.137.766c-1.418 6.117-4.668 12.833-9.658 19.965-9.351 13.359-15.958 22.313-20.445 28.27a2853.63 2853.63 0 0026.247-.182l.099-.001a7.726 7.726 0 017.724 7.63 7.726 7.726 0 01-7.629 7.822c-11.318.14-19.565.198-25.606.198zM460.752 441.433c5.398-5.123 8.774-12.355 8.774-20.366 0-15.491-12.603-28.094-28.093-28.094-13.394 0-24.987 9.528-27.566 22.657a7.726 7.726 0 1015.163 2.977c1.159-5.899 6.375-10.182 12.403-10.182 6.97 0 12.64 5.671 12.64 12.641s-5.671 12.64-12.64 12.64a7.726 7.726 0 100 15.452c6.97 0 12.64 5.67 12.64 12.64s-5.671 12.641-12.64 12.641c-6.272 0-11.653-4.672-12.518-10.869a12.876 12.876 0 01-.122-1.772 7.726 7.726 0 10-15.452 0c0 1.308.091 2.624.271 3.908 1.924 13.788 13.885 24.185 27.822 24.185 15.49 0 28.093-12.603 28.093-28.094-.001-8.009-3.377-15.242-8.775-20.364z" fill="#fff"/>
  <path d="M237.972 104.048h36.056v85.505h-36.056zM303.71 95.422h-7.718a7.726 7.726 0 01-7.726-7.726V15.453a7.725 7.725 0 017.726-7.726h53.94c7.101 0 12.877 5.777 12.877 12.877v15.718c0 32.587-26.512 59.1-59.099 59.1zm.008-72.243v56.79c24.063-.005 43.638-19.582 43.638-43.647V23.179zM216.008 95.422h-7.718c-32.588 0-59.099-26.512-59.099-59.1V20.604c0-7.101 5.777-12.877 12.877-12.877h53.94a7.726 7.726 0 017.726 7.726v72.242a7.726 7.726 0 01-7.726 7.727zm-51.364-72.243v13.143c0 24.064 19.575 43.642 43.638 43.647v-56.79z" fill="#fff0af"/>
  <path d="M293.602 228.7h-75.203c-5.69 0-10.302-4.612-10.302-10.302v-33.996c0-5.69 4.612-10.302 10.302-10.302h75.203c5.69 0 10.302 4.612 10.302 10.302v33.996c-.001 5.69-4.613 10.302-10.302 10.302z" fill="#655e68"/>
  <path d="M293.602 174.101h-30.905c5.69 0 10.302 4.612 10.302 10.302v33.996c0 5.69-4.612 10.302-10.302 10.302h30.905c5.69 0 10.302-4.612 10.302-10.302v-33.996c-.001-5.69-4.613-10.302-10.302-10.302z" fill="#544f57"/>
  <path d="M256 128.773c-29.301 0-53.054-23.753-53.054-53.054V5.151A5.15 5.15 0 01208.097 0h95.807a5.15 5.15 0 015.151 5.151v70.567c-.001 29.301-23.754 53.055-53.055 53.055z" fill="#ffe07d"/>
  <path d="M303.903 0h-30.905a5.15 5.15 0 015.151 5.151v70.567c0 23.925-15.839 44.144-37.602 50.761A53.03 53.03 0 00256 128.772c29.301 0 53.054-23.753 53.054-53.054V5.151A5.15 5.15 0 00303.903 0z" fill="#ffd064"/>
  <g>
    <path d="M256 347.686a7.726 7.726 0 01-7.726-7.726v-80.354a7.726 7.726 0 1115.452 0v80.354a7.726 7.726 0 01-7.726 7.726zM441.525 347.686a7.696 7.696 0 01-5.12-1.943l-108.169-95.807c-3.195-2.829-3.49-7.712-.661-10.906s7.712-3.491 10.906-.661l108.169 95.807a7.725 7.725 0 01.661 10.906 7.705 7.705 0 01-5.786 2.604zM70.475 347.686a7.705 7.705 0 01-5.787-2.604 7.725 7.725 0 01.661-10.906l108.169-95.807a7.723 7.723 0 0110.906.661 7.725 7.725 0 01-.661 10.906L75.595 345.743a7.696 7.696 0 01-5.12 1.943z" fill="#e6ecf8"/>
  </g>
</svg>