<svg width="100%" height="100%" viewBox="0 0 512 512" xmlns="http://www.w3.org/2000/svg">
  <path d="M392 424H88v-32H72V48h320z" fill="#683b0d"/>
  <path d="M360 392H72V24h232v56h56z" fill="#fbb540"/>
  <path d="M72 112a32 32 0 010-64 8 8 0 010 16 16 16 0 1015.5 20.006 8 8 0 0115.5 3.988A31.983 31.983 0 0172 112zM72 192a32 32 0 010-64 8 8 0 010 16 16 16 0 1015.5 20.006 8 8 0 0115.5 3.988A31.983 31.983 0 0172 192zM72 272a32 32 0 010-64 8 8 0 010 16 16 16 0 1015.5 20.006 8 8 0 0115.5 3.988A31.983 31.983 0 0172 272zM72 344a32 32 0 010-64 8 8 0 010 16 16 16 0 1015.5 20.006 8 8 0 0115.5 3.988A31.983 31.983 0 0172 344z" fill="#cbcbcb"/>
  <g fill="#d18d28">
    <path d="M312 120H136a8 8 0 010-16h176a8 8 0 010 16zM312 168H136a8 8 0 010-16h176a8 8 0 010 16zM312 216H136a8 8 0 010-16h176a8 8 0 010 16zM312 264H136a8 8 0 010-16h176a8 8 0 010 16zM360 80h-56V24zM200 312h-64a8 8 0 010-16h64a8 8 0 010 16z"/>
  </g>
  <path d="M405.957 252.334l27.616 16.192L320.23 461.838l-27.616-16.192z" fill="#0a9acd"/>
  <path d="M286.291 488l6.42-42.6 27.609 16.179z" fill="#e6a98d"/>
  <path d="M406.185 252.132l12.144-20.712 27.616 16.192-12.144 20.712z" fill="#cbcbcb"/>
  <path d="M426.193 217.631l-8.09 13.8 27.609 16.18 8.09-13.8a16 16 0 00-5.715-21.894 16 16 0 00-21.894 5.714z" fill="#fbb540"/>
</svg>