<svg width="100%" height="100%" viewBox="0 0 512 512" xmlns="http://www.w3.org/2000/svg">
  <path d="M142.569 183.154h25.912v-56.195h-25.912c-11.495 0-20.813 9.318-20.813 20.813v14.569c0 11.495 9.318 20.813 20.813 20.813z" fill="#ffcbbe"/>
  <path d="M369.431 183.154h-25.912v-56.195h25.912c11.495 0 20.813 9.318 20.813 20.813v14.569c0 11.495-9.318 20.813-20.813 20.813z" fill="#eaac9d"/>
  <path d="M404.324 353.16l-77.587-18.473H185.264l-77.587 18.473c-37.502 8.929-63.969 42.437-63.969 80.988v67.55c0 5.69 4.612 10.302 10.302 10.302h403.981c5.69 0 10.302-4.612 10.302-10.302v-67.551c0-38.55-26.467-72.058-63.969-80.987z" fill="#c17d4f"/>
  <path d="M256 512h28.795l19.075-98.862L256 363.187l-47.87 49.951L227.205 512z" fill="#d3ced5"/>
  <path d="M181.073 231.024l-46.133 27.749a14.421 14.421 0 00-5.808 18.073l18.121 41.994-9.94 64.773a20.61 20.61 0 001.899 12.264L196.683 512h30.522l-19.075-98.862s-16.26-82.081 10.407-108.748v-73.366z" fill="#985e33"/>
  <path d="M413.614 355.965c14.334 15.078 22.939 35.401 22.939 57.37V512h21.438c5.69 0 10.302-4.612 10.302-10.302v-67.551c0-35.279-22.174-66.322-54.679-78.182z" fill="#b16e3d"/>
  <path d="M269.528 422.504L284.795 512h-57.59l15.267-89.496z" fill="#595959"/>
  <path d="M272.014 437.073l-2.486-14.569h-27.056l-2.486 14.569z" fill="#454545"/>
  <path d="M256 363.187l31.74 33.12-18.212 26.197h-27.056l-18.212-26.197z" fill="#595959"/>
  <path d="M268.021 394.463l12.172 12.701 7.547-10.856L256 363.187l-31.74 33.12 7.547 10.856 12.174-12.703c6.555-6.84 17.486-6.837 24.04.003z" fill="#454545"/>
  <path d="M330.927 231.024l46.133 27.749a14.421 14.421 0 015.808 18.073l-18.121 41.994 9.94 64.773a20.61 20.61 0 01-1.899 12.264L315.317 512h-30.522l19.075-98.862s16.26-82.081-10.406-108.748v-73.366z" fill="#985e33"/>
  <path d="M218.537 247.675v56.715L256 363.187l37.463-58.797v-56.715z" fill="#ffcbbe"/>
  <path d="M293.463 280.373v-32.698h-74.927v32.548a116.53 116.53 0 0037.47 6.157c12.926 0 25.535-2.055 37.457-6.007z" fill="#eaac9d"/>
  <path d="M158.179 126.959v39.558c0 53.938 43.143 98.647 97.079 99.046 54.365.403 98.563-43.546 98.563-97.818v-40.786z" fill="#ffcbbe"/>
  <path d="M158.179 126.959v17.49h158.179a8.325 8.325 0 018.325 8.325v14.971c0 49.053-36.107 89.668-83.193 96.73a96.978 96.978 0 0013.768 1.089c54.365.403 98.563-43.546 98.563-97.818V126.96H158.179z" fill="#eaac9d"/>
  <path d="M218.537 304.39c-26.667 26.667-10.407 108.748-10.407 108.748L256 363.187zM293.463 304.39c26.667 26.667 10.406 108.748 10.406 108.748L256 363.187z" fill="#f9f6f9"/>
  <path d="M256 126.959h144.788c5.835 0 8.421-7.342 3.873-10.998l-39.392-31.668L343.46 7.488A10.303 10.303 0 00333.549 0H178.451a10.301 10.301 0 00-9.91 7.488l-21.809 76.805-39.392 31.668c-4.548 3.656-1.963 10.998 3.873 10.998z" fill="#c17d4f"/>
  <path d="M365.268 84.293L343.46 7.488A10.303 10.303 0 00333.549 0h-14.07l23.935 84.293 53.073 42.667h4.3c5.835 0 8.421-7.342 3.873-10.998z" fill="#b16e3d"/>
  <path d="M355.222 48.911H156.778l-10.046 35.382h218.536z" fill="#595959"/>
  <path d="M355.222 48.911h-21.854l10.047 35.382h21.853z" fill="#454545"/>
</svg>