<svg width="100%" height="100%" viewBox="0 0 511.046 511.046" xmlns="http://www.w3.org/2000/svg">
  <path d="M158.402 330.818l71.395-71.396 21.21 21.21-71.395 71.396zM273.784 215.467L421.489 67.76l21.21 21.21-147.705 147.706z" fill="#a7d2d7"/>
  <path d="M284.387 226.07L432.092 78.363l10.606 10.606-147.705 147.705zM169.004 341.419l71.396-71.396 10.606 10.606-71.396 71.395z" fill="#7ba0b0"/>
  <path d="M455.433 488.232l-54.012-54.011 48.225-48.226 54.012 54.012c14.316-33.441 7.828-73.678-19.472-100.978-20.891-20.891-46.608-26.855-71.522-21.091-8.32 1.925-27.042 9.314-33.081 3.275L188.699 130.327c-5.941-5.941 1.43-24.485 3.194-32.699 5.262-24.504-.845-49.688-21.372-70.214-27.3-27.3-67.536-33.788-100.978-19.473l54.012 54.012-48.225 48.225-54.013-54.011C7.001 89.608 13.489 129.844 40.79 157.145c20.891 20.891 46.608 26.855 71.521 21.091 8.32-1.925 17.042.686 23.081 6.725l190.885 190.885c5.941 5.941 8.57 14.485 6.806 22.699-5.262 24.504.845 49.688 21.372 70.214 27.3 27.3 67.536 33.789 100.978 19.473z" fill="#e4ebef"/>
  <path d="M16.643 493.85c-23.333-23.333-21.95-61.569 3.009-83.155l131.234-107.429 56.341 56.341-107.43 131.235c-21.586 24.958-59.821 26.342-83.154 3.008z" fill="#ff9468"/>
  <path d="M16.642 493.849l.001.001c23.333 23.333 61.569 21.95 83.155-3.009l107.429-131.234-28.172-28.172z" fill="#ff5b5b"/>
  <path d="M461.775 6.131l41.467 41.467-50.899 50.9-41.467-41.468z" fill="#c7e2e5"/>
  <path d="M80.32 451.38l-51.65 51.66c-4.3-2.44-8.35-5.51-12.03-9.19s-6.74-7.73-9.19-12.02l51.66-51.66c5.86-5.86 15.36-5.86 21.21 0 5.86 5.86 5.86 15.36 0 21.21zM175.9 397.88l-20.85 25.47-67.9-67.9 25.47-20.85z" fill="#ff5b5b"/>
  <path d="M424.807 410.834L99.99 85.517l23.564-23.564L69.542 7.941C102.984-6.375 143.22.113 170.52 27.413c20.526 20.527 26.634 45.711 21.372 70.215-1.764 8.214.865 16.758 6.806 22.699l190.885 190.885c6.039 6.039 14.76 8.65 23.081 6.725 24.913-5.764 50.63.2 71.522 21.091 27.3 27.301 33.789 67.537 19.472 100.978l-54.012-54.012z" fill="#c7e2e5"/>
  <path d="M432.109 78.374l50.899-50.9 20.223 20.224-50.899 50.9z" fill="#a7d2d7"/>
  <g fill="#ff193d">
    <path d="M16.64 493.85c3.68 3.68 7.73 6.75 12.03 9.19l51.65-51.66c5.86-5.85 5.86-15.35 0-21.21zM121.095 389.395l33.955 33.955 20.85-25.47-31.645-31.645z"/>
  </g>
</svg>