<svg width="100%" height="100%" viewBox="0 0 510 510" xmlns="http://www.w3.org/2000/svg" xmlns:xlink="http://www.w3.org/1999/xlink">
  <linearGradient id="f" gradientUnits="userSpaceOnUse" x1="273.323" x2="273.323" y1="16.526" y2="79.361">
    <stop offset="0" stop-color="#6b0"/>
    <stop offset="1" stop-color="#0b799d"/>
  </linearGradient>
  <linearGradient id="g" gradientUnits="userSpaceOnUse" x1="228.596" x2="228.596" y1="16.526" y2="79.361">
    <stop offset="0" stop-color="#90cc1c"/>
    <stop offset="1" stop-color="#6b0"/>
  </linearGradient>
  <linearGradient id="h" gradientUnits="userSpaceOnUse" x1="231.141" x2="414.441" y1="20.373" y2="591.332">
    <stop offset="0" stop-color="#b9dd39"/>
    <stop offset="1" stop-color="#0b799d"/>
  </linearGradient>
  <linearGradient id="a">
    <stop offset="0" stop-color="#fdbf00"/>
    <stop offset="1" stop-color="#ff9100"/>
  </linearGradient>
  <linearGradient id="i" gradientUnits="userSpaceOnUse" x1="372.569" x2="386.917" xlink:href="#a" y1="109.346" y2="120.277"/>
  <linearGradient id="j" gradientUnits="userSpaceOnUse" x1="412.608" x2="426.955" xlink:href="#a" y1="109.346" y2="120.277"/>
  <linearGradient id="k" gradientUnits="userSpaceOnUse" x1="452.646" x2="466.994" xlink:href="#a" y1="109.346" y2="120.277"/>
  <linearGradient id="b">
    <stop offset="0" stop-color="#0b799d" stop-opacity="0"/>
    <stop offset=".364" stop-color="#096380" stop-opacity=".365"/>
    <stop offset=".76" stop-color="#084f67" stop-opacity=".76"/>
    <stop offset="1" stop-color="#07485e"/>
  </linearGradient>
  <linearGradient id="l" gradientUnits="userSpaceOnUse" x1="292.049" x2="445.266" xlink:href="#b" y1="231.758" y2="-163.566"/>
  <linearGradient id="m" gradientUnits="userSpaceOnUse" x1="298.875" x2="298.875" xlink:href="#b" y1="341.527" y2="424.184"/>
  <linearGradient id="n" gradientUnits="userSpaceOnUse" x1="229.448" x2="229.448" y1="74.872" y2="137.708">
    <stop offset="0" stop-color="#0095ff"/>
    <stop offset="1" stop-color="#0b799d"/>
  </linearGradient>
  <linearGradient id="o" gradientUnits="userSpaceOnUse" x1="184.721" x2="184.721" y1="74.872" y2="137.708">
    <stop offset="0" stop-color="#48b2e3"/>
    <stop offset="1" stop-color="#0095ff"/>
  </linearGradient>
  <linearGradient id="p" gradientUnits="userSpaceOnUse" x1="79.066" x2="341.967" y1="113.77" y2="376.671">
    <stop offset="0" stop-color="#76e2f8"/>
    <stop offset="1" stop-color="#48b2e3"/>
  </linearGradient>
  <linearGradient id="c">
    <stop offset="0" stop-color="#edf5ff"/>
    <stop offset="1" stop-color="#d5e8fe"/>
  </linearGradient>
  <linearGradient id="q" gradientUnits="userSpaceOnUse" x1="328.694" x2="343.042" xlink:href="#c" y1="167.692" y2="178.624"/>
  <linearGradient id="r" gradientUnits="userSpaceOnUse" x1="368.733" x2="383.08" xlink:href="#c" y1="167.692" y2="178.624"/>
  <linearGradient id="s" gradientUnits="userSpaceOnUse" x1="408.771" x2="423.119" xlink:href="#c" y1="167.692" y2="178.624"/>
  <linearGradient id="d">
    <stop offset="0" stop-color="#b5dbff" stop-opacity="0"/>
    <stop offset=".173" stop-color="#8fc5e9" stop-opacity=".173"/>
    <stop offset=".454" stop-color="#56a4c8" stop-opacity=".454"/>
    <stop offset=".696" stop-color="#2d8db1" stop-opacity=".696"/>
    <stop offset=".885" stop-color="#147ea2" stop-opacity=".885"/>
    <stop offset="1" stop-color="#0b799d"/>
  </linearGradient>
  <linearGradient id="t" gradientUnits="userSpaceOnUse" x1="250.162" x2="258.742" xlink:href="#d" y1="455.732" y2="124.233"/>
  <linearGradient id="u" gradientUnits="userSpaceOnUse" x1="255" x2="255" xlink:href="#d" y1="399.874" y2="482.53"/>
  <linearGradient id="v" gradientUnits="userSpaceOnUse" x1="185.573" x2="185.573" y1="133.219" y2="196.054">
    <stop offset="0" stop-color="#ff9100"/>
    <stop offset="1" stop-color="#e63950"/>
  </linearGradient>
  <linearGradient id="w" gradientUnits="userSpaceOnUse" x1="140.846" x2="140.846" xlink:href="#a" y1="133.219" y2="196.054"/>
  <linearGradient id="x" gradientUnits="userSpaceOnUse" x1="35.191" x2="298.092" y1="172.116" y2="435.018">
    <stop offset="0" stop-color="#ffda2d"/>
    <stop offset="1" stop-color="#fdbf00"/>
  </linearGradient>
  <linearGradient id="e">
    <stop offset="0" stop-color="#ff637b"/>
    <stop offset="1" stop-color="#e63950"/>
  </linearGradient>
  <linearGradient id="y" gradientUnits="userSpaceOnUse" x1="284.82" x2="299.167" xlink:href="#e" y1="226.039" y2="236.97"/>
  <linearGradient id="z" gradientUnits="userSpaceOnUse" x1="324.858" x2="339.205" xlink:href="#e" y1="226.039" y2="236.97"/>
  <linearGradient id="A" gradientUnits="userSpaceOnUse" x1="364.896" x2="379.244" xlink:href="#e" y1="226.039" y2="236.97"/>
  <linearGradient id="B" gradientUnits="userSpaceOnUse" x1="211.125" x2="211.125" y1="458.22" y2="540.877">
    <stop offset="0" stop-color="#ff9100" stop-opacity="0"/>
    <stop offset="1" stop-color="#ff9100"/>
  </linearGradient>
  <path d="M360.357 79.322H186.288V29.746C186.288 13.318 199.606 0 216.034 0h114.577c16.428 0 29.746 13.318 29.746 29.746z" fill="url(#f)"/>
  <path d="M315.63 79.322H141.561V29.746C141.561 13.318 154.879 0 171.307 0h114.577c16.428 0 29.746 13.318 29.746 29.746z" fill="url(#g)"/>
  <path d="M268.257 56.462V29.746C268.257 13.318 254.939 0 238.511 0H123.934c-16.428 0-29.746 13.318-29.746 29.746V350.93c0 23.404 18.973 42.377 42.377 42.377h324.619c23.404 0 42.377-18.973 42.377-42.377V111.784c0-23.404-18.973-42.377-42.377-42.377H281.202c-7.149 0-12.945-5.796-12.945-12.945z" fill="url(#h)"/>
  <path d="M381.161 127.705h-10.206c-5.853 0-10.598-4.745-10.598-10.598v-10.206c0-5.853 4.745-10.598 10.598-10.598h10.206c5.853 0 10.598 4.745 10.598 10.598v10.206c.001 5.853-4.744 10.598-10.598 10.598z" fill="url(#i)"/>
  <path d="M421.2 127.705h-10.206c-5.853 0-10.598-4.745-10.598-10.598v-10.206c0-5.853 4.745-10.598 10.598-10.598H421.2c5.853 0 10.598 4.745 10.598 10.598v10.206c0 5.853-4.745 10.598-10.598 10.598z" fill="url(#j)"/>
  <path d="M461.238 127.705h-10.206c-5.853 0-10.598-4.745-10.598-10.598v-10.206c0-5.853 4.745-10.598 10.598-10.598h10.206c5.853 0 10.598 4.745 10.598 10.598v10.206c.001 5.853-4.744 10.598-10.598 10.598z" fill="url(#k)"/>
  <path d="M461.184 393.307c23.404 0 42.377-18.973 42.377-42.377V196.602l-54.359-54.359c-7.768-8.876-19.172-14.49-31.893-14.49h-49.703l-57.732-58.347H94.188v281.075c0 23.651 19.173 42.824 42.824 42.824h324.172z" fill="url(#l)"/>
  <path d="M94.188 304.069v46.861c0 23.404 18.973 42.377 42.377 42.377h324.619c23.404 0 42.377-18.973 42.377-42.377v-46.861z" fill="url(#m)"/>
  <g>
    <path d="M316.482 137.669H142.414V88.093c0-16.428 13.318-29.746 29.746-29.746h114.577c16.428 0 29.746 13.318 29.746 29.746v49.576z" fill="url(#n)"/>
    <path d="M271.755 137.669H97.687V88.093c0-16.428 13.318-29.746 29.746-29.746H242.01c16.428 0 29.746 13.318 29.746 29.746v49.576z" fill="url(#o)"/>
    <path d="M224.382 114.809V88.093c0-16.428-13.318-29.746-29.746-29.746H80.059c-16.428 0-29.746 13.318-29.746 29.746v321.184c0 23.404 18.973 42.377 42.377 42.377h324.619c23.404 0 42.377-18.973 42.377-42.377V170.131c0-23.404-18.973-42.377-42.377-42.377H237.327c-7.149 0-12.945-5.796-12.945-12.945z" fill="url(#p)"/>
    <path d="M337.286 186.052H327.08c-5.853 0-10.598-4.745-10.598-10.598v-10.206c0-5.853 4.745-10.598 10.598-10.598h10.206c5.853 0 10.598 4.745 10.598 10.598v10.206c.001 5.853-4.744 10.598-10.598 10.598z" fill="url(#q)"/>
    <path d="M377.325 186.052h-10.206c-5.853 0-10.598-4.745-10.598-10.598v-10.206c0-5.853 4.745-10.598 10.598-10.598h10.206c5.853 0 10.598 4.745 10.598 10.598v10.206c0 5.853-4.745 10.598-10.598 10.598z" fill="url(#r)"/>
    <path d="M417.363 186.052h-10.206c-5.853 0-10.598-4.745-10.598-10.598v-10.206c0-5.853 4.745-10.598 10.598-10.598h10.206c5.853 0 10.598 4.745 10.598 10.598v10.206c.001 5.853-4.744 10.598-10.598 10.598z" fill="url(#s)"/>
    <path d="M417.309 451.653c23.404 0 42.377-18.973 42.377-42.377V254.949l-54.359-54.359c-7.768-8.876-19.172-14.49-31.893-14.49h-49.703L266 127.754H50.314v281.075c0 23.651 19.173 42.824 42.824 42.824z" fill="url(#t)"/>
    <path d="M50.314 362.416v46.861c0 23.404 18.973 42.377 42.377 42.377H417.31c23.404 0 42.377-18.973 42.377-42.377v-46.861z" fill="url(#u)"/>
  </g>
  <g>
    <path d="M272.607 196.016H98.539V146.44c0-16.428 13.318-29.746 29.746-29.746h114.577c16.428 0 29.746 13.318 29.746 29.746v49.576z" fill="url(#v)"/>
    <path d="M227.88 196.016H53.812V146.44c0-16.428 13.318-29.746 29.746-29.746h114.577c16.428 0 29.746 13.318 29.746 29.746v49.576z" fill="url(#w)"/>
    <path d="M180.507 173.155v-26.716c0-16.428-13.318-29.746-29.746-29.746H36.185c-16.428 0-29.746 13.318-29.746 29.746v321.184C6.439 491.027 25.411 510 48.816 510h324.619c23.404 0 42.377-18.973 42.377-42.377V228.477c0-23.404-18.973-42.377-42.377-42.377H193.452c-7.149 0-12.945-5.795-12.945-12.945z" fill="url(#x)"/>
    <path d="M293.411 244.399h-10.206c-5.853 0-10.598-4.745-10.598-10.598v-10.206c0-5.853 4.745-10.598 10.598-10.598h10.206c5.853 0 10.598 4.745 10.598 10.598V233.8c.001 5.853-4.744 10.599-10.598 10.599z" fill="url(#y)"/>
    <path d="M333.45 244.399h-10.206c-5.853 0-10.598-4.745-10.598-10.598v-10.206c0-5.853 4.745-10.598 10.598-10.598h10.206c5.853 0 10.598 4.745 10.598 10.598V233.8c0 5.853-4.745 10.599-10.598 10.599z" fill="url(#z)"/>
    <path d="M373.488 244.399h-10.206c-5.853 0-10.598-4.745-10.598-10.598v-10.206c0-5.853 4.745-10.598 10.598-10.598h10.206c5.853 0 10.598 4.745 10.598 10.598V233.8c.001 5.853-4.744 10.599-10.598 10.599z" fill="url(#A)"/>
    <path d="M6.439 420.762v46.861C6.439 491.027 25.411 510 48.816 510h324.619c23.404 0 42.377-18.973 42.377-42.377v-46.861z" fill="url(#B)"/>
  </g>
</svg>