<svg width="100%" height="100%" viewBox="0 0 64 64" xmlns="http://www.w3.org/2000/svg">
    <path d="M18 6V2h28v4M16 58v4h32v-4" fill="#8892a0"/><path d="M46 58H18a4 4 0 01-4-4V10a4 4 0 014-4h28a4 4 0 014 4v44a4 4 0 01-4 4z" fill="#2d4d83"/><path d="M14 10v44a4 4 0 004 4h.267C32.026 52.494 42 36.222 42 17a53.91 53.91 0 00-1.127-11H18a4 4 0 00-4 4z" fill="#4472b2"/><path d="M14 12h36v40H14z" fill="#c16b3f"/><path d="M14 52h13.739C36.369 44.201 42 31.436 42 17c0-1.692-.086-3.359-.236-5H14z" fill="#e39854"/><path d="M25 44l15-15h-8l6-9H28l-4 13h6z" fill="#f5b953"/><path d="M47 6h-2V3H19v3h-2V2a1 1 0 011-1h28a1 1 0 011 1z"/><path d="M46 59H18c-2.757 0-5-2.243-5-5V10c0-2.757 2.243-5 5-5h28c2.757 0 5 2.243 5 5v44c0 2.757-2.243 5-5 5zM18 7c-1.654 0-3 1.346-3 3v44c0 1.654 1.346 3 3 3h28c1.654 0 3-1.346 3-3V10c0-1.654-1.346-3-3-3z"/><path d="M48 63H16a1 1 0 01-1-1v-4h2v3h30v-3h2v4a1 1 0 01-1 1zM25 45a1 1 0 01-.91-1.414L28.447 34H24a1 1 0 01-.956-1.294l4-13A1 1 0 0128 19h10a1 1 0 01.832 1.554L33.868 28H40a.999.999 0 01.707 1.707l-15 15A.999.999 0 0125 45zm.354-13H30a1.002 1.002 0 01.91 1.414l-2.718 5.979L37.586 30H32a1 1 0 01-.832-1.554L36.132 21h-7.394zM14 11h36v2H14zM14 51h36v2H14z"/>
</svg>