<svg width="100%" height="100%" viewBox="0 0 512 512" xmlns="http://www.w3.org/2000/svg">
  <path d="M318.5 188h106v45h-106zM148.5 233h-61v-45h61z" fill="#c3aff0"/>
  <path d="M138.5 199.5v94.463a79.997 79.997 0 0020.348 53.306l11.479 12.845a40 40 0 0110.174 26.653V423c0 8.284 6.716 15 15 15h89c8.284 0 15-6.716 15-15v-35.243a40.001 40.001 0 0111.341-27.905l45.647-46.881a60 60 0 0017.012-41.857V218c0-16.569-13.431-30-30-30H296c-12.426 0-22.5 10.074-22.5 22.5S283.574 233 296 233h22.5-130z" fill="#d19a6e"/>
  <path d="M373.5 218v53.11c0 15.64-6.1 30.66-17.01 41.86l-45.65 46.88a40.012 40.012 0 00-11.34 27.91V423c0 8.28-6.72 15-15 15h-30c8.28 0 15-6.72 15-15v-35.24c0-10.43 4.07-20.44 11.34-27.91l45.65-46.88a59.984 59.984 0 0017.01-41.86V218c0-16.57-13.43-30-30-30h30c16.57 0 30 13.43 30 30z" fill="#bc845e"/>
  <path d="M296 262.5c-12.426 0-22.5-10.074-22.5-22.5v-63.5c0-12.426 10.074-22.5 22.5-22.5s22.5 10.074 22.5 22.5V240c0 12.426-10.074 22.5-22.5 22.5z" fill="#bc845e"/>
  <path d="M318.5 176.5V240c0 12.43-10.07 22.5-22.5 22.5-5.77 0-11.02-2.17-15-5.74 4.6-4.11 7.5-10.09 7.5-16.76v-63.5c0-6.22-2.52-11.84-6.59-15.91-.29-.29-.6-.58-.91-.85 3.98-3.57 9.23-5.74 15-5.74 6.22 0 11.84 2.52 15.91 6.59s6.59 9.69 6.59 15.91z" fill="#ad775c"/>
  <path d="M251 262.5c-12.426 0-22.5-10.074-22.5-22.5v-63.5c0-12.426 10.074-22.5 22.5-22.5s22.5 10.074 22.5 22.5V240c0 12.426-10.074 22.5-22.5 22.5z" fill="#bc845e"/>
  <path d="M273.5 176.5V240c0 12.43-10.07 22.5-22.5 22.5-5.77 0-11.02-2.17-15-5.74 4.6-4.11 7.5-10.09 7.5-16.76v-63.5c0-6.22-2.52-11.84-6.59-15.91-.29-.29-.6-.58-.91-.85 3.98-3.57 9.23-5.74 15-5.74 6.22 0 11.84 2.52 15.91 6.59s6.59 9.69 6.59 15.91z" fill="#ad775c"/>
  <path d="M161 262.5c-12.426 0-22.5-10.074-22.5-22.5v-63.5c0-12.426 10.074-22.5 22.5-22.5s22.5 10.074 22.5 22.5V240c0 12.426-10.074 22.5-22.5 22.5z" fill="#bc845e"/>
  <path d="M183.5 176.5V240c0 12.43-10.07 22.5-22.5 22.5-5.77 0-11.02-2.17-15-5.74 4.6-4.11 7.5-10.09 7.5-16.76v-63.5c0-6.22-2.52-11.84-6.59-15.91-.29-.29-.6-.58-.91-.85 3.98-3.57 9.23-5.74 15-5.74 6.22 0 11.84 2.52 15.91 6.59s6.59 9.69 6.59 15.91z" fill="#ad775c"/>
  <path d="M206 262.5c-12.426 0-22.5-10.074-22.5-22.5v-63.5c0-12.426 10.074-22.5 22.5-22.5s22.5 10.074 22.5 22.5V240c0 12.426-10.074 22.5-22.5 22.5z" fill="#bc845e"/>
  <path d="M228.5 176.5V240c0 12.43-10.07 22.5-22.5 22.5-5.77 0-11.02-2.17-15-5.74 4.6-4.11 7.5-10.09 7.5-16.76v-63.5c0-6.22-2.52-11.84-6.59-15.91-.29-.29-.6-.58-.91-.85 3.98-3.57 9.23-5.74 15-5.74 6.22 0 11.84 2.52 15.91 6.59s6.59 9.69 6.59 15.91z" fill="#ad775c"/>
  <path d="M17.5 233h30v-45h-30c-5.523 0-10 4.477-10 10v25c0 5.523 4.477 10 10 10z" fill="#c3aff0"/>
  <path d="M52.5 347h30c8.284 0 15-6.716 15-15V89c0-8.284-6.716-15-15-15h-30c-8.284 0-15 6.716-15 15v243c0 8.284 6.716 15 15 15z" fill="#6f6571"/>
  <path d="M97.5 89v243c0 8.28-6.72 15-15 15h-30c8.28 0 15-6.72 15-15V89c0-8.28-6.72-15-15-15h30c8.28 0 15 6.72 15 15z" fill="#5d5360"/>
  <path d="M494.5 233h-30v-45h30c5.523 0 10 4.477 10 10v25c0 5.523-4.477 10-10 10z" fill="#c3aff0"/>
  <path d="M504.5 198v25c0 5.52-4.48 10-10 10h-30c5.52 0 10-4.48 10-10v-25c0-5.52-4.48-10-10-10h30c5.52 0 10 4.48 10 10z" fill="#a592e8"/>
  <path d="M459.5 347h-30c-8.284 0-15-6.716-15-15V89c0-8.284 6.716-15 15-15h30c8.284 0 15 6.716 15 15v243c0 8.284-6.716 15-15 15z" fill="#6f6571"/>
  <path d="M474.5 89v243c0 8.28-6.72 15-15 15h-30c8.28 0 15-6.72 15-15V89c0-8.28-6.72-15-15-15h30c8.28 0 15 6.72 15 15z" fill="#5d5360"/>
  <path d="M318.5 188v45H296c-6.22 0-11.84-2.52-15.91-6.59s-6.59-9.69-6.59-15.91c0-12.43 10.07-22.5 22.5-22.5z" fill="#d19a6e"/>
  <path d="M494.5 180.5H482V89c0-12.406-10.093-22.5-22.5-22.5h-30C417.093 66.5 407 76.594 407 89v91.5h-81v-4c0-16.542-13.458-30-30-30-8.954 0-16.998 3.948-22.5 10.189-5.502-6.241-13.546-10.189-22.5-10.189s-16.998 3.948-22.5 10.189c-5.502-6.241-13.546-10.189-22.5-10.189s-16.998 3.948-22.5 10.189c-5.502-6.241-13.546-10.189-22.5-10.189-16.542 0-30 13.458-30 30v4h-26V89c0-12.406-10.093-22.5-22.5-22.5h-30C40.093 66.5 30 76.594 30 89v91.5H17.5C7.851 180.5 0 188.351 0 198v25c0 9.649 7.851 17.5 17.5 17.5H30V332c0 12.406 10.093 22.5 22.5 22.5h30c12.407 0 22.5-10.094 22.5-22.5v-91.5h26v53.463a87.394 87.394 0 0022.255 58.304l11.479 12.846A32.464 32.464 0 01173 386.769V423c0 12.406 10.093 22.5 22.5 22.5h17.833c4.142 0 7.5-3.357 7.5-7.5s-3.358-7.5-7.5-7.5H195.5c-4.135 0-7.5-3.364-7.5-7.5v-36.231a47.44 47.44 0 00-12.081-31.65l-11.479-12.846a72.416 72.416 0 01-18.44-48.31v-27.999A29.81 29.81 0 00161 270c8.954 0 16.998-3.948 22.5-10.188C189.002 266.052 197.047 270 206 270c8.954 0 16.998-3.948 22.5-10.188C234.002 266.052 242.047 270 251 270c8.954 0 16.998-3.948 22.5-10.188C279.002 266.052 287.047 270 296 270c16.542 0 30-13.458 30-30v-7a7.5 7.5 0 00-7.5-7.5H296c-8.271 0-15-6.729-15-15s6.729-15 15-15h47.5c12.407 0 22.5 10.094 22.5 22.5v53.114c0 13.76-5.286 26.767-14.885 36.625l-45.647 46.881C296.783 363.54 292 375.309 292 387.757V423c0 4.136-3.364 7.5-7.5 7.5h-36.167c-4.142 0-7.5 3.357-7.5 7.5s3.358 7.5 7.5 7.5H284.5c12.407 0 22.5-10.094 22.5-22.5v-35.243c0-8.518 3.272-16.569 9.215-22.672l45.647-46.881C374.203 305.528 381 288.806 381 271.114V240.5h26V332c0 12.406 10.093 22.5 22.5 22.5h30c12.407 0 22.5-10.094 22.5-22.5v-34c0-4.143-3.358-7.5-7.5-7.5s-7.5 3.357-7.5 7.5v34c0 4.136-3.364 7.5-7.5 7.5h-30c-4.136 0-7.5-3.364-7.5-7.5V89c0-4.136 3.364-7.5 7.5-7.5h30c4.136 0 7.5 3.364 7.5 7.5v174c0 4.143 3.358 7.5 7.5 7.5s7.5-3.357 7.5-7.5v-22.5h12.5c9.649 0 17.5-7.851 17.5-17.5v-25c0-9.649-7.851-17.5-17.5-17.5zm-477 45A2.503 2.503 0 0115 223v-25c0-1.379 1.122-2.5 2.5-2.5H30v30zM90 332c0 4.136-3.364 7.5-7.5 7.5h-30c-4.136 0-7.5-3.364-7.5-7.5V89c0-4.136 3.364-7.5 7.5-7.5h30c4.136 0 7.5 3.364 7.5 7.5zm15-136.5h26v30h-26zm56 59.5c-8.271 0-15-6.729-15-15v-63.5c0-8.271 6.729-15 15-15s15 6.729 15 15V240c0 8.271-6.729 15-15 15zm45 0c-8.271 0-15-6.729-15-15v-63.5c0-8.271 6.729-15 15-15s15 6.729 15 15V240c0 8.271-6.729 15-15 15zm45 0c-8.271 0-15-6.729-15-15v-63.5c0-8.271 6.729-15 15-15s15 6.729 15 15V240c0 8.271-6.729 15-15 15zm45-14.5h14.975c-.267 8.039-6.872 14.5-14.975 14.5-8.271 0-15-6.729-15-15v-3.536a29.81 29.81 0 0015 4.036zm-15-55.964V176.5c0-8.271 6.729-15 15-15s15 6.729 15 15v4h-15a29.81 29.81 0 00-15 4.036zM381 225.5V218a37.302 37.302 0 00-7.52-22.5H407v30zm116-2.5c0 1.379-1.122 2.5-2.5 2.5H482v-30h12.5c1.378 0 2.5 1.121 2.5 2.5z"/>
</svg>