<svg width="100%" height="100%" viewBox="0 0 256 256" xmlns="http://www.w3.org/2000/svg">
  <path d="M128 154.921c-32.412 0-62.924-1.994-85.915-5.614-19.574-3.081-39.584-7.686-39.584-18.462s20.009-15.38 39.584-18.462c22.991-3.62 53.503-5.614 85.915-5.614s62.924 1.994 85.915 5.614c19.574 3.081 39.584 7.686 39.584 18.462s-20.009 15.38-39.584 18.462c-22.991 3.621-53.503 5.614-85.915 5.614zM128 185.827c-32.412 0-62.924-1.994-85.915-5.614-19.574-3.081-39.584-7.686-39.584-18.462a5.122 5.122 0 0110.201-.668c.948.944 6.932 5.612 35.235 9.649 21.933 3.127 50.367 4.85 80.063 4.85s58.129-1.723 80.063-4.85c28.302-4.037 34.286-8.704 35.235-9.649a5.122 5.122 0 0110.201.668c0 10.776-20.009 15.38-39.584 18.462-22.991 3.62-53.503 5.614-85.915 5.614zM95.217 209.424c0-1.263.189-2.479.524-3.633-17.637-.777-34.008-2.187-47.804-4.154-28.302-4.036-34.286-8.704-35.235-9.649a5.122 5.122 0 00-10.201.668c0 10.777 20.009 15.38 39.584 18.462 15.019 2.365 33.26 4.03 53.132 4.904zM248.376 187.534a5.124 5.124 0 00-5.079 4.454c-.948.944-6.932 5.613-35.235 9.649-13.796 1.967-30.167 3.378-47.804 4.154.335 1.154.524 2.371.524 3.633v6.598c19.872-.874 38.113-2.54 53.132-4.904 19.574-3.081 39.584-7.685 39.584-18.462a5.12 5.12 0 00-5.122-5.122zM95.217 236.673c-17.437-.781-33.619-2.184-47.279-4.131-28.302-4.037-34.286-8.704-35.235-9.649a5.122 5.122 0 00-10.201.668c0 10.776 20.009 15.38 39.584 18.462 15.019 2.365 33.26 4.03 53.132 4.904v-10.254zM248.376 218.439a5.124 5.124 0 00-5.079 4.454c-.948.944-6.932 5.612-35.235 9.649-13.66 1.948-29.842 3.35-47.279 4.131v10.254c19.872-.874 38.113-2.54 53.132-4.904 19.574-3.081 39.584-7.686 39.584-18.462a5.122 5.122 0 00-5.123-5.122z" fill="#fcdd86"/>
  <path d="M243.297 191.988a5.077 5.077 0 01.853-2.191v-17.263c-7.656 3.643-19.013 5.913-30.234 7.68-22.991 3.62-53.503 5.614-85.915 5.614s-62.924-1.994-85.915-5.614c-11.222-1.767-22.579-4.036-30.234-7.68v17.263c.437.645.747 1.382.853 2.191.948.944 6.932 5.613 35.235 9.649 13.796 1.967 30.167 3.378 47.804 4.154a13.006 13.006 0 00-.524 3.633v6.598c-19.872-.874-38.113-2.54-53.132-4.904-11.222-1.767-22.579-4.036-30.234-7.679v17.264c.437.645.747 1.382.853 2.191.948.944 6.932 5.612 35.235 9.649 13.66 1.948 29.842 3.35 47.279 4.131v10.254c10.547.464 21.545.709 32.783.709s22.236-.245 32.783-.709v-10.254c17.437-.781 33.619-2.184 47.279-4.131 28.302-4.037 34.286-8.704 35.235-9.649a5.077 5.077 0 01.853-2.191v-17.264c-7.656 3.643-19.013 5.913-30.234 7.679-15.019 2.365-33.26 4.03-53.132 4.904v-6.598c0-1.263-.189-2.479-.524-3.633 17.637-.777 34.008-2.187 47.804-4.154 28.297-4.037 34.281-8.705 35.229-9.649z" fill="#f5c84c"/>
  <path d="M12.703 161.083c.948.944 6.932 5.612 35.235 9.649 21.933 3.127 50.367 4.85 80.063 4.85s58.129-1.723 80.063-4.85c28.302-4.037 34.286-8.704 35.235-9.649a5.077 5.077 0 01.853-2.191v-17.264c-7.656 3.643-19.013 5.913-30.234 7.68-22.991 3.62-53.503 5.614-85.915 5.614s-62.924-1.994-85.915-5.614c-11.222-1.767-22.579-4.036-30.234-7.68v17.264c.433.645.743 1.383.849 2.191z" fill="#f5c84c"/>
  <path d="M147.772 196.413h-39.545c-7.186 0-13.011 5.825-13.011 13.011v37.504c10.547.464 21.545.709 32.783.709s22.236-.245 32.783-.709v-37.504c.001-7.186-5.824-13.011-13.01-13.011z" fill="#5290db"/>
  <path d="M128 247.637c5.883 0 11.695-.071 17.416-.202v-33.879c0-.981-.795-1.776-1.776-1.776h-31.28c-.981 0-1.776.795-1.776 1.776v33.879c5.721.131 11.533.202 17.416.202z" fill="#3a70bf"/>
  <path d="M15.546 129.696a1.281 1.281 0 000 2.301c3.952 1.956 12.854 5.043 32.392 7.83 21.933 3.127 50.367 4.85 80.063 4.85s58.129-1.723 80.063-4.85c19.538-2.787 28.44-5.874 32.392-7.83a1.281 1.281 0 000-2.301c-3.952-1.956-12.854-5.043-32.392-7.83-21.933-3.127-50.367-4.85-80.063-4.85s-58.129 1.723-80.063 4.85c-19.539 2.787-28.441 5.874-32.392 7.83z" fill="#87d147"/>
  <path d="M47.937 137.233c21.933-3.127 50.367-4.85 80.063-4.85s58.129 1.723 80.063 4.85c2.993.427 5.735.861 8.249 1.297 13.893-2.409 20.79-4.875 24.138-6.531a1.282 1.282 0 00.005-2.303c-3.952-1.956-12.853-5.043-32.392-7.83-21.933-3.127-50.367-4.85-80.063-4.85s-58.129 1.723-80.063 4.85c-19.539 2.787-28.441 5.875-32.392 7.83-.959.474-.954 1.828.005 2.303 3.348 1.656 10.245 4.123 24.138 6.531 2.514-.436 5.257-.87 8.249-1.297z" fill="#fc657e"/>
  <path d="M177.321 108.418V52.435a4.82 4.82 0 10-9.642 0v55.382c3.27.178 6.483.38 9.642.601zM128 106.771c1.613 0 3.218.009 4.821.019V36.435a4.82 4.82 0 10-9.642 0v70.354c1.603-.009 3.208-.018 4.821-.018zM88.321 107.817V52.435a4.82 4.82 0 10-9.642 0v55.983c3.159-.221 6.372-.423 9.642-.601z" fill="#edf4fc"/>
  <path d="M104.995 60.019l-16.674-6.825V71.7l16.674-6.825c2.173-.888 2.173-3.966 0-4.856zM148.995 45.019l-16.174-6.62v18.097l16.174-6.62c2.173-.889 2.173-3.967 0-4.857zM193.995 60.019l-16.674-6.825V71.7l16.674-6.825c2.173-.888 2.173-3.966 0-4.856z" fill="#fc657e"/>
  <path d="M38.553 91.516h-2.07v-2.07a2.805 2.805 0 00-5.61 0v2.07h-2.069a2.805 2.805 0 000 5.61h2.069v2.07a2.805 2.805 0 005.61 0v-2.07h2.07a2.805 2.805 0 000-5.61z" fill="#70d6f9"/>
  <path d="M201.918 81.094c-2.173-.405-3.886-2.083-4.3-4.212a.097.097 0 00-.191 0c-.413 2.129-2.126 3.807-4.3 4.212a.094.094 0 000 .187c2.173.405 3.886 2.083 4.3 4.212.021.107.17.107.191 0 .413-2.129 2.126-3.807 4.3-4.212a.094.094 0 000-.187z" fill="#fc657e"/>
  <path d="M145.863 13.032c-3.63-.676-6.491-3.479-7.181-7.035a.162.162 0 00-.319 0c-.69 3.556-3.551 6.359-7.181 7.035a.157.157 0 000 .312c3.63.676 6.491 3.479 7.181 7.035a.162.162 0 00.319 0c.69-3.556 3.551-6.359 7.181-7.035a.157.157 0 000-.312z" fill="#f5c84c"/>
  <circle cx="59" cy="47.626" fill="#87d147" r="3"/>
  <circle cx="162" cy="23.626" fill="#70d6f9" r="3"/>
  <circle cx="12" cy="104.626" fill="#f5c84c" r="3"/>
  <path d="M255.995 130.846c0-12.627-20.04-17.521-41.695-20.931-10.19-1.604-21.848-2.89-34.483-3.828V73.379l15.122-6.19c4.236-1.733 4.239-7.749 0-9.483l-15.19-6.218c-.467-3.59-3.537-6.374-7.252-6.374-4.036 0-7.32 3.284-7.32 7.321v52.748c-9.6-.484-19.61-.78-29.859-.875V58.174l14.622-5.985c4.236-1.733 4.239-7.749 0-9.483l-14.622-5.985v-.286c0-4.037-3.284-7.321-7.32-7.321s-7.32 3.284-7.32 7.321v67.873c-10.25.095-20.26.392-29.859.875V73.379l15.122-6.19c4.236-1.733 4.239-7.749 0-9.483l-15.19-6.218c-.467-3.59-3.537-6.374-7.252-6.374-4.036 0-7.32 3.284-7.32 7.321v53.652c-12.635.938-24.293 2.223-34.483 3.828C20.041 113.324.001 118.219.001 130.846c0 5.335 3.585 9.286 9.35 12.331v11.176c-4.936-1.157-9.35 2.637-9.35 7.4 0 5.334 3.585 9.285 9.35 12.33v11.175c-4.938-1.158-9.35 2.639-9.35 7.399 0 5.334 3.585 9.285 9.35 12.33v11.177a7.538 7.538 0 00-1.727-.223c-4.203 0-7.623 3.419-7.623 7.622 0 12.626 20.039 17.521 41.695 20.932 26.535 4.176 59.232 5.644 86.304 5.644 26.973 0 59.756-1.465 86.304-5.644 21.656-3.41 41.695-8.306 41.695-20.932 0-4.749-4.402-8.559-9.35-7.399v-11.177c5.764-3.045 9.35-6.996 9.35-12.33 0-4.749-4.402-8.559-9.35-7.399v-11.175c5.764-3.045 9.35-6.996 9.35-12.33 0-4.203-3.42-7.623-7.623-7.623-.595 0-1.167.092-1.727.223v-11.176c5.761-3.046 9.346-6.997 9.346-12.331zm-76.179-73.927l13.228 5.414a.122.122 0 010 .229l-13.228 5.414zm-44.5-14.795l12.728 5.209a.122.122 0 010 .229l-12.728 5.209zm-44.5 14.795l13.228 5.414a.122.122 0 010 .229l-13.228 5.414zm79.36-4.483c0-1.28 1.041-2.321 2.32-2.321s2.32 1.041 2.32 2.321v53.302a622.886 622.886 0 00-4.641-.284V52.436zm-44.5-16c0-1.28 1.041-2.321 2.32-2.321s2.32 1.041 2.32 2.321v67.84c-1.71-.006-2.93-.006-4.641 0v-67.84zm-44.5 16c0-1.28 1.041-2.321 2.32-2.321s2.32 1.041 2.32 2.321v53.018c-1.557.09-3.109.183-4.641.284V52.436zm11.537 191.875c-15.944-.764-87.716-4.743-87.716-20.749a2.626 2.626 0 012.623-2.622c1.396 0 2.447 1.1 2.6 2.277.072.546.321 1.055.716 1.448 10.093 10.055 67.496 13.702 81.777 14.394zm0-10.259c-14.057-.687-66.129-4.56-77.75-12.541a9.66 9.66 0 00-.616-1.502v-12.787c18.81 7.161 58.059 10.218 78.366 11.185zm0-24.628v3.981c-16.13-.774-87.716-4.522-87.716-20.749a2.626 2.626 0 012.623-2.622c1.396 0 2.447 1.1 2.6 2.277.068.518.32 1.054.716 1.448 10.092 10.054 67.477 13.701 81.83 14.396-.035.424-.053.846-.053 1.269zm50.199 35.564c-9.885.194-19.893.196-29.832 0V214.28h29.832zm15.367-.457a721.23 721.23 0 01-10.367.336v-31.312a4.28 4.28 0 00-4.275-4.275h-31.281a4.28 4.28 0 00-4.275 4.275v31.312a720.76 720.76 0 01-10.367-.336v-35.107c0-5.689 4.633-10.511 10.511-10.511h39.545c5.915 0 10.511 4.859 10.511 10.511-.002 12.243-.002 21.641-.002 35.107zm-10.51-50.618h-39.545c-6.342 0-11.8 3.83-14.201 9.295-15.23-.714-66.674-4.077-79.06-12.601a9.573 9.573 0 00-.616-1.502V176.32c43.532 16.571 187.685 15.08 227.299 0v12.785a9.716 9.716 0 00-.616 1.502c-12.366 8.51-63.996 11.895-79.06 12.601-2.402-5.465-7.86-9.295-14.201-9.295zm103.226 29.649c0 16.006-71.772 19.985-87.716 20.749v-5.252c14.285-.692 71.684-4.339 81.777-14.394.393-.391.644-.899.716-1.448.417-3.21 5.223-2.92 5.223.345zm-87.716 10.49v-15.644c20.053-.955 59.681-4.072 78.366-11.185v12.787a9.6 9.6 0 00-.616 1.502c-12.216 8.388-62.643 11.802-77.75 12.54zm87.716-41.396c0 16.222-71.536 19.973-87.716 20.749-.014-3.847.034-4.203-.053-5.249 14.353-.695 71.738-4.342 81.83-14.396.882-.878.478-1.48 1.189-2.624 1.499-2.084 4.75-1.005 4.75 1.52zm-2.623-33.527a2.626 2.626 0 012.623 2.623c0 28.739-245.998 28.738-245.998 0 0-3.271 4.81-3.526 5.223-.346 1.745 13.255 119.842 22.975 198.191 11.8 27.653-3.943 34.84-8.553 36.646-10.352.393-.391.644-.899.716-1.448.154-1.187 1.212-2.277 2.599-2.277zM14.347 158.2v-12.786c41.35 15.739 184.944 16.121 227.299 0V158.2a9.915 9.915 0 00-.616 1.501c-26.184 17.994-201.05 17.191-226.066 0a9.897 9.897 0 00-.617-1.501zm-9.35-27.354c0-28.595 245.998-28.938 245.998 0 0 28.822-245.998 28.705-245.998 0z"/>
  <path d="M241.561 127.456c-34.531-17.094-192.721-17.033-227.129 0-2.605 1.29-2.835 4.895-.46 6.511 3.375 2.302 16.239 5.296 20.414 6.124 65.793 12.963 191.609 6.166 207.8-6.254 2.221-1.698 1.891-5.135-.625-6.381zM57.453 138.53c41.791-4.859 99.218-4.868 141.086 0-41.794 4.859-99.218 4.867-141.086 0zm158.844-2.539c-47.755-8.175-129.239-8.112-176.602 0-10.686-1.876-16.963-3.758-20.534-5.145 39.765-15.441 180.189-14.563 217.67.001-3.57 1.386-9.848 3.267-20.534 5.144z"/>
</svg>