<svg width="100%" height="100%" viewBox="0 0 393.32 568.34" xmlns="http://www.w3.org/2000/svg" xmlns:xlink="http://www.w3.org/1999/xlink" version="1.0">
  <defs>
    <linearGradient id="s" y2="399.18" xlink:href="#b" gradientUnits="userSpaceOnUse" x2="275.22" gradientTransform="matrix(.8858 1.3022 1.3321 -.90618 -831.46 375.55)" y1="301.44" x1="250.58"/>
    <linearGradient id="r" y2="356.54" xlink:href="#c" gradientUnits="userSpaceOnUse" x2="181.87" gradientTransform="scale(1.6111) rotate(55.774 395.655 66.124)" y1="346.63" x1="181.66"/>
    <linearGradient id="o" y2="364.72" xlink:href="#b" spreadMethod="reflect" gradientUnits="userSpaceOnUse" x2="352.43" gradientTransform="scale(1.6111) rotate(55.774 375.814 68.62)" y1="322.94" x1="337.81"/>
    <linearGradient id="p" y2="377.35" xlink:href="#b" gradientUnits="userSpaceOnUse" x2="253.4" gradientTransform="scale(1.6111) rotate(55.774 375.814 68.62)" y1="308.5" x1="250.58"/>
    <linearGradient id="a">
      <stop offset="0" stop-color="#fff"/>
      <stop offset="1" stop-color="#fff" stop-opacity="0"/>
    </linearGradient>
    <linearGradient id="c">
      <stop offset="0" stop-color="#502d16"/>
      <stop offset="1" stop-color="#2a170b"/>
    </linearGradient>
    <linearGradient id="d">
      <stop offset="0" stop-color="#fff"/>
      <stop offset=".689" stop-color="#bfbfbf"/>
      <stop offset="1" stop-color="#525252"/>
    </linearGradient>
    <linearGradient id="b">
      <stop offset="0" stop-color="#6e6e6e"/>
      <stop offset=".5" stop-color="#fff"/>
      <stop offset="1" stop-color="#a1a1a1"/>
    </linearGradient>
    <linearGradient id="l" y2="638.46" xlink:href="#e" spreadMethod="reflect" gradientUnits="userSpaceOnUse" x2="803.15" gradientTransform="matrix(1.0033 0 0 1 -455.51 -134.51)" y1="591.23" x1="719.46"/>
    <linearGradient id="j" y2="683.91" xlink:href="#e" spreadMethod="reflect" gradientUnits="userSpaceOnUse" x2="276.68" gradientTransform="matrix(1.0033 0 0 1 -4.184 -173.87)" y1="615.42" x1="156.15"/>
    <linearGradient id="h" y2="740.38" xlink:href="#e" spreadMethod="reflect" gradientUnits="userSpaceOnUse" x2="300.03" gradientTransform="matrix(1 0 0 -1 -2.318 975.86)" y1="707.51" x1="166.4"/>
    <linearGradient id="e">
      <stop offset="0" stop-color="#898989"/>
      <stop offset=".5" stop-color="#e6e6e6"/>
      <stop offset="1" stop-color="#a4a4a4"/>
    </linearGradient>
    <linearGradient id="i" y2="533.55" xlink:href="#e" spreadMethod="reflect" gradientUnits="userSpaceOnUse" x2="330.59" gradientTransform="matrix(1 0 0 -1 -2.318 975.86)" y1="450" x1="45.442"/>
    <linearGradient id="f" y2="527.76" gradientUnits="userSpaceOnUse" x2="508.16" gradientTransform="translate(0 -169.24)" y1="523.65" x1="172.58">
      <stop offset="0" stop-color="maroon"/>
      <stop offset=".5" stop-color="#ff0c0c"/>
      <stop offset="1" stop-color="maroon"/>
    </linearGradient>
    <radialGradient id="u" xlink:href="#a" gradientUnits="userSpaceOnUse" cy="348.82" cx="243.79" gradientTransform="matrix(-4.8632 3.4535 -4.3496 -8.1263 2719.6 2028.8)" r="1.043"/>
    <radialGradient id="t" xlink:href="#a" gradientUnits="userSpaceOnUse" cy="348.82" cx="243.79" gradientTransform="matrix(2.0215 2.9716 -28.077 19.1 9438.6 -7234.3)" r="1.043"/>
    <radialGradient id="q" xlink:href="#d" gradientUnits="userSpaceOnUse" cy="348.25" cx="142.22" gradientTransform="matrix(.63685 .26263 -.65499 1.5883 281.89 -244.82)" r="7.704"/>
    <radialGradient id="m" gradientUnits="userSpaceOnUse" cy="518.42" cx="426.2" gradientTransform="matrix(.9872 .68634 -.89224 1.2833 447.71 -433.28)" r="29.133">
      <stop offset="0" stop-color="#fff"/>
      <stop offset="1" stop-color="#fff" stop-opacity="0"/>
    </radialGradient>
    <radialGradient id="k" gradientUnits="userSpaceOnUse" cy="586.54" cx="-184.38" r="73.397">
      <stop offset="0" stop-color="#fff"/>
      <stop offset=".778" stop-color="#cbcbcb"/>
      <stop offset="1" stop-color="#8c8c8c"/>
    </radialGradient>
    <filter id="n">
      <feGaussianBlur stdDeviation="3.843"/>
    </filter>
    <filter id="g">
      <feGaussianBlur stdDeviation="2.77"/>
    </filter>
  </defs>
  <g color="#000">
    <path d="M149.44 245.17v217.37c.75-.08 1.51-.12 2.28-.12h184.25V245.17H149.44zm227.37 0v217.25h185.38V245.17H376.81zm-227.37 261v83.72c0 54.15 49.21 113.96 105.18 158.53 27.99 22.28 56.63 40.62 78.29 53.19 1.07.62 2.03 1.16 3.06 1.75V506.29H151.72c-.77 0-1.53-.04-2.28-.12zm227.37.12v296.69c.65-.37 1.24-.71 1.91-1.09 21.62-12.51 50.23-30.83 78.22-53.16 55.98-44.65 105.25-104.7 105.25-158.84v-83.6H376.81z" fill-rule="evenodd" fill="url(#f)" transform="translate(-27.948 -17.473) scale(.62699)"/>
    <path d="M151.22 243.97v213.9c.74-.08 1.5-.12 2.26-.12h3.19v-208.3H333.9v-5.48H151.22zm225.11 0v217.78h5.45v-212.3h178.08v-5.48H376.33zM151.22 505.61v83.92c0 42.68 30.12 88.84 69.92 128.35-37.08-38.26-64.47-82.15-64.47-122.86v-83.93c.74.09 1.49.13 2.26.13H335.9v-5.49H153.48c-.76 0-1.52-.04-2.26-.12zm225.11.12v297.42c.65-.37 1.23-.71 1.89-1.1 1.14-.66 2.38-1.43 3.56-2.13v-288.7h178.08v-5.49H376.33z" fill-rule="evenodd" filter="url(#g)" fill="#500" transform="translate(-27.948 -17.473) scale(.62699)"/>
    <path d="M115.32 206.4c-1.3 0-2.35 1.15-2.35 2.57V585.25c0 145.1 234.73 261.53 240.5 261.9 5.76.38 240.53-116.8 240.53-261.9V208.97c0-1.42-1.07-2.57-2.37-2.57H115.32zm31.81 34.13h186.53v217.25H149.41c-.77 0-1.53.04-2.28.12V240.53zm227.37 0h185.38v217.25H374.5V240.53zm-227.37 261c.75.08 1.51.12 2.28.12h184.25v297.07c-1.03-.59-1.98-1.13-3.06-1.75-21.66-12.57-50.3-30.91-78.28-53.19-55.98-44.57-105.19-104.38-105.19-158.53v-83.72zm227.37.12h185.38v83.6c0 54.14-49.27 114.19-105.25 158.84-27.99 22.33-56.6 40.65-78.22 53.16-.66.38-1.26.72-1.91 1.09V501.65z" fill-rule="evenodd" stroke="url(#h)" stroke-width="4.623" fill="url(#i)" transform="translate(-27.948 -17.473) scale(.62699)"/>
    <path d="M145.74 238.49v220.44c.75-.08 1.52-.12 2.29-.12h3.23V243.98h183.63v-5.49H145.74zm228.13 0v218.32h5.52V243.98h180.47v-5.49H373.87zM145.74 500.77v84.13c0 42.78 30.53 89.06 70.86 128.66-37.58-38.35-65.34-82.35-65.34-123.16v-84.13c.75.08 1.52.12 2.29.12h179.34v-5.49H148.03c-.77 0-1.54-.04-2.29-.13zm228.13.13v298.14c.65-.37 1.25-.71 1.92-1.1 1.15-.67 2.41-1.43 3.6-2.13V506.39h180.47v-5.49H373.87z" fill-rule="evenodd" fill="url(#j)" transform="translate(-27.948 -17.473) scale(.62699)"/>
    <path d="M409.42 432.73c11.1 12.82 17.85 29.51 17.91 47.78v.22c0 40.52-32.9 73.41-73.41 73.41-18.37 0-35.12-6.8-48-17.97 13.46 15.52 33.29 25.38 55.44 25.38 40.51 0 73.4-32.9 73.4-73.41v-.22c-.07-22.04-9.9-41.78-25.34-55.19z" fill-rule="evenodd" filter="url(#g)" fill="#333" transform="translate(-27.948 -17.473) scale(.62699)"/>
    <path d="M243.084 285.488a46.02 46.02 0 110-.144" fill-rule="evenodd" fill="#b3b3b3"/>
    <path d="M-96.854 603.66a73.397 73.397 0 110-.23" transform="matrix(.58216 0 0 .57655 296.18 -62.964)" fill-rule="evenodd" fill="url(#k)"/>
    <path d="M197.893 240.289c-25.399 0-46.02 20.621-46.02 46.027 0 25.4 20.621 46.021 46.02 46.021 25.406 0 46.009-20.622 46.009-46.02v-.139c-.081-25.355-20.653-45.89-46.009-45.89zm0 3.291c23.544 0 42.642 18.873 42.717 42.184v.138c0 23.356-19.13 42.322-42.717 42.322-23.58 0-42.729-18.966-42.729-42.322 0-23.361 19.148-42.322 42.73-42.322z" fill-rule="evenodd" fill="#333"/>
    <path d="M357.58 408.48c-40.51 0-73.41 32.9-73.41 73.41 0 40.52 32.9 73.41 73.41 73.41 40.52 0 73.38-32.89 73.38-73.41v-.22c-.13-40.43-32.94-73.19-73.38-73.19zm0 5.25c37.54 0 68.01 30.1 68.13 67.29v.21c0 37.26-30.51 67.5-68.13 67.5s-68.16-30.24-68.16-67.5c0-37.25 30.54-67.5 68.16-67.5z" fill-rule="evenodd" fill="url(#l)" transform="translate(-27.948 -17.473) scale(.62699)"/>
    <path d="M413.43 487.31c12.33-1.66 13.45 11.78 2.49 28.41-10.95 16.62-25.96 26.27-38.29 27.93s-17.34-6.59-6.39-23.22c10.94-16.59 29.78-31.4 42.12-33.11" fill-rule="evenodd" fill="url(#m)" transform="translate(-27.948 -17.473) scale(.62699)"/>
    <path d="M142.37 165.39l-11.69-2.31 10.47 68.42-19.23-66.59-9.79 6.78 2.31-11.69-69.047 11.11 67.227-19.86-6.79-9.8 11.69 2.31-9.84-65.894 18.6 64.074 9.79-6.79-2.31 11.69 67.79-6.69-65.97 15.45 6.79 9.79z" transform="matrix(.15922 0 0 .15633 86.308 87.962)" filter="url(#n)" fill="#fff"/>
    <path d="M142.37 165.39l-11.69-2.31 10.47 68.42-19.23-66.59-9.79 6.78 2.31-11.69-69.047 11.11 67.227-19.86-6.79-9.8 11.69 2.31-9.84-65.894 18.6 64.074 9.79-6.79-2.31 11.69 67.79-6.69-65.97 15.45 6.79 9.79z" transform="matrix(.15922 0 0 .15633 253.834 411.708)" filter="url(#n)" fill="#fff"/>
    <path d="M142.37 165.39l-11.69-2.31 10.47 68.42-19.23-66.59-9.79 6.78 2.31-11.69-69.047 11.11 67.227-19.86-6.79-9.8 11.69 2.31-9.84-65.894 18.6 64.074 9.79-6.79-2.31 11.69 67.79-6.69-65.97 15.45 6.79 9.79z" transform="matrix(.15922 0 0 .15633 168.274 217.027)" filter="url(#n)" fill="#fff"/>
    <g>
      <path d="M142.37 165.39l-11.69-2.31 10.47 68.42-19.23-66.59-9.79 6.78 2.31-11.69-69.047 11.11 67.227-19.86-6.79-9.8 11.69 2.31-9.84-65.894 18.6 64.074 9.79-6.79-2.31 11.69 67.79-6.69-65.97 15.45 6.79 9.79z" transform="matrix(.16851 0 0 .16545 81.87 61.437)" filter="url(#n)" fill="#fff"/>
      <path d="M142.37 165.39l-11.69-2.31 10.47 68.42-19.23-66.59-9.79 6.78 2.31-11.69-69.047 11.11 67.227-19.86-6.79-9.8 11.69 2.31-9.84-65.894 18.6 64.074 9.79-6.79-2.31 11.69 67.79-6.69-65.97 15.45 6.79 9.79z" transform="matrix(.16851 0 0 .16545 259.176 404.093)" filter="url(#n)" fill="#fff"/>
      <g transform="translate(-10.035 -2.777) scale(.99978)">
        <path d="M132.09 147.83l223.93 314.24c9.83 22.53 11.74 38.35 8.53 56.41-16.7-2.21-36.3-7.1-49.32-28.66l-207.28-324.3 24.14-17.69z" stroke="url(#o)" stroke-width="5.317" fill="url(#p)"/>
        <path d="M155.18 350.49a7.704 14.086 0 110-.05" transform="scale(1.6111) rotate(55.774 398.72 62.468)" fill="url(#q)"/>
        <path d="M53.71 25.307c1.769 2.6-2.634 8.658-9.871 13.581l-6.26 4.259C30.341 48.07 23.09 49.94 21.321 47.34c-1.769-2.601 2.633-8.658 9.871-13.582l6.26-4.258c7.238-4.924 14.489-6.794 16.258-4.193z" stroke-width="1.232" stroke="#5f3f31" fill="url(#r)"/>
        <path d="M57.335 30.635c1.769 2.601-2.634 8.658-9.872 13.582l-6.26 4.258c-7.237 4.924-14.488 6.794-16.257 4.193s2.633-8.658 9.871-13.581l6.26-4.259c7.238-4.923 14.489-6.793 16.258-4.193z" stroke-width="1.232" stroke="#5f3f31" fill="url(#r)"/>
        <path d="M60.959 35.964c1.769 2.6-2.633 8.657-9.871 13.581l-6.26 4.258c-7.238 4.924-14.489 6.794-16.258 4.193-1.769-2.6 2.634-8.657 9.872-13.581l6.26-4.258c7.237-4.924 14.488-6.794 16.257-4.193z" stroke-width="1.232" stroke="#5f3f31" fill="url(#r)"/>
        <path d="M64.584 41.292c1.769 2.601-2.633 8.658-9.871 13.581l-6.26 4.259c-7.238 4.923-14.489 6.794-16.258 4.193s2.634-8.658 9.871-13.581l6.26-4.259c7.238-4.923 14.489-6.794 16.258-4.193z" stroke-width="1.232" stroke="#5f3f31" fill="url(#r)"/>
        <path d="M68.209 46.621c1.769 2.6-2.634 8.657-9.871 13.581l-6.26 4.258c-7.238 4.924-14.489 6.794-16.258 4.193-1.769-2.6 2.633-8.657 9.871-13.581l6.26-4.258c7.238-4.924 14.489-6.794 16.258-4.193z" stroke-width="1.232" stroke="#5f3f31" fill="url(#r)"/>
        <path d="M71.834 51.949c1.769 2.601-2.634 8.658-9.872 13.581l-6.26 4.259c-7.237 4.923-14.488 6.793-16.257 4.193-1.77-2.601 2.633-8.658 9.871-13.582l6.26-4.258c7.238-4.924 14.488-6.794 16.258-4.193z" stroke-width="1.232" stroke="#5f3f31" fill="url(#r)"/>
        <path d="M75.458 57.277c1.769 2.601-2.633 8.658-9.871 13.582l-6.26 4.258c-7.238 4.924-14.489 6.794-16.258 4.193-1.769-2.6 2.634-8.658 9.871-13.581l6.261-4.259c7.237-4.923 14.488-6.793 16.257-4.193z" stroke-width="1.232" stroke="#5f3f31" fill="url(#r)"/>
        <path d="M79.083 62.606c1.769 2.6-2.634 8.658-9.871 13.581l-6.26 4.259c-7.238 4.923-14.489 6.793-16.258 4.193-1.769-2.601 2.633-8.658 9.871-13.582l6.26-4.258c7.238-4.924 14.489-6.794 16.258-4.193z" stroke-width="1.232" stroke="#5f3f31" fill="url(#r)"/>
        <path d="M82.708 67.934c1.769 2.601-2.634 8.658-9.872 13.582l-6.26 4.258c-7.237 4.924-14.488 6.794-16.257 4.193-1.769-2.6 2.633-8.658 9.871-13.581l6.26-4.259c7.238-4.923 14.489-6.793 16.258-4.193z" stroke-width="1.232" stroke="#5f3f31" fill="url(#r)"/>
        <path d="M86.332 73.263c1.77 2.6-2.633 8.658-9.871 13.581l-6.26 4.259c-7.238 4.923-14.488 6.793-16.258 4.193-1.769-2.601 2.634-8.658 9.872-13.582l6.26-4.258c7.237-4.924 14.488-6.794 16.257-4.193z" stroke-width="1.232" stroke="#5f3f31" fill="url(#r)"/>
        <path d="M89.957 78.591c1.769 2.601-2.633 8.658-9.871 13.582l-6.26 4.258c-7.238 4.919-14.489 6.789-16.258 4.189-1.769-2.596 2.634-8.654 9.871-13.577l6.26-4.259c7.238-4.923 14.489-6.793 16.258-4.193z" stroke-width="1.232" stroke="#5f3f31" fill="url(#r)"/>
        <path d="M93.582 83.92c1.769 2.6-2.634 8.658-9.871 13.581l-6.26 4.259c-7.238 4.92-14.489 6.79-16.258 4.19s2.633-8.655 9.871-13.579l6.26-4.258c7.238-4.924 14.489-6.794 16.258-4.193z" stroke-width="1.232" stroke="#5f3f31" fill="url(#r)"/>
        <path d="M97.207 89.248c1.769 2.601-2.634 8.658-9.872 13.582l-6.26 4.26c-7.237 4.92-14.488 6.79-16.257 4.19s2.633-8.66 9.871-13.58l6.26-4.259c7.238-4.923 14.489-6.793 16.258-4.193z" stroke-width="1.232" stroke="#5f3f31" fill="url(#r)"/>
        <path d="M100.83 94.577c1.77 2.6-2.632 8.653-9.87 13.583l-6.26 4.26c-7.238 4.92-14.489 6.79-16.258 4.19s2.634-8.66 9.872-13.58l6.26-4.26c7.237-4.924 14.488-6.794 16.256-4.193z" stroke-width="1.232" stroke="#5f3f31" fill="url(#r)"/>
        <path d="M104.46 99.905c1.77 2.605-2.64 8.655-9.875 13.585l-6.26 4.25c-7.238 4.93-14.489 6.8-16.258 4.2s2.634-8.66 9.871-13.58l6.26-4.26c7.238-4.925 14.492-6.795 16.262-4.195z" stroke-width="1.232" stroke="#5f3f31" fill="url(#r)"/>
        <path d="M108.08 105.23c1.77 2.6-2.63 8.66-9.87 13.58l-6.26 4.26c-7.238 4.93-14.489 6.8-16.258 4.2s2.633-8.66 9.871-13.58l6.26-4.26c7.238-4.93 14.487-6.8 16.257-4.2z" stroke-width="1.232" stroke="#5f3f31" fill="url(#r)"/>
        <path d="M111.71 110.56c1.76 2.6-2.64 8.66-9.88 13.58l-6.256 4.26c-7.237 4.93-14.488 6.8-16.257 4.19-1.77-2.6 2.633-8.65 9.871-13.58l6.26-4.25c7.242-4.93 14.492-6.8 16.262-4.2z" stroke-width="1.232" stroke="#5f3f31" fill="url(#r)"/>
        <path d="M115.33 115.89c1.77 2.6-2.63 8.66-9.87 13.58l-6.261 4.26c-7.238 4.92-14.489 6.79-16.258 4.19s2.634-8.65 9.871-13.58l6.261-4.26c7.237-4.92 14.487-6.79 16.257-4.19z" stroke-width="1.232" stroke="#5f3f31" fill="url(#r)"/>
        <path d="M118.95 121.22c1.77 2.6-2.63 8.66-9.87 13.58l-6.26 4.26c-7.234 4.92-14.485 6.79-16.254 4.19s2.633-8.66 9.871-13.58l6.263-4.26c7.24-4.92 14.49-6.79 16.25-4.19z" stroke-width="1.232" stroke="#5f3f31" fill="url(#r)"/>
        <path d="M122.58 126.55c1.77 2.6-2.63 8.66-9.87 13.58l-6.26 4.26c-7.239 4.92-14.49 6.79-16.259 4.19s2.633-8.66 9.869-13.58l6.26-4.26c7.24-4.92 14.49-6.79 16.26-4.19z" stroke-width="1.232" stroke="#5f3f31" fill="url(#r)"/>
        <path d="M126.2 131.88c1.77 2.6-2.63 8.65-9.87 13.58l-6.26 4.26c-7.23 4.92-14.485 6.79-16.255 4.19-1.769-2.6 2.634-8.66 9.875-13.58l6.26-4.26c7.23-4.92 14.49-6.79 16.25-4.19z" stroke-width="1.232" stroke="#5f3f31" fill="url(#r)"/>
        <path d="M129.83 137.2c1.77 2.6-2.63 8.66-9.87 13.59l-6.26 4.25c-7.24 4.93-14.491 6.8-16.26 4.2s2.63-8.66 9.87-13.58l6.26-4.26c7.24-4.93 14.49-6.8 16.26-4.2z" stroke-width="1.232" stroke="#5f3f31" fill="url(#r)"/>
        <path d="M133.45 142.53c1.77 2.6-2.63 8.66-9.87 13.58l-6.26 4.26c-7.24 4.93-14.49 6.8-16.26 4.2-1.764-2.6 2.64-8.66 9.88-13.59l6.26-4.25c7.23-4.93 14.48-6.8 16.25-4.2z" stroke-width="1.232" stroke="#5f3f31" fill="url(#r)"/>
        <path d="M137.08 147.86c1.77 2.6-2.63 8.66-9.87 13.58l-6.26 4.26c-7.24 4.92-14.49 6.79-16.26 4.19s2.63-8.65 9.87-13.58l6.26-4.26c7.24-4.92 14.49-6.79 16.26-4.19z" stroke-width="1.232" stroke="#5f3f31" fill="url(#r)"/>
        <path d="M122.51 164.76l-8.38 6.23 202.43 317.17c12.71 21.09 32.12 25.72 48.69 27.71.03-.16.82 5.28.85 5.12L122.51 164.76z" opacity=".664" fill="url(#s)"/>
        <rect transform="rotate(55.774)" ry="4.199" width="8.398" y="-55.99" x="197.57" height="88.178" fill="#666"/>
        <path d="M139.79 155.56c-19.76 13.44-36.74 22.96-37.9 21.25-1.17-1.71 13.93-14.01 33.69-27.45 19.12-13.01 18.35-19.44 23.45-14.24 4.18 4.27.59 6.94-19.12 20.36" fill="url(#t)"/>
        <path d="M12.338 38.879c-2.79-5.839-3.084-11.789-.654-13.281 2.43-1.493 6.668 2.034 9.459 7.872 2.701 5.649 9.802 2.23 1.531 7.719-6.777 4.498-8.131 3.956-10.924-1.866" fill="url(#u)"/>
        <path d="M142.37 165.39l-11.69-2.31 10.47 68.42-19.23-66.59-9.79 6.78 2.31-11.69-69.047 11.11 67.227-19.86-6.79-9.8 11.69 2.31-9.84-65.894 18.6 64.074 9.79-6.79-2.31 11.69 67.79-6.69-65.97 15.45 6.79 9.79z" transform="matrix(.05783 .16487 -.18005 .06315 62.776 -14.098)" filter="url(#n)" fill="#fff"/>
        <path d="M142.37 165.39l-11.69-2.31 10.47 68.42-19.23-66.59-9.79 6.78 2.31-11.69-69.047 11.11 67.227-19.86-6.79-9.8 11.69 2.31-9.84-65.894 18.6 64.074 9.79-6.79-2.31 11.69 67.79-6.69-65.97 15.45 6.79 9.79z" transform="matrix(-.00288 .2787 -.23703 -.00245 214.78 181.28)" filter="url(#n)" fill="#fff"/>
        <path d="M142.37 165.39l-11.69-2.31 10.47 68.42-19.23-66.59-9.79 6.78 2.31-11.69-69.047 11.11 67.227-19.86-6.79-9.8 11.69 2.31-9.84-65.894 18.6 64.074 9.79-6.79-2.31 11.69 67.79-6.69-65.97 15.45 6.79 9.79z" transform="matrix(.04355 .14855 -.1594 .04673 394.2 534.75)" filter="url(#n)" fill="#fff"/>
      </g>
      <g transform="matrix(-.99978 0 0 .99978 403.354 -4.19)">
        <path d="M132.09 147.83l223.93 314.24c9.83 22.53 11.74 38.35 8.53 56.41-16.7-2.21-36.3-7.1-49.32-28.66l-207.28-324.3 24.14-17.69z" stroke="url(#o)" stroke-width="5.317" fill="url(#p)"/>
        <path d="M155.18 350.49a7.704 14.086 0 110-.05" transform="scale(1.6111) rotate(55.774 398.72 62.468)" fill="url(#q)"/>
        <path d="M53.71 25.307c1.769 2.6-2.634 8.658-9.871 13.581l-6.26 4.259C30.341 48.07 23.09 49.94 21.321 47.34c-1.769-2.601 2.633-8.658 9.871-13.582l6.26-4.258c7.238-4.924 14.489-6.794 16.258-4.193z" stroke-width="1.232" stroke="#5f3f31" fill="url(#r)"/>
        <path d="M57.335 30.635c1.769 2.601-2.634 8.658-9.872 13.582l-6.26 4.258c-7.237 4.924-14.488 6.794-16.257 4.193s2.633-8.658 9.871-13.581l6.26-4.259c7.238-4.923 14.489-6.793 16.258-4.193z" stroke-width="1.232" stroke="#5f3f31" fill="url(#r)"/>
        <path d="M60.959 35.964c1.769 2.6-2.633 8.657-9.871 13.581l-6.26 4.258c-7.238 4.924-14.489 6.794-16.258 4.193-1.769-2.6 2.634-8.657 9.872-13.581l6.26-4.258c7.237-4.924 14.488-6.794 16.257-4.193z" stroke-width="1.232" stroke="#5f3f31" fill="url(#r)"/>
        <path d="M64.584 41.292c1.769 2.601-2.633 8.658-9.871 13.581l-6.26 4.259c-7.238 4.923-14.489 6.794-16.258 4.193s2.634-8.658 9.871-13.581l6.26-4.259c7.238-4.923 14.489-6.794 16.258-4.193z" stroke-width="1.232" stroke="#5f3f31" fill="url(#r)"/>
        <path d="M68.209 46.621c1.769 2.6-2.634 8.657-9.871 13.581l-6.26 4.258c-7.238 4.924-14.489 6.794-16.258 4.193-1.769-2.6 2.633-8.657 9.871-13.581l6.26-4.258c7.238-4.924 14.489-6.794 16.258-4.193z" stroke-width="1.232" stroke="#5f3f31" fill="url(#r)"/>
        <path d="M71.834 51.949c1.769 2.601-2.634 8.658-9.872 13.581l-6.26 4.259c-7.237 4.923-14.488 6.793-16.257 4.193-1.77-2.601 2.633-8.658 9.871-13.582l6.26-4.258c7.238-4.924 14.488-6.794 16.258-4.193z" stroke-width="1.232" stroke="#5f3f31" fill="url(#r)"/>
        <path d="M75.458 57.277c1.769 2.601-2.633 8.658-9.871 13.582l-6.26 4.258c-7.238 4.924-14.489 6.794-16.258 4.193-1.769-2.6 2.634-8.658 9.871-13.581l6.261-4.259c7.237-4.923 14.488-6.793 16.257-4.193z" stroke-width="1.232" stroke="#5f3f31" fill="url(#r)"/>
        <path d="M79.083 62.606c1.769 2.6-2.634 8.658-9.871 13.581l-6.26 4.259c-7.238 4.923-14.489 6.793-16.258 4.193-1.769-2.601 2.633-8.658 9.871-13.582l6.26-4.258c7.238-4.924 14.489-6.794 16.258-4.193z" stroke-width="1.232" stroke="#5f3f31" fill="url(#r)"/>
        <path d="M82.708 67.934c1.769 2.601-2.634 8.658-9.872 13.582l-6.26 4.258c-7.237 4.924-14.488 6.794-16.257 4.193-1.769-2.6 2.633-8.658 9.871-13.581l6.26-4.259c7.238-4.923 14.489-6.793 16.258-4.193z" stroke-width="1.232" stroke="#5f3f31" fill="url(#r)"/>
        <path d="M86.332 73.263c1.77 2.6-2.633 8.658-9.871 13.581l-6.26 4.259c-7.238 4.923-14.488 6.793-16.258 4.193-1.769-2.601 2.634-8.658 9.872-13.582l6.26-4.258c7.237-4.924 14.488-6.794 16.257-4.193z" stroke-width="1.232" stroke="#5f3f31" fill="url(#r)"/>
        <path d="M89.957 78.591c1.769 2.601-2.633 8.658-9.871 13.582l-6.26 4.258c-7.238 4.919-14.489 6.789-16.258 4.189-1.769-2.596 2.634-8.654 9.871-13.577l6.26-4.259c7.238-4.923 14.489-6.793 16.258-4.193z" stroke-width="1.232" stroke="#5f3f31" fill="url(#r)"/>
        <path d="M93.582 83.92c1.769 2.6-2.634 8.658-9.871 13.581l-6.26 4.259c-7.238 4.92-14.489 6.79-16.258 4.19s2.633-8.655 9.871-13.579l6.26-4.258c7.238-4.924 14.489-6.794 16.258-4.193z" stroke-width="1.232" stroke="#5f3f31" fill="url(#r)"/>
        <path d="M97.207 89.248c1.769 2.601-2.634 8.658-9.872 13.582l-6.26 4.26c-7.237 4.92-14.488 6.79-16.257 4.19s2.633-8.66 9.871-13.58l6.26-4.259c7.238-4.923 14.489-6.793 16.258-4.193z" stroke-width="1.232" stroke="#5f3f31" fill="url(#r)"/>
        <path d="M100.83 94.577c1.77 2.6-2.632 8.653-9.87 13.583l-6.26 4.26c-7.238 4.92-14.489 6.79-16.258 4.19s2.634-8.66 9.872-13.58l6.26-4.26c7.237-4.924 14.488-6.794 16.256-4.193z" stroke-width="1.232" stroke="#5f3f31" fill="url(#r)"/>
        <path d="M104.46 99.905c1.77 2.605-2.64 8.655-9.875 13.585l-6.26 4.25c-7.238 4.93-14.489 6.8-16.258 4.2s2.634-8.66 9.871-13.58l6.26-4.26c7.238-4.925 14.492-6.795 16.262-4.195z" stroke-width="1.232" stroke="#5f3f31" fill="url(#r)"/>
        <path d="M108.08 105.23c1.77 2.6-2.63 8.66-9.87 13.58l-6.26 4.26c-7.238 4.93-14.489 6.8-16.258 4.2s2.633-8.66 9.871-13.58l6.26-4.26c7.238-4.93 14.487-6.8 16.257-4.2z" stroke-width="1.232" stroke="#5f3f31" fill="url(#r)"/>
        <path d="M111.71 110.56c1.76 2.6-2.64 8.66-9.88 13.58l-6.256 4.26c-7.237 4.93-14.488 6.8-16.257 4.19-1.77-2.6 2.633-8.65 9.871-13.58l6.26-4.25c7.242-4.93 14.492-6.8 16.262-4.2z" stroke-width="1.232" stroke="#5f3f31" fill="url(#r)"/>
        <path d="M115.33 115.89c1.77 2.6-2.63 8.66-9.87 13.58l-6.261 4.26c-7.238 4.92-14.489 6.79-16.258 4.19s2.634-8.65 9.871-13.58l6.261-4.26c7.237-4.92 14.487-6.79 16.257-4.19z" stroke-width="1.232" stroke="#5f3f31" fill="url(#r)"/>
        <path d="M118.95 121.22c1.77 2.6-2.63 8.66-9.87 13.58l-6.26 4.26c-7.234 4.92-14.485 6.79-16.254 4.19s2.633-8.66 9.871-13.58l6.263-4.26c7.24-4.92 14.49-6.79 16.25-4.19z" stroke-width="1.232" stroke="#5f3f31" fill="url(#r)"/>
        <path d="M122.58 126.55c1.77 2.6-2.63 8.66-9.87 13.58l-6.26 4.26c-7.239 4.92-14.49 6.79-16.259 4.19s2.633-8.66 9.869-13.58l6.26-4.26c7.24-4.92 14.49-6.79 16.26-4.19z" stroke-width="1.232" stroke="#5f3f31" fill="url(#r)"/>
        <path d="M126.2 131.88c1.77 2.6-2.63 8.65-9.87 13.58l-6.26 4.26c-7.23 4.92-14.485 6.79-16.255 4.19-1.769-2.6 2.634-8.66 9.875-13.58l6.26-4.26c7.23-4.92 14.49-6.79 16.25-4.19z" stroke-width="1.232" stroke="#5f3f31" fill="url(#r)"/>
        <path d="M129.83 137.2c1.77 2.6-2.63 8.66-9.87 13.59l-6.26 4.25c-7.24 4.93-14.491 6.8-16.26 4.2s2.63-8.66 9.87-13.58l6.26-4.26c7.24-4.93 14.49-6.8 16.26-4.2z" stroke-width="1.232" stroke="#5f3f31" fill="url(#r)"/>
        <path d="M133.45 142.53c1.77 2.6-2.63 8.66-9.87 13.58l-6.26 4.26c-7.24 4.93-14.49 6.8-16.26 4.2-1.764-2.6 2.64-8.66 9.88-13.59l6.26-4.25c7.23-4.93 14.48-6.8 16.25-4.2z" stroke-width="1.232" stroke="#5f3f31" fill="url(#r)"/>
        <path d="M137.08 147.86c1.77 2.6-2.63 8.66-9.87 13.58l-6.26 4.26c-7.24 4.92-14.49 6.79-16.26 4.19s2.63-8.65 9.87-13.58l6.26-4.26c7.24-4.92 14.49-6.79 16.26-4.19z" stroke="#5f3f31" stroke-width="1.232" fill="url(#r)"/>
        <path d="M122.51 164.76l-8.38 6.23 202.43 317.17c12.71 21.09 32.12 25.72 48.69 27.71.03-.16.82 5.28.85 5.12L122.51 164.76z" opacity=".664" fill="url(#s)"/>
        <rect transform="rotate(55.774)" ry="4.199" width="8.398" y="-55.99" x="197.57" height="88.178" fill="#666"/>
        <path d="M139.79 155.56c-19.76 13.44-36.74 22.96-37.9 21.25-1.17-1.71 13.93-14.01 33.69-27.45 19.12-13.01 18.35-19.44 23.45-14.24 4.18 4.27.59 6.94-19.12 20.36" fill="url(#t)"/>
        <path d="M12.338 38.879c-2.79-5.839-3.084-11.789-.654-13.281 2.43-1.493 6.668 2.034 9.459 7.872 2.701 5.649 9.802 2.23 1.531 7.719-6.777 4.498-8.131 3.956-10.924-1.866" fill="url(#u)"/>
        <path d="M142.37 165.39l-11.69-2.31 10.47 68.42-19.23-66.59-9.79 6.78 2.31-11.69-69.047 11.11 67.227-19.86-6.79-9.8 11.69 2.31-9.84-65.894 18.6 64.074 9.79-6.79-2.31 11.69 67.79-6.69-65.97 15.45 6.79 9.79z" transform="matrix(.05783 .16487 -.18005 .06315 62.776 -14.098)" filter="url(#n)" fill="#fff"/>
        <path d="M142.37 165.39l-11.69-2.31 10.47 68.42-19.23-66.59-9.79 6.78 2.31-11.69-69.047 11.11 67.227-19.86-6.79-9.8 11.69 2.31-9.84-65.894 18.6 64.074 9.79-6.79-2.31 11.69 67.79-6.69-65.97 15.45 6.79 9.79z" transform="matrix(-.00288 .2787 -.23703 -.00245 214.78 181.28)" filter="url(#n)" fill="#fff"/>
        <path d="M142.37 165.39l-11.69-2.31 10.47 68.42-19.23-66.59-9.79 6.78 2.31-11.69-69.047 11.11 67.227-19.86-6.79-9.8 11.69 2.31-9.84-65.894 18.6 64.074 9.79-6.79-2.31 11.69 67.79-6.69-65.97 15.45 6.79 9.79z" transform="matrix(.04355 .14855 -.1594 .04673 394.2 534.75)" filter="url(#n)" fill="#fff"/>
      </g>
    </g>
  </g>
</svg>