<svg width="100%" height="100%" viewBox="0 0 314.96 239.78" xmlns="http://www.w3.org/2000/svg" xmlns:xlink="http://www.w3.org/1999/xlink">
  <defs>
    <linearGradient id="a">
      <stop stop-color="#ff9d00" offset="0"/>
      <stop stop-color="#fc0" offset=".25"/>
      <stop stop-color="#ffe231" offset=".5"/>
      <stop stop-color="#fc0" offset=".75"/>
      <stop stop-color="#ff9d00" offset="1"/>
    </linearGradient>
    <linearGradient id="c" y2="739.55" gradientUnits="userSpaceOnUse" x2="791.63" y1="739.55" x1="-163.07">
      <stop stop-color="#613700" offset="0"/>
      <stop stop-color="#e28000" offset=".199"/>
      <stop stop-color="#e28000" offset=".762"/>
      <stop stop-color="#613700" offset="1"/>
    </linearGradient>
    <linearGradient id="d" y2="720.17" gradientUnits="userSpaceOnUse" x2="597.05" y1="720.17" x1="31.511">
      <stop stop-color="#613700" offset="0"/>
      <stop stop-color="#e28000" offset=".13"/>
      <stop stop-color="#e28000" offset=".882"/>
      <stop stop-color="#613700" offset="1"/>
    </linearGradient>
    <linearGradient id="e" y2="791.31" xlink:href="#a" gradientUnits="userSpaceOnUse" x2="596.67" y1="791.31" x1="31.895"/>
    <linearGradient id="f" y2="1046.7" gradientUnits="userSpaceOnUse" x2="535.96" y1="1046.7" x1="150.47">
      <stop stop-color="#985200" offset="0"/>
      <stop stop-color="#d97900" offset=".25"/>
      <stop stop-color="#6d2900" offset=".5"/>
      <stop stop-color="#d97900" offset=".75"/>
      <stop stop-color="#985200" offset="1"/>
    </linearGradient>
    <linearGradient id="g" y2="1046.7" xlink:href="#a" gradientUnits="userSpaceOnUse" x2="535.96" y1="1046.7" x1="150.47"/>
    <linearGradient id="h" y2="1207.4" gradientUnits="userSpaceOnUse" y1="1321.8" x2="206.32" x1="155.77">
      <stop stop-color="#520" offset="0"/>
      <stop stop-color="#bf6900" offset="1"/>
    </linearGradient>
    <linearGradient id="i" y2="1324.2" gradientUnits="userSpaceOnUse" y1="1210.5" x2="154.3" x1="207.09">
      <stop stop-color="#fc0" offset="0"/>
      <stop stop-color="#ffd426" offset="1"/>
    </linearGradient>
    <radialGradient id="b" gradientUnits="userSpaceOnUse" cy="793.64" cx="372.14" gradientTransform="matrix(.32122 -.01818 .0217 .38341 201.07 734.02)" r="220.18">
      <stop stop-color="#fff" offset="0"/>
      <stop stop-color="#a40" offset=".922"/>
      <stop stop-color="#e28000" offset=".952"/>
      <stop stop-color="#613700" offset="1"/>
    </radialGradient>
  </defs>
  <text stroke-linejoin="round" font-size="144" font-family="ButterFly" fill="#112b00" style="text-align:end" stroke="#122a0b" y="1731.303" x="-719.763" font-weight="500" stroke-width="2" text-anchor="end" transform="translate(-179.95 -877.14)">
    
  </text>
  <text font-size="144" y="292.729" x="100.552" font-family="Jokerman" fill="green" transform="translate(-179.95 -877.14)">
    
  </text>
  <text font-size="144" y="124.991" x="87.812" font-family="Jokerman" fill="green" transform="translate(-179.95 -877.14)">
    
  </text>
  <path opacity=".99" d="M404.1 1030.3c0 44.08-29.853 79.814-66.678 79.814s-66.678-35.734-66.678-79.814 29.853-79.814 66.678-79.814S404.1 986.22 404.1 1030.3z" stroke="url(#b)" stroke-width="7.537" fill="#f0d15a" transform="translate(-179.95 -877.14)"/>
  <g stroke-linejoin="round" stroke="#512a00" stroke-linecap="round">
    <path d="M84.844 670.22c-137.94 4.559-246.31 49.77-246.31 104.97 0 11.781 4.927 23.109 14.031 33.688 27.387-36.726 119.46-64.567 232.28-68.656l10.312-57.72c-.3-6.442-1.996-11.852-10.312-12.281zm458.88 0c-8.317.43-9.981 5.839-10.281 12.281l10.281 57.719c112.82 4.09 204.89 31.93 232.28 68.66 9.104-10.579 14.031-21.906 14.031-33.688 0-55.198-108.37-100.41-246.31-104.97z" stroke-width="3.194" fill="url(#c)" transform="translate(55.776 -55.868) scale(.32362)"/>
    <path d="M86.125 670.19c-.413-.018-.845.001-1.281.031.65-.03 1.264-.017 1.844.031-.191-.018-.367-.053-.563-.062zm456.34 0c-.19.008-.377.044-.563.063.571-.047 1.173-.062 1.813-.032-.436-.03-.837-.05-1.25-.03zm-454 .375c1.08.312 2.07.824 2.906 1.438a7.82 7.82 0 00-2.906-1.438zm451.62 0a7.679 7.679 0 00-2.875 1.438 9.151 9.151 0 012.875-1.438zm-3.375 1.844c-.165.14-.316.287-.469.437.143-.161.314-.29.469-.437zm-.469.437c-1.855 1.827-2.814 4.36-2.594 6.844.357-2.85 1.146-5.207 2.594-6.844zm-443.94 0c1.438 1.625 2.233 3.96 2.594 6.782.2-2.468-.75-4.97-2.594-6.782zm2.594 6.782c-.454 5.598-6.835 10.935-22.25 7.187-15.485-3.765-37.507-14.438-39.5-3.063.05 31.97 17.499 57.602 26.25 86.407l25.438-29.938c1.727-18.387 11.908-46.177 10.062-60.594zm492.44-.97c-8.288.241-21.275 5.686-31.438 8.157-15.248 3.707-21.672-1.469-22.25-7-1.735 14.469 8.343 42.098 10.062 60.406l25.438 29.938c8.751-28.805 26.2-54.437 26.25-86.406-.685-3.91-3.721-5.22-8.062-5.094z" stroke-width="3.29" fill="url(#d)" transform="translate(55.776 -55.868) scale(.32362)"/>
  </g>
  <path stroke-linejoin="round" d="M66.452 165.766c-1.822 4.486 2.963 10.132 4.338 21.42.42 3.442-1.027 12.478-1.75 15.149 25.735 25.673 59.09 33.925 88.388 32.938 30.52-1.029 73.219-10.152 88.387-32.938-.723-2.671-2.159-11.707-1.74-15.15 1.376-11.286 6.15-16.932 4.329-21.419-23.477 26.452-62.679 32.27-91.067 32.582-20.99.232-89.05-10.434-90.888-32.582z" stroke="#512a00" stroke-linecap="round" stroke-width="2.8446198" fill="#520"/>
  <path d="M33.156 683.75c-5.628 13.863 9.158 31.309 13.406 66.188 1.296 10.638-3.173 38.558-5.406 46.812 81.069 83.46 181.89 103.08 273.56 102.09 94.853-1.026 225.42-31.092 272.69-102.09-2.233-8.255-6.671-36.174-5.375-46.812 4.249-34.878 19.004-52.324 13.375-66.188-66.28 82.92-194.18 103.21-282.74 102.8-64.31-.3-273.86-34.53-279.52-102.8z" fill="url(#e)" transform="translate(55.774 -55.868) scale(.32362)"/>
  <path opacity=".99" stroke-linejoin="round" d="M70.354 201.364c1.716 2.112 3.314 4.054 5.258 5.553m-4.886-7.263c1.83 2.013 3.868 4.026 6.218 5.481m-5.791-7.436c1.915 2.354 3.953 4.196 7.24 5.907m-6.898-7.961c2.085 2.524 4.548 4.365 7.494 5.82m-7.153-7.86c2.597 2.95 4.89 4.11 8.006 5.906m-7.788-8.081c2.597 2.95 5.06 4.197 8.177 5.993m-8.005-8.123c2.597 2.95 5.145 4.111 8.261 5.907m-8.345-8.317c2.596 2.95 4.889 4.196 8.005 5.992m-8.43-8.447c2.596 2.95 4.805 4.196 7.92 5.992m-8.128-8.183c2.597 2.95 4.55 3.856 7.666 5.652m-8.516-8.544c2.597 2.95 4.634 4.197 7.75 5.992m-8.6-8.964c2.596 2.95 5.4 4.707 8.515 6.503m-9.366-9.395c2.596 2.95 4.634 4.367 7.75 6.163M244.033 201.235c-1.36 2.079-2.624 3.991-4.138 5.45m3.906-7.173c-1.443 1.978-3.043 3.952-4.862 5.36m4.595-7.328c-1.517 2.317-3.111 4.12-5.647 5.763m5.447-7.816c-1.65 2.485-3.566 4.277-5.837 5.672m5.637-7.724c-2.05 2.901-3.818 4.015-6.227 5.747m6.124-7.93c-2.049 2.9-3.949 4.096-6.358 5.829m6.29-7.963c-2.05 2.9-4.011 4.009-6.42 5.741m6.552-8.125c-2.05 2.9-3.82 4.099-6.229 5.831m6.62-8.294c-2.048 2.901-3.755 4.102-6.164 5.834m6.385-8.025c-2.05 2.9-3.553 3.766-5.962 5.498m6.689-8.378c-2.05 2.9-3.627 4.105-6.036 5.837m6.765-8.802c-2.05 2.9-4.221 4.6-6.63 6.332m7.356-9.212c-2.049 2.9-3.632 4.276-6.04 6.008" stroke="#512a00" stroke-linecap="round" stroke-width=".37507558" fill="none"/>
  <path opacity=".99" stroke-linejoin="round" d="M4.693 192.27c5.437-10.907 18.3-18.337 32.277-22.568M4.436 194.825c6.46-10.992 22.22-20.04 30.83-22.568m-30.66 24.698c4.842-7.757 19.835-19.02 29.297-21.802M5.1 198.64c4.927-6.65 19.834-18.423 27.763-20.354M5.696 200.174c5.523-6.309 18.898-16.634 26.401-18.395M6.548 201.707c4.927-6.223 17.876-14.846 25.294-16.947M7.144 202.9c5.693-6.48 17.024-13.143 25.379-15.415M7.91 204.007c6.63-7.501 18.3-12.632 26.06-14.223M310.258 192.27c-5.437-10.907-18.3-18.337-32.277-22.568m32.534 25.123c-6.46-10.992-22.219-20.04-30.83-22.568m30.66 24.698c-4.841-7.757-19.834-19.02-29.296-21.802m28.802 23.488c-4.927-6.65-19.834-18.423-27.763-20.354m27.167 21.887c-5.523-6.309-18.898-16.634-26.401-18.395m25.549 19.928c-4.927-6.223-17.876-14.846-25.294-16.947m24.698 18.14c-5.693-6.48-17.024-13.143-25.379-15.415m24.612 16.522c-6.63-7.501-18.3-12.632-26.06-14.223" stroke="#512a00" stroke-linecap="round" stroke-width=".38640228" fill="none"/>
  <g>
    <path d="M352 925.31a1.417 1.417 0 00-.75.313c-.362.29-.744.541-1.125.968l-.094.094c-.011.014-.02.017-.03.031a1.417 1.417 0 00-.032.031c-2.052 2.517-7.731 7.705-12.438 14.094-2.374 3.224-4.543 6.758-6.031 10.562-.691 1.766-1.246 3.585-1.594 5.407-.002.01.002.021 0 .03a24.294 24.294 0 00-.344 6.47c.094 1.176.187 2.317.313 3.437 1.18 10.571 3.564 17.06 5.562 25.562 1.104 4.697 2.118 10.062 2.813 17.188.694 7.126 1.072 16.068.968 27.812-.004.398-.055.673-.062 1.063-.548-2.591-1.25-5.095-2.188-7.47a55.71 55.71 0 00-2.78-6c-1.596-2.948-3.422-5.705-5.313-8.405-3.134-4.474-6.481-8.666-9.407-12.97-2.923-4.3-5.39-8.734-6.75-13.468-.377-1.316-.369-2.362-.03-3.282.337-.92 1.023-1.773 2.28-2.593 2.447-1.597 7.296-2.69 14.094-1.844 1.366.183 2.518-.695 2.688-2.063.282-2.13-.52-4.14-1.844-5.656-1.301-1.491-3.08-2.621-5.156-3.469-4.134-1.687-9.485-2.34-14.781-1.906-4.128.339-8.202 1.351-11.594 3.25-3.4 1.903-6.149 4.81-7.094 8.688-1.698 6.97.322 12.877 3.875 17.906 3.55 5.024 8.615 9.478 13.875 14.469 5.259 4.988 10.71 10.502 15.312 17.406a67.352 67.352 0 015.531 10c2.036 4.576 3.684 9.68 4.844 15.437l.031.156h.032c.176 1.045.984 1.743 2.03 1.875-.717 2.908-1.501 5.23-2.312 7.125-.042-.474-.083-.955-.156-1.406-.694-4.332-2.75-8.14-5.562-11.5-3.178-3.798-7.311-7.057-11.5-10.125-4.195-3.073-8.461-5.918-11.906-8.907-3.449-2.99-5.97-6.035-6.875-9.343-.166-.605-.123-.768.218-1.22.3-.394.988-.903 2.031-1.218 2.076-.626 5.421-.4 8.407 1.375.008 0 .023-.01.03 0 .871.514 1.845.34 2.5-.094.657-.433 1.224-1.248 1.095-2.25v-.03c-.51-4.212-3.516-7.342-7.25-9.126-3.733-1.783-8.27-2.4-12.562-1.969a25.43 25.43 0 00-1.72.22c-3.498.604-6.786 1.963-9.093 4.343-1.115 1.15-1.829 2.595-2.281 4.156-1.566-1.753-3.514-3.068-5.719-3.812-1.885-.637-3.947-.954-6-.97a23.4 23.4 0 00-6 .75c-3.896 1.004-7.457 2.92-9.781 5.72-2.347 2.826-3.239 6.722-1.625 10.469.372.884 1.185 1.29 1.937 1.375.74.082 1.629-.156 2.188-.907h.031c.004-.01-.004-.026 0-.03 1.647-2.262 4.439-3.393 6.75-3.407 2.342-.014 3.663.913 3.969 2.063.708 2.663.383 5.29-.625 8.156-1.007 2.862-2.7 5.85-4.563 9-1.857 3.14-3.889 6.393-5.562 9.781-1.673 3.388-3.003 6.933-3.5 10.625-.432 3.195-.212 6.486.875 9.781-1.477-1.472-3.092-3.319-4.906-5.593.775-.616 1.115-1.558.781-2.532l.062-.03c-2.758-9.492-3.59-17.575-3.156-24.75.32-5.29 1.323-10.083 2.594-14.532 1.273-4.457 2.807-8.587 4.188-12.53 1.38-3.946 2.617-7.744 3.062-11.626.446-3.887.046-7.873-1.844-11.813-1.04-2.164-2.496-4.321-4.531-6.468-2.906-3.065-6.817-4.861-10.906-5.594-2.038-.366-4.116-.454-6.187-.375a34.356 34.356 0 00-6.125.812c-.611.137-1.207.258-1.844.438-4.539 1.28-8.517 3.385-11.062 6.094-1.318 1.406-2.294 3.032-2.563 4.875-.275 1.884.328 3.817 1.594 5.406.701.878 1.786 1.146 2.813.687a1.417 1.417 0 00.062 0 30.3 30.3 0 013.75-1.469c4.652-1.504 8.613-1.42 11.312-.468 2.725.961 4.249 2.617 4.938 4.906 1.405 4.67 1.543 9.239 1.218 13.938-.325 4.706-1.107 9.5-1.625 14.469-.631 6.066-.831 12.359.563 19.03.202.969.51 1.959.781 2.938-.128-.233-.246-.387-.375-.625-5.918-10.884-10.259-19.179-13.438-25.938-3.181-6.765-5.232-11.966-6.844-16.562-1.611-4.595-2.787-8.69-4.406-13.094-1.615-4.394-3.657-9.065-6.969-14.906-3.698-6.522-10.394-11.756-17.594-15.875-7.114-4.07-14.687-7.009-19.78-9.062a1.417 1.417 0 00-.126-.031c-1.477-.439-2.191-.656-3.125-1.344a1.417 1.417 0 00-2.25 1.219c.068 1.524.1 2.407.094 3.468v.063c-.133 3.886-.569 9.709.5 15.969 1.103 6.46 3.808 13.272 9.219 18.938 3.326 3.483 6.276 6.27 9.094 8.844-2.055-.906-4.439-1.338-6.907-1.375-4.589-.07-9.658 1.09-13.969 3.281-3.349 1.702-6.235 4.022-7.937 7.031-1.72 3.041-1.954 6.78-.156 10.344 3.246 6.437 8.466 10.621 14.594 13.75 5.646 2.883 12.199 5.015 19.156 7.407-.22-.034-.437-.1-.657-.126-3.973-.455-8.12.227-11.594 1.782-3.467 1.552-6.36 4.008-7.468 7.375-1.127 3.423.04 7.346 3.312 10.719 4.317 4.451 9.109 6.935 14.188 8.437 5.08 1.503 10.471 2.05 16.188 2.688.425.047.884.138 1.313.187-1.142.19-2.262.534-3.282 1.063-2.623 1.358-4.51 3.697-5.156 6.406-.652 2.737.107 5.771 2.281 8.094 2.835 3.027 6 4.691 9.313 5.343 3.3.65 6.65.377 10.188-.124 3.536-.502 7.332-1.239 11.438-1.657 4.111-.418 8.523-.53 13.25.188a1.417 1.417 0 00.031 0c.25.034.455-.087.688-.125.283.36.64.675 1.156.812 3.35.895 6.283 2.432 9.094 4.219-3.018-.963-6.12-1.662-9.282-1.875-8.733-.588-17.465 1.463-24.156 4.594-4.29 2.007-8.404 4.992-11.812 8.687-3.406 3.694-6.091 8.072-7.53 12.812-1.439 4.736-1.631 9.785-.313 14.688 1.317 4.901 4.126 9.617 8.343 13.875 3.44 3.472 7.913 6.369 12.438 7.938 4.538 1.574 9.503 1.806 13.406-1.125 4.076-3.06 5.962-6.982 6.063-10.844.1-3.85-1.417-7.511-3.656-10.438-2.13-2.785-5.141-4.931-8.313-6.157-3.163-1.222-6.625-1.604-9.5-.062-2.408 1.29-3.925 3.13-4.53 5.125-.603 1.984-.315 3.91.218 5.47.528 1.542 1.301 2.823 1.937 3.75.319.462.602.834.813 1.093.105.13.187.24.25.312.047.054.078.076.094.094.01.012.02.02.03.031.786.857 1.972.813 2.75.438.79-.38 1.585-1.298 1.376-2.469-.185-1.033-.126-2.009.093-2.594.244-.65.438-.878 1-1.093-.15.057.15 0 .532.063.38.065.874.222 1.375.468 1.027.506 2.154 1.44 2.656 2.094 1.5 1.95 1.783 3.483 1.656 4.625-.125 1.125-.66 1.893-1.375 2.406-1.785 1.283-3.934 1.405-6.531.594-2.582-.806-5.351-2.595-7.25-4.687-3.327-3.666-5.287-7.382-6.094-11-.805-3.614-.465-7.19.781-10.625 1.245-3.433 3.44-6.721 6.22-9.5a33.71 33.71 0 019.5-6.625c3.068-1.42 6.871-2.509 10.905-3 4.045-.493 8.35-.431 12.344.375 3.99.805 7.71 2.373 10.781 4.593 3.067 2.217 5.526 5.104 7.188 8.844 1.443 3.247 1.34 6.881.03 9.938-1.315 3.072-3.695 5.504-7.78 6.812-.935.3-2.735.032-4.657-1.031-1.94-1.074-3.967-2.823-5.312-4.719-.793-1.117-1.01-2.824-.719-4.094.282.988.726 1.975 1.375 2.938 1.122 1.662 2.9 2.764 4.719 3.406 1.796.634 3.963.95 5.937-.062 2.26-1.161 3.708-3.144 4.25-5.313.535-2.138.257-4.465-.687-6.562-1.756-3.899-5.072-6.258-8.531-7.219-3.44-.955-7.028-.662-9.813.781-3.206 1.663-5.586 4.807-6.344 8.594-.758 3.794.175 8.128 3.032 12.094 2.347 3.26 5.883 5.732 9.468 7.281 3.582 1.548 7.367 2.27 10.688 1.094 4.573-1.62 8.1-4.44 10.375-8.031 1.431-2.257 2.2-4.872 2.594-7.594 3.006 2.24 6.315 3.962 9.97 4.531 3.582.556 7.333.192 11.093-1.156 2.772-.994 4.912-3.25 6.469-5.875l.031-.03c.037-.04.058-.086.094-.126.032-.042-.021.022.062-.125 3.35-3.789 3.987-8.816 2.938-13.156-.772-3.192-2.54-6.15-4.969-8.375-2.29-2.097-5.175-3.5-8.188-3.594-.223-.046-.315-.075-.25-.062-1.967-.374-3.958-.388-5.843 0a12.412 12.412 0 00-7.938 5.532c-.41.657-.74 1.381-1 2.125-.206-1.506-.249-2.935-.094-4.313.551-4.937 3.383-9.267 7.875-12.78 4.43-3.466 10.417-6.032 16.312-7.282h.063a49.48 49.48 0 0112.188.406c4.072.654 7.987 1.853 11.312 3.594 3.32 1.738 6.054 4.016 7.969 6.75a17.35 17.35 0 012.219 4.344c.035.102.028.24.062.344-.531-.593-1.088-1.156-1.719-1.625-2.852-2.121-6.417-3.056-9.625-2.75-1.934.183-3.827.833-5.53 1.75h-.032c.172-.093.078-.063-.25.125-2.818.987-5.018 3.184-6.344 5.875a15.68 15.68 0 00-1.375 9.468c.752 4.413 3.312 8.878 7.906 11.375.069.037.119.09.188.125l.062.031c2.449 1.982 5.26 3.454 8.25 3.563 4.38.159 8.348-.782 11.72-2.594h.03c.646-.346 1.328-.75 1.97-1.188 2.376-1.62 4.211-3.808 5.75-6.25 1.415 2.716 3.187 5.193 5.593 7.032a1.417 1.417 0 00.031 0c3.56 2.702 8.06 4.259 13.281 4.375 2.93.064 5.799-1.162 8.375-2.907.051-.035.106-.059.157-.094-.04.011.17-.078.062-.03.022-.01.04-.023.063-.032 4.965-2.166 7.901-6.55 9-10.969.793-3.19.564-6.587-.657-9.53-1.146-2.766-3.211-5.103-5.969-6.25-.454-.294-.562-.29-.25-.095-.005 0 .005-.03 0-.03h-.03c-1.62-1.004-3.44-1.824-5.407-2.126-3.199-.492-6.858.247-9.875 2.188-.672.432-1.258.968-1.844 1.531a18.059 18.059 0 012.688-4.5c2.15-2.62 5.108-4.767 8.594-6.313 3.482-1.544 7.504-2.488 11.656-2.906 4.116-.415 8.32-.262 12.219.313h.093c3.714.999 7.445 2.488 10.781 4.406 3.406 1.958 6.42 4.39 8.625 7.063 2.204 2.67 3.627 5.6 4.125 8.718.293 1.831.148 3.79-.25 5.813-.242-.89-.58-1.749-1.03-2.531-1.752-3.034-4.734-5.095-7.876-5.907-1.909-.495-3.978-.577-6.031-.312a1.417 1.417 0 00-.031 0c.367-.058.306-.078-.188 0a1.417 1.417 0 00-.219.063c-2.998-.02-5.927 1.166-8.343 3.062-2.62 2.057-4.68 4.897-5.688 8.063-1.392 4.371-1.029 9.622 2.406 13.656.016.018.016.044.032.062.042.079.112.14.156.219 1.47 2.628 3.523 4.94 6.25 6.062 4.996 2.056 10.103 2.383 14.844 1.313 3.115-.704 5.988-2.193 8.625-4.063.299 2.813 1.032 5.542 2.531 7.938 2.396 3.83 6.174 6.93 11.25 8.812 3.512 1.302 7.625.738 11.531-.656 3.91-1.396 7.804-3.724 10.344-7 3.074-3.965 3.963-8.404 3.062-12.281-.896-3.862-3.458-7.07-6.812-8.813-2.894-1.503-6.65-1.914-10.281-1.093-3.65.825-7.236 3.053-9.188 6.937-1.046 2.083-1.373 4.416-.812 6.625.566 2.228 2.114 4.24 4.469 5.469 1.998 1.04 4.245.881 6.187.344 1.956-.542 3.834-1.552 5.063-3.22.872-1.182 1.34-2.443 1.594-3.687.082.147.215.247.28.407.556 1.349.304 3.23-.624 4.437-1.434 1.867-3.555 3.583-5.688 4.594-2.135 1.011-4.19 1.255-5.406.844-4.602-1.557-7.25-4.252-8.625-7.438-1.37-3.173-1.385-6.801.219-9.969 1.855-3.664 4.527-6.452 7.844-8.562 3.315-2.11 7.275-3.482 11.53-4.156 4.257-.675 8.838-.634 13.157-.031 4.322.602 8.408 1.729 11.75 3.218 3.647 1.627 7.357 4.042 10.562 6.907 3.2 2.86 5.862 6.2 7.53 9.687 1.675 3.499 2.383 7.124 1.876 10.719-.508 3.594-2.221 7.241-5.594 10.938-1.912 2.096-4.874 3.95-7.844 4.781-2.986.835-5.826.7-8.187-.75-.984-.602-1.716-1.51-1.938-2.625-.225-1.132-.066-2.553 1.47-4.468.49-.613 1.715-1.549 2.874-2.063 1.138-.505 2.412-.499 2.5-.469.817.28 1.278.704 1.594 1.344.316.64.455 1.534.344 2.563-.115 1.14.655 1.996 1.437 2.343.771.343 1.919.346 2.688-.468l.03-.031c.05-.051 2.167-2.231 3.095-5.407.477-1.632.611-3.638-.22-5.625-.835-2-2.59-3.763-5.25-5.031-3.096-1.479-6.812-1.17-10.218 0-3.413 1.173-6.613 3.264-8.875 6.062-2.372 2.933-4.01 6.72-3.656 10.72.354 4.005 2.816 7.902 7.656 11 4.531 2.9 9.99 2.771 15.062 1.218 5.06-1.55 9.956-4.487 13.53-8.062 4.367-4.368 7.018-9.22 7.938-14.25.918-5.019.153-10.122-1.843-14.844-1.993-4.712-5.192-9.066-9.032-12.75-3.841-3.686-8.328-6.672-12.875-8.72-7.331-3.3-16.83-5.566-26.219-5.093-3.167.16-6.275.76-9.312 1.594 3.081-1.733 6.278-3.245 9.906-4.062a2.237 2.237 0 001.219-.782c.246.048.453.189.719.156 4.967-.58 9.581-.375 13.875.125 4.293.501 8.288 1.309 12 1.844 3.711.536 7.187.837 10.594.188 3.426-.654 6.688-2.366 9.53-5.438 2.199-2.375 2.86-5.474 2.126-8.187-.73-2.7-2.718-4.988-5.375-6.313-1.09-.543-2.31-.882-3.594-1.062.488-.055 1.017-.134 1.5-.188 5.817-.653 11.251-1.258 16.344-2.844 5.09-1.584 9.864-4.181 14.031-8.75 3.156-3.459 4.18-7.396 3-10.75-1.166-3.314-4.081-5.714-7.5-7.187-3.413-1.471-7.462-2.094-11.375-1.594l-.219.031c6.71-2.413 12.977-4.599 18.344-7.562 5.92-3.269 10.897-7.613 13.97-14.062 1.929-4.052 1.378-8.207-.813-11.375-2.168-3.135-5.653-5.346-9.469-6.782-3.813-1.434-7.978-2.09-11.781-1.718-1.493.145-2.936.522-4.281 1.03a181.336 181.336 0 008.469-8.468c5.684-6.066 8.49-13.367 9.812-20.062 1.294-6.554 1.2-12.498 1.469-15.844a1.417 1.417 0 000-.031c.081-1.09.447-2.563 1.062-4.344a1.417 1.417 0 00-2.28-1.531c-1.656 1.462-2.648 1.923-4.345 2.719-4.462 2.054-11.302 5.852-18.5 9.937-7.393 4.196-14.63 9.533-18.812 16.312a105.724 105.724 0 00-7.093 13.531c.127-.654.282-1.309.218-1.969-.184-1.919-1.136-3.634-2.406-5.093-2.554-2.937-6.65-5.146-11.375-6.375a30.184 30.184 0 00-5.719-.907c-1.94-.121-3.946-.099-5.937.219-3.953.631-7.75 2.291-10.781 5.188-5.683 5.428-7.83 11.169-7.938 16.906-.107 5.713 1.547 11.354 3.125 17.469 1.58 6.116 3.14 12.78 3.344 20.438.205 7.656-.937 16.334-4.437 26.594a1.417 1.417 0 000 .03c-.323.972.081 1.855.812 2.47-2.055 2.362-3.878 4.207-5.531 5.687 1.705-4.292 1.966-8.653 1.156-12.812-.883-4.535-2.843-8.835-4.906-12.97-2.065-4.137-4.256-8.076-5.563-11.78-1.309-3.713-1.76-7.065-.593-10.344.42-1.183 1.848-2.02 4.125-1.907 2.248.113 4.78 1.293 6.187 3.563.008.014.023.017.031.03.495.822 1.369 1.122 2.125 1.095.757-.027 1.597-.396 2.032-1.25.007-.014.024-.016.03-.031h-.03c2.073-4.084 1.09-8.471-1.594-11.531-2.663-3.035-6.741-5.054-11.125-5.813-1.732-.3-3.48-.345-5.188-.219-1.736.13-3.472.488-5.093 1.125-1.665.655-3.121 1.724-4.438 3-.387-1.982-1.277-3.776-2.719-5.156-2.674-2.558-6.491-3.899-10.5-4.312-4.023-.415-8.257.166-11.812 1.75-3.57 1.59-6.531 4.368-7.437 8.281-.233.999.254 1.85.875 2.344s1.58.795 2.5.343a1.417 1.417 0 00.03-.03c3.177-1.62 6.502-1.618 8.407-.907.963.36 1.545.912 1.75 1.25.243.4.311.538.063 1.188-1.294 3.385-4.27 6.355-8.157 9.218-3.882 2.86-8.62 5.574-13.219 8.5-4.598 2.926-9.053 6.073-12.5 9.875-3.047 3.363-5.169 7.305-5.937 11.844-.55-1.723-1.06-3.765-1.469-6.312-.06-.377-.069-.947-.125-1.344 1.002-.037 1.886-.6 2.188-1.594.005-.015.027-.016.03-.03a78.761 78.761 0 013.157-8.532c3.266-7.485 7.387-13.548 11.969-18.75 4.581-5.2 9.63-9.53 14.438-13.437 4.806-3.906 9.408-7.414 13.219-11.188 3.817-3.78 6.848-7.908 8.094-12.969.555-2.259.785-4.722.5-7.375-.419-3.898-2.69-7.05-5.781-9.187-3.074-2.125-6.909-3.38-10.875-3.97a35.798 35.798 0 00-1.97-.25c-4.823-.446-9.673.078-13.53 1.532-1.936.73-3.628 1.698-4.938 3.031-1.326 1.35-2.235 3.155-2.25 5.156.002 1.427 1.108 2.462 2.532 2.375 6.783-.39 11.298 1.016 13.375 2.688 1.074.865 1.604 1.733 1.812 2.656.208.923.077 2.006-.469 3.313-2.994 7.171-8.442 13.247-14.094 19.563-5.651 6.315-11.469 12.82-15.312 20.78a46.474 46.474 0 00-2.312 5.782c.022-.236.007-.387.031-.625 1.306-12.866 2.901-22.286 4.656-29.656 1.756-7.371 3.662-12.702 5.563-17.531 3.114-7.892 6.28-14.482 8.843-25.72.948-4.153.725-8.377-.25-12.405-.974-4.029-2.666-7.833-4.625-11.312-3.542-6.31-7.93-11.583-9.468-14.094a1.417 1.417 0 00-.188-.219c-.472-.509-.674-.844-1.156-1.344a1.417 1.417 0 00-1.16-.49zm112.97 77.75c2.876-.036 6.363.756 10.125 2.75h.031c1.026.56 2.21.333 2.969-.563.136-.16.16-.363.281-.53-1.5 3.672-2.785 7.197-4.375 11.124-1.845 4.56-4.125 9.714-7.594 16.406-3.466 6.689-8.146 14.918-14.53 25.656-.078.13-.142.215-.22.344.613-1.933 1.265-3.862 1.626-5.75a1.417 1.417 0 000-.03c1.026-5.379 1.083-10.535.906-15.532-.177-4.994-.608-9.825-.563-14.53.046-4.703.568-9.259 2.344-13.907.987-2.584 3.059-4.423 6.344-5.156.817-.183 1.695-.27 2.656-.281zm-281.22 4.9c3.805 3.306 7.446 6.335 11.375 9.906 4.094 3.722 8.45 8.045 13.594 14.094 4.772 5.613 10.295 12.935 16.469 22.313-4.956-4.824-10.653-8.67-16.562-12-5.93-3.341-12.091-6.208-18-9.281-5.909-3.073-11.539-6.343-16.438-10.5-1.305-1.107-2.064-2.222-2.406-3.156-.355-.968-.375-1.613.031-2.5.784-1.714 3.927-4.296 10.281-5.844 1.44-.344 2.095-1.73 1.656-3.031zm320.62 6.469c-.09 1.113.615 2.175 1.844 2.469 5.906 1.463 8.661 3.88 9.375 5.562.37.875.377 1.573.031 2.531-.338.937-1.105 2.065-2.375 3.188-4.759 4.207-10.255 7.532-16.062 10.625-5.813 3.095-11.906 5.96-17.844 9.25-5.905 3.272-11.631 6.966-16.75 11.688 6.534-9.226 12.221-16.438 17.125-21.97a168.734 168.734 0 0113.906-14c3.736-3.36 7.187-6.237 10.75-9.343zm-221 17.625c1.323 1.806 2.825 3.426 4.563 4.812 3.936 3.141 8.665 5.463 13.656 8 1.024.521 2.082 1.142 3.125 1.688-2.15-1.122-4.512-1.597-6.782-1.375-3.08.301-5.962 1.603-8 3.656a9.27 9.27 0 00-1.5 2 11.21 11.21 0 00-2.406-1.5 14.751 14.751 0 00-4.375-1.219 14.446 14.446 0 00-4.562.157c-2.355.47-4.61 1.612-6.188 3.593-1.594 2-2.316 4.747-1.906 7.875.127 1.033.923 1.666 1.687 1.907.753.237 1.743.147 2.438-.594l.031-.031c1.803-1.918 3.48-2.073 4.5-1.844.251.056.31.124.469.219-2.419 5.176-6.075 8.272-9.844 11.437-3.726 3.13-7.579 6.513-8.719 11.813-.663-.313-1.59-.88-2.656-1.625.643-.39 1.134-.969 1.188-1.781v-.032c.12-1.835.398-3.59.718-5.28 1.125-5.957 3.373-10.799 6.156-15.032 2.789-4.241 6.078-7.867 9.157-11.344 3.082-3.48 5.971-6.836 7.78-10.78.68-1.481 1.19-3.06 1.47-4.72zm122.16 3.969c.155 1.904.533 3.729 1.219 5.437 1.702 4.244 4.601 7.924 7.625 11.844 3.026 3.924 6.211 8.085 8.625 13.031 2.414 4.949 4.114 10.699 4.25 17.844a1.417 1.417 0 000 .031c.043.856.584 1.399 1.187 1.75-1.201.77-2.255 1.334-2.969 1.625-.9-5.378-4.602-8.972-8.156-12.281-3.588-3.34-7.035-6.605-9.03-11.844.164-.09.26-.167.562-.219 1.038-.177 2.723.051 4.375 2.063a1.417 1.417 0 00.03.03c.66.765 1.616.885 2.376.688.76-.197 1.544-.792 1.75-1.78.638-3.096.153-5.88-1.281-7.97-1.424-2.073-3.597-3.32-5.907-3.906a14.367 14.367 0 00-4.53-.406c-1.539.107-3.072.45-4.47 1-.894.351-1.704.804-2.468 1.344a8.737 8.737 0 00-1.25-1.97c-1.862-2.181-4.648-3.682-7.688-4.155a12.837 12.837 0 00-3.656-.031c-.552.073-1.08.281-1.625.437.61-.266 1.24-.583 1.844-.844 5.193-2.245 10.113-4.31 14.28-7.218 1.824-1.273 3.445-2.799 4.907-4.5zm-214.69 10.812c6.137 2.266 12.48 4.797 18.875 8.437 8.17 4.651 16.302 10.888 23.906 19.625a1.417 1.417 0 00.031.031c.703.762 1.697.859 2.594.5.983 2.774 1.571 5.04 1.937 7-2.65-3.777-6.168-6.691-10.28-8.875-4.81-2.553-10.295-4.246-15.813-5.687-5.52-1.442-11.063-2.633-16-4.219-4.942-1.588-9.23-3.55-12.28-6.469-.674-.644-.729-.964-.72-1.25.01-.272.149-.686.72-1.187 1.098-.966 4.072-1.984 7.843-1.375h.031c1.093.179 1.993-.492 2.407-1.219.412-.725.517-1.841-.188-2.688l-.031-.03c-.883-1.044-1.927-1.873-3.031-2.594zm114.56.063c3.824 2.023 7.716 4.21 11.438 7.03 4.857 3.682 9.384 8.33 13.062 14.626-.034-.058.083.17.219.406.454.782 1.218 1.063 2.03 1.063-.666.99-1.277 1.763-1.75 2.218-3.392-4.75-8.567-6.77-13.655-8.656-5.025-1.863-10.092-3.73-14.938-7.969.683-.41 2.545-.873 5.344.5.98.494 2.009.121 2.625-.437.616-.559 1.052-1.538.656-2.563h.031c-1.069-2.896-2.925-4.914-5.062-6.218zm75.906 3.125c-1.852 1.215-3.514 2.973-4.656 5.375-.467.992-.073 1.992.5 2.593s1.549 1.043 2.562.625c2.928-1.21 4.658-.668 5.281-.25-5.227 3.958-10.464 5.503-15.656 7.063-5.262 1.58-10.574 3.264-14.375 7.781-.448-.482-.933-.991-1.562-2.125-.021-.038-.041-.117-.063-.156.87.114 1.729-.14 2.25-.906.004-.01-.004-.026 0-.031h.032c4.33-6.24 9.421-10.712 14.719-14.156 3.63-2.361 7.315-4.146 10.969-5.813zm115.47 2.593c-1.08.73-2.098 1.561-2.969 2.594-.01.012-.021.02-.031.031-.705.846-.6 1.962-.188 2.687.418.735 1.33 1.418 2.438 1.22 3.762-.64 6.636.332 7.719 1.28.553.484.675.853.687 1.157.012.289-.05.623-.718 1.281-3 2.956-7.232 4.96-12.188 6.562-4.962 1.604-10.56 2.802-16.156 4.188-5.6 1.386-11.205 2.957-16.156 5.406-4.29 2.12-8.063 4.98-10.906 8.781.428-1.985 1.098-4.303 2.218-7.125.933.477 2.009.407 2.782-.406 8.047-8.565 16.414-14.636 24.688-19.219 6.453-3.575 12.72-6.143 18.78-8.437zm-205.47 10.844c.723.7 1.49 1.35 2.344 1.875 2.841 1.748 6.209 2.607 9.844 3.375 3.626.767 7.57 1.451 11.688 2.5 4.107 1.047 8.357 2.478 12.375 4.75a1.417 1.417 0 00.03.031c.255.136.497.086.75.125a1.417 1.417 0 00.563 1.094c.487.36.95.759 1.438 1.188a1.417 1.417 0 00.031 0 1.417 1.417 0 00.094.094c2.278 2.012 4 4.423 5.562 6.968-.9-.845-1.717-1.768-2.719-2.5-1.79-1.319-3.724-2.453-5.78-3.437-4.057-1.941-8.543-3.252-13.032-4-2.248-.375-4.46-.577-6.656-.688a58.886 58.886 0 00-6.438.031c-2.083.124-4.202.482-6.343.907-.052.01-.105-.01-.157 0a1.417 1.417 0 00-.218 0c-1.194.105-2.391.212-3.594.406-1.201.193-2.34.46-3.406.719-4.548 1.099-9.268 2.873-13.594 5.343-4.319 2.467-8.239 5.598-11.125 9.407-1.23 1.617-2.183 3.38-2.97 5.218.395-3.566 1.047-7 2.876-10.03.248-.415.3-.833.281-1.25.114-.097.277-.1.375-.22.01-.011.022-.018.031-.03 2.62-3.198 5.79-5.72 9.063-7.844 3.283-2.131 6.657-3.86 9.687-5.625 3.016-1.757 5.773-3.534 7.688-6.094.535-.715.975-1.49 1.312-2.312zm103.53 3.344a10.44 10.44 0 001.094 2.281c1.717 2.68 4.348 4.617 7.25 6.532 2.915 1.924 6.214 3.828 9.406 6.125 3.185 2.292 6.271 4.987 8.812 8.343.132.176.335.243.5.375a1.417 1.417 0 00.094 1.157c1.82 3.289 2.306 6.964 2.563 10.78a28.409 28.409 0 00-5.688-9.25c-5.688-6.162-13.827-10.47-21.562-12.78a49.237 49.237 0 00-6.656-1.47c-.077-.021-.105-.026-.125-.03h-.031a48.996 48.996 0 00-6.844-1.313c-5.602-.655-11.951-.55-18.094.657-6.126 1.203-12.028 3.472-16.781 7.093 1.12-1.463 2.275-2.894 3.625-4.156a24.309 24.309 0 013.625-2.844 1.417 1.417 0 00.031 0c.454-.292.687-.69.844-1.125.182-.022.345.076.531 0a1.417 1.417 0 00.094-.03c4.226-2.032 8.579-3.2 12.78-4 4.2-.802 8.269-1.225 11.97-1.782 3.703-.557 7.095-1.273 10.062-2.844.905-.479 1.73-1.056 2.5-1.718zm-189.31 9.375c3.448.506 6.98 1.123 10.656 2.125 6.414 1.75 13.125 4.529 19.906 9.219.808.581 1.774.512 2.594 0-.026 1.089-.075 1.935-.219 2.531-5.265-3.063-10.772-3.114-16.156-3.125-5.475-.01-10.955-.018-17.75-2.5.137-.229 1.202-1.292 4.438-.969 1.14.115 1.996-.655 2.343-1.437.348-.782.349-1.95-.5-2.719-1.713-1.543-3.512-2.456-5.312-3.125zm276.69 5.75c-1.893.656-3.786 1.6-5.594 3.188-.848.77-.847 1.937-.5 2.718.344.774 1.19 1.533 2.313 1.438h.03c3.185-.28 4.386.69 4.626 1-6.955 2.459-12.678 2.396-18.344 2.312-5.648-.083-11.33-.156-16.875 2.844-.148-.61-.192-1.54-.188-2.719.814.598 1.801.691 2.657.125.008 0 .023.01.03 0 7.119-4.508 14.067-7.14 20.657-8.812 3.88-.985 7.577-1.594 11.188-2.094z" stroke="#000" stroke-width=".548" fill="url(#f)" transform="matrix(.34978 -.00803 .00743 .32352 28.025 -293.45)"/>
    <path d="M162.74 958.33c.203 1.192.22 1.716.235 2.424-.122 3.98-.738 8.888.303 14.989 1.042 6.101 3.549 12.467 8.57 17.725 4.879 5.108 8.995 8.903 12.956 12.357 3.96 3.454 7.765 6.567 11.916 10.34 4.152 3.773 8.649 8.209 13.86 14.338 5.212 6.129 11.146 13.95 17.98 24.536 4.903 7.593 7.851 13.823 9.71 18.839 1.858 5.016 2.61 8.828 2.833 11.676.445 5.697-1.272 7.566-1.272 7.566 6.415 1.712 11.353 5.381 16.173 8.996a686.5 686.5 0 011 1.968c.029-.394.014-.795.04-1.19.396.297.8.6 1.197.895-.366-.738-.733-1.477-1.101-2.215.34-5.415.691-10.904 3.691-15.877 0 0-2.845-.292-7.698-4.465-2.427-2.087-5.374-5.14-8.794-9.619-3.42-4.477-7.325-10.378-11.578-18.199-5.928-10.902-10.3-19.272-13.512-26.104-3.213-6.832-5.287-12.123-6.923-16.789-1.636-4.665-2.839-8.705-4.423-13.014s-3.544-8.889-6.79-14.614c-3.347-5.903-9.698-10.96-16.69-14.96-6.99-4-14.167-6.445-19.293-8.514-1.003-.269-1.589-.614-2.391-1.091zm189.57-30.64c-.065.087-.274.21-.347.301l-.005.104c-2.31 2.882-7.907 7.933-12.492 14.159-2.292 3.113-4.343 6.513-5.724 10.044a28.201 28.201 0 00-1.462 4.997c-.37 1.936-.503 3.888-.348 5.832.094 1.17.202 2.288.323 3.363 1.153 10.326 3.475 16.656 5.507 25.3 1.122 4.774 2.154 10.25 2.86 17.487.704 7.235 1.072 16.229.968 28.034-.075 8.468-.936 15.067-2.059 20.21-1.123 5.143-2.525 8.832-3.882 11.474-1.365 2.657-2.699 4.255-3.69 5.188-.976.92-1.621 1.19-1.621 1.19.566.42 1.103.855 1.613 1.303 4.533 3.956 7.032 8.974 9.668 13.811l-.03 1.14c.126-.19.26-.373.385-.564.056.1.095.212.15.313l.018-.622c2.549-3.897 5.046-7.916 8.644-11.279a26.641 26.641 0 013.977-3.108s-1.663-.82-3.452-4.047c-1.308-2.355-2.704-5.984-3.595-11.525-.892-5.542-1.314-13-.297-23.01 1.314-12.944 2.932-22.46 4.718-29.96 1.786-7.498 3.728-12.978 5.649-17.86 3.15-7.982 6.233-14.355 8.746-25.373.851-3.731.654-7.565-.251-11.306-.905-3.742-2.519-7.388-4.402-10.732-3.463-6.167-7.867-11.282-9.602-14.192.01-.225.022-.45.033-.673zm175.12 35.206l-1.608 1.962c-4.39 2.033-11.85 4.987-19.057 9.078-7.208 4.09-14.121 9.315-17.946 15.516-3.484 5.647-5.682 10.166-7.492 14.423-1.81 4.256-3.231 8.252-5.1 12.868-1.867 4.615-4.183 9.85-7.685 16.607-3.502 6.756-8.206 15.03-14.603 25.79-4.59 7.718-8.767 13.518-12.42 17.897-3.65 4.379-6.784 7.336-9.352 9.336-5.137 4.002-8.076 4.167-8.076 4.167 3.02 5.457 3.024 11.382 3.235 17.195l-.36.612.344-.224c.013.361.03.72.047 1.081l1.014-1.8c5.472-3.624 11.019-7.399 18.15-9.007 0 0-1.77-1.95-1.166-7.67.302-2.86 1.188-6.668 3.25-11.647 2.064-4.98 5.293-11.136 10.51-18.62 7.272-10.432 13.455-18.15 18.82-24.202a171.257 171.257 0 0114.087-14.185c4.162-3.745 7.931-6.846 11.845-10.295 3.913-3.45 7.971-7.248 12.769-12.367 5.299-5.655 7.957-12.513 9.218-18.901 1.261-6.388 1.12-12.29 1.435-15.876l.71-.842c-.179.096-.476.233-.677.335.044-.4.042-.902.107-1.229zm-303.38 21.89c-4.22 1.19-7.831 3.163-9.927 5.394-2.168 2.313-2.711 4.887-.869 7.2a32.953 32.953 0 014.039-1.62c5.047-1.631 9.496-1.608 12.829-.432 3.332 1.175 5.558 3.498 6.455 6.476 1.517 5.041 1.643 9.939 1.308 14.791-.335 4.853-1.135 9.666-1.644 14.546-.62 5.952-.796 12 .526 18.33 1.322 6.33 4.156 12.925 9.113 20.127-2.826-9.723-3.686-18.14-3.235-25.603.332-5.497 1.366-10.468 2.673-15.039 1.306-4.572 2.882-8.744 4.251-12.654 1.369-3.91 2.53-7.564 2.938-11.118.408-3.554.063-7.01-1.618-10.513-.932-1.941-2.267-3.901-4.143-5.88-2.486-2.622-5.859-4.158-9.551-4.82-3.693-.662-7.696-.45-11.38.37-.59.132-1.193.284-1.765.445zm86.126-13.164c-3.857.316-7.644 1.28-10.633 2.955-2.99 1.673-5.172 4.052-5.932 7.17-1.529 6.276.171 11.29 3.48 15.972 3.31 4.684 8.264 9.058 13.56 14.083 5.298 5.026 10.934 10.707 15.695 17.848a69.528 69.528 0 015.7 10.343c2.127 4.782 3.855 10.11 5.05 16.1.434-2.769.691-5.366.713-7.879.053-6.072-1.083-11.462-3.047-16.434a52.978 52.978 0 00-2.678-5.712c-1.533-2.832-3.291-5.547-5.154-8.207-3.078-4.395-6.442-8.634-9.435-13.037-2.993-4.402-5.62-8.97-7.085-14.07-.973-3.384.072-6.49 3.258-8.57 3.185-2.077 8.535-3.124 15.707-2.232.369-2.787-1.874-5.08-5.53-6.572-3.655-1.491-8.71-2.165-13.67-1.759zm-150.73 36.339c-3.059 1.555-5.599 3.646-6.974 6.078-1.375 2.432-1.582 5.196-.105 8.124 2.972 5.893 7.722 9.677 13.581 12.668 5.859 2.992 12.868 5.193 20.543 7.866 7.675 2.673 16.018 5.823 24.393 10.591 8.374 4.767 16.751 11.154 24.542 20.104-3.075-7.05-7.09-12.664-11.857-17.32-4.768-4.655-10.274-8.35-16.098-11.632s-11.958-6.149-17.928-9.254c-5.97-3.105-11.782-6.448-16.898-10.789-3.077-2.611-4.28-5.637-2.975-8.489 1.304-2.852 5.143-5.538 11.881-7.179-1.6-2.526-5.104-3.75-9.253-3.812-4.149-.062-8.919 1.044-12.851 3.043zm225.27-33.797c-4.5-.417-9.066.09-12.464 1.371-3.398 1.281-5.616 3.327-5.635 5.946 7.154-.413 12.21.97 15.025 3.236 2.815 2.267 3.416 5.418 2.038 8.72-3.203 7.673-8.875 13.935-14.522 20.245-5.647 6.31-11.276 12.673-14.93 20.24-3.15 6.522-4.813 13.911-4.332 22.862a80.81 80.81 0 013.244-8.814c3.373-7.73 7.692-14.058 12.412-19.416 4.72-5.359 9.83-9.748 14.672-13.684 4.842-3.935 9.414-7.418 13.063-11.03 3.648-3.614 6.384-7.361 7.487-11.84.496-2.018.665-4.21.41-6.575-.336-3.134-2.122-5.618-4.78-7.455-2.658-1.837-6.18-3.023-9.878-3.571a33.394 33.394 0 00-1.81-.235zm80.821 16.42c-3.391-.882-7.137-1.176-10.69-.609-3.552.567-6.904 1.995-9.541 4.515-5.309 5.07-7.06 10.048-7.159 15.255-.098 5.207 1.468 10.665 3.057 16.821s3.195 13.012 3.408 20.954c.212 7.942-.99 16.955-4.573 27.456 1.82-2.405 3.472-4.71 4.81-7.004 3.232-5.545 5.101-10.816 6.08-15.941.977-5.126 1.067-10.101.893-15.011-.174-4.91-.613-9.754-.565-14.62.047-4.864.578-9.755 2.486-14.747 1.265-3.314 4.081-5.747 8.032-6.629 3.95-.882 9.043-.206 14.48 2.682 2.012-2.38 1.565-5.08-.526-7.484s-5.832-4.504-10.192-5.638zm59.6 21.823c-3.488-1.313-7.376-1.888-10.734-1.56-3.358.328-6.177 1.555-7.62 3.794 6.307 1.563 9.864 4.139 11.05 6.934 1.186 2.794.017 5.814-2.976 8.46-4.976 4.4-10.65 7.802-16.53 10.934-5.88 3.132-11.972 5.992-17.82 9.233-5.848 3.24-11.448 6.86-16.385 11.43-4.938 4.572-9.2 10.094-12.563 17.08 8.227-8.757 16.844-14.986 25.305-19.673 8.46-4.687 16.742-7.835 24.286-10.57 7.544-2.734 14.354-5.06 19.998-8.175 5.643-3.116 10.148-7.025 12.97-12.952 1.604-3.367 1.137-6.438-.638-9.004s-4.853-4.62-8.34-5.932zm-231.92-.298c-.518.053-1.052.14-1.557.227-3.141.543-5.956 1.765-7.777 3.643s-2.64 4.406-1.939 7.572c1.126 5.088 3.84 8.63 7.483 11.538 3.644 2.908 8.246 5.185 13.255 7.732 5.01 2.547 10.432 5.367 15.592 9.278 5.059 3.833 9.85 8.714 13.702 15.31l.232.398a17.902 17.902 0 00-.223-3.273c-.613-3.824-2.439-7.225-5.05-10.346-2.952-3.527-6.9-6.687-11.042-9.72-4.141-3.033-8.473-5.937-12.08-9.067-3.61-3.13-6.504-6.494-7.604-10.514-.672-2.457 1.014-4.464 3.85-5.32 2.834-.856 6.798-.543 10.371 1.593-.386-3.264-2.679-5.735-5.917-7.282-3.239-1.547-7.408-2.16-11.295-1.768zm-30.449 4.635c-3.51.903-6.648 2.665-8.535 4.939-1.888 2.273-2.522 5.048-1.25 8.004 2.158-2.982 5.62-4.397 8.666-4.415 3.047-.019 5.648 1.35 6.3 3.808.859 3.23.408 6.403-.701 9.558-1.11 3.154-2.88 6.293-4.755 9.463-1.875 3.17-3.845 6.373-5.448 9.62-1.603 3.245-2.839 6.532-3.286 9.86-.514 3.8-.006 7.644 1.977 11.565.127-1.963.366-3.827.702-5.602 1.19-6.3 3.623-11.47 6.54-15.909 2.92-4.439 6.313-8.146 9.377-11.605 3.064-3.459 5.8-6.673 7.416-10.197 1.616-3.524 2.13-7.367.616-12.05-1.153-3.567-3.753-5.794-6.997-6.89s-7.112-1.053-10.622-.15zm-89.998 31.45c-3.05 1.366-5.397 3.47-6.216 5.957-.818 2.486-.102 5.34 2.758 8.29 4.021 4.145 8.39 6.432 13.175 7.846 4.783 1.415 10.003 1.956 15.733 2.595 5.73.64 11.98 1.381 18.609 3.189 6.629 1.807 13.63 4.685 20.655 9.544-2.449-4.339-6.177-7.49-10.703-9.892-4.526-2.403-9.833-4.052-15.283-5.476-5.45-1.423-11.04-2.62-16.14-4.259-5.1-1.639-9.726-3.723-13.188-7.035-2.05-1.96-1.835-4.267.06-5.934 1.896-1.666 5.474-2.675 9.83-1.962-2.2-2.618-5.462-4.04-8.976-4.444s-7.265.216-10.315 1.582zm223.97-32.748c-3.622-.374-7.481.13-10.573 1.507-3.092 1.377-5.404 3.621-6.111 6.676 3.752-1.914 7.669-2.004 10.35-1.002 2.68 1.001 4.113 3.08 3.194 5.485-1.553 4.063-4.903 7.328-8.955 10.312-4.052 2.985-8.816 5.697-13.344 8.579-4.528 2.881-8.815 5.93-12.013 9.458-3.197 3.529-5.292 7.526-5.662 12.26 4.533-6.543 9.891-11.227 15.404-14.813 5.514-3.585 11.168-6.073 16.374-8.324 5.207-2.25 9.97-4.268 13.841-6.969 3.871-2.701 6.874-6.09 8.486-11.092 1.147-3.557.264-6.384-1.868-8.424s-5.501-3.28-9.123-3.654zm27.792 5.559c-3.045-.527-6.244-.352-8.987.727-2.744 1.08-5.02 3.06-6.318 6.113-2.084 4.906-1.79 8.967-.265 12.77s4.3 7.356 7.33 11.282c3.028 3.927 6.311 8.229 8.856 13.444 2.544 5.215 4.337 11.338 4.48 18.836.31-.541.592-1.096.843-1.636 1.954-4.19 2.184-8.368 1.374-12.526-.81-4.16-2.657-8.29-4.69-12.364-2.034-4.075-4.254-8.09-5.658-12.071-1.404-3.982-1.995-7.937-.587-11.892.86-2.417 3.535-3.659 6.516-3.51 2.981.149 6.24 1.692 8.111 4.737 1.667-3.258.944-6.388-1.247-8.884-2.19-2.497-5.844-4.347-9.758-5.024zm90.052 32.728c-3.004-1.295-6.666-1.853-10.11-1.413-3.444.44-6.66 1.877-8.858 4.503 4.318-.735 7.834.236 9.71 1.878 1.876 1.643 2.114 3.946.097 5.933-3.406 3.357-8.02 5.493-13.15 7.151-5.13 1.658-10.788 2.842-16.332 4.214-5.544 1.373-10.972 2.935-15.646 5.247-4.674 2.311-8.58 5.367-11.212 9.654 7.367-4.67 14.583-7.407 21.373-9.13 6.79-1.723 13.146-2.435 18.963-3.089 5.817-.653 11.098-1.249 15.888-2.74 4.79-1.491 9.105-3.876 12.973-8.116 2.751-3.015 3.365-5.874 2.504-8.322-.861-2.448-3.195-4.475-6.2-5.77zm-237.02-3.05c-1.92.385-3.65 1.273-4.803 2.722-1.154 1.448-1.732 3.456-1.389 6.08 2.316-2.491 4.95-2.977 6.82-2.557 1.87.421 2.985 1.74 2.516 2.831-2.645 6.158-6.974 9.69-10.889 12.976-3.915 3.288-7.402 6.324-8.133 11.179 2.835-3.472 6.235-6.144 9.648-8.36s6.839-3.977 9.785-5.693c2.945-1.716 5.417-3.39 6.972-5.47 1.556-2.077 2.206-4.565 1.44-7.88-.509-2.195-2.23-3.908-4.479-4.94-2.249-1.033-5.019-1.381-7.488-.887zm20.604-3.051c-2.542.248-4.948 1.363-6.538 2.964-1.59 1.601-2.36 3.683-1.785 5.868.87 3.3 2.64 5.429 5.062 6.918s5.505 2.34 9.059 3.09 7.583 1.407 11.819 2.487c4.236 1.08 8.679 2.586 12.944 4.998-2.89-4.307-7.601-6.125-12.814-8.057-5.213-1.933-10.905-3.977-16.304-8.941-.958-.88-.547-2.425.996-3.352 1.544-.926 4.241-1.229 7.606.422-1.872-5.073-6.09-6.784-10.046-6.397zm-101.06 31.002c-2.031 1.052-3.462 2.847-3.932 4.818-.47 1.972.017 4.114 1.697 5.909 2.538 2.71 5.181 4.073 8.042 4.636s5.947.326 9.395-.164 7.266-1.23 11.501-1.66c4.236-.432 8.893-.551 13.88.207-4.771-2.95-9.848-3.01-15.384-3.02-5.535-.011-11.505.02-18.82-2.707-1.298-.484-1.794-2.024-.986-3.376.809-1.352 2.948-2.519 6.745-2.139-4.403-3.966-8.978-4.14-12.138-2.504zm192.31-28.001c-3.883-.605-8.264.88-10.613 5.82 3.502-1.448 6.157-1.001 7.612 0 1.455 1.002 1.73 2.555.696 3.377-5.829 4.64-11.697 6.342-17.076 7.958-5.38 1.616-10.251 3.144-13.536 7.266 4.479-2.153 9.051-3.389 13.379-4.214 4.327-.825 8.41-1.24 12.027-1.785 3.616-.544 6.773-1.217 9.32-2.565s4.496-3.374 5.65-6.615c.763-2.145.18-4.258-1.251-5.936-1.432-1.679-3.712-2.918-6.208-3.306zm20.187 4.097c-2.412-.612-5.195-.403-7.524.511-2.328.915-4.196 2.53-4.893 4.69-1.052 3.26-.617 5.776.765 7.933 1.383 2.157 3.724 3.962 6.553 5.83 2.83 1.867 6.153 3.801 9.465 6.184 3.312 2.383 6.611 5.217 9.343 8.826-.51-4.9-3.88-8.098-7.614-11.574-3.734-3.476-7.825-7.224-9.973-13.496-.381-1.112.835-2.366 2.73-2.69s4.47.29 6.601 2.885c1.074-5.205-1.7-8.146-5.453-9.099zm81.092 29.725c-3.268-1.63-7.976-1.444-12.478 2.508 3.903-.355 6.112.807 6.968 2.156.857 1.348.38 2.887-.954 3.37-7.52 2.73-13.748 2.632-19.495 2.547-5.748-.085-11.001-.152-16.017 2.668 5.2-.608 10.04-.374 14.455.14 4.414.516 8.406 1.311 12.02 1.833 3.615.522 6.857.77 9.831.203s5.688-1.95 8.223-4.69c1.68-1.814 2.113-3.965 1.58-5.933-.532-1.97-2.032-3.754-4.133-4.802zm-199.23-5.823c-1.112.178-2.175.39-3.21.641-4.347 1.05-8.891 2.758-12.988 5.098-4.098 2.34-7.741 5.31-10.381 8.792-3.642 4.79-5.355 10.536-4.288 16.95-2.775-3.17-6.127-5.531-9.838-7.16-3.71-1.629-7.776-2.524-11.9-2.802-8.248-.555-16.673 1.408-22.999 4.367-3.992 1.868-7.9 4.692-11.093 8.155-3.194 3.463-5.667 7.558-6.984 11.897-1.317 4.339-1.481 8.912-.284 13.367 1.198 4.455 3.75 8.785 7.718 12.792 3.17 3.2 7.415 5.961 11.53 7.388 4.115 1.428 8.1 1.529 11.18-.783 3.599-2.702 5.063-5.827 5.146-8.99.082-3.163-1.235-6.344-3.207-8.922-1.83-2.392-4.498-4.338-7.244-5.399s-5.564-1.233-7.533-.177c-3.944 2.11-4.04 5.208-3.186 7.708.855 2.5 2.636 4.451 2.636 4.451-.493-2.75.228-5.403 2.604-6.311 2.026-.775 5.69 1.239 7.316 3.363 1.8 2.34 2.324 4.524 2.123 6.33-.202 1.806-1.132 3.242-2.35 4.116-2.503 1.8-5.574 1.874-8.632.92-3.058-.956-6.101-2.944-8.304-5.371-3.556-3.918-5.732-7.984-6.641-12.06-.909-4.075-.545-8.154.84-11.971 1.385-3.818 3.79-7.367 6.79-10.365a36.042 36.042 0 0110.192-7.11c3.324-1.538 7.35-2.68 11.626-3.2 4.276-.522 8.798-.42 13.084.444 4.286.865 8.328 2.491 11.716 4.94 3.388 2.45 6.117 5.716 7.945 9.83a14.826 14.826 0 01.083 11.835c-1.565 3.654-4.6 6.662-9.274 8.158-1.912.613-4.24.048-6.518-1.212-2.278-1.261-4.509-3.22-6.092-5.452-1.376-1.94-1.775-4.61-.971-6.763.803-2.152 2.829-3.782 6.03-3.54-1.966.327-2.571 3.375-.49 6.459.71 1.052 2.07 1.957 3.512 2.467s2.97.624 4.07.06c1.664-.854 2.641-2.205 3.031-3.763.39-1.557.188-3.32-.553-4.967-1.446-3.21-4.108-5.12-6.992-5.922-2.883-.8-5.963-.487-8.077.61-2.534 1.313-4.5 3.863-5.117 6.947s.115 6.686 2.641 10.193c2.008 2.787 5.22 5.065 8.47 6.468s6.543 1.938 8.975 1.076c4.124-1.461 7.168-3.927 9.153-7.059 1.985-3.131 2.91-6.931 2.513-10.967 3.405 3.711 7.768 6.082 12.415 6.807 3.182.493 6.516.2 9.93-1.024 2.124-.76 3.994-2.642 5.372-5.063 3.075-3.147 3.65-7.538 2.705-11.449-.65-2.692-2.233-5.279-4.3-7.172-2.068-1.894-4.621-3.09-7.025-3.033-1.76-.361-3.556-.389-5.137-.063-2.467.509-4.971 2.14-6.409 4.444-1.437 2.304-1.798 5.264-.289 8.44.775 1.63 2.016 3.016 3.523 3.895 1.506.878 3.276 1.25 5.18.841 1.258-.27 2.314-1.28 2.998-2.52.684-1.24.993-2.71.684-3.893-.761-2.919-2.94-4.594-4.657-4.487.795-.489 1.733-.749 2.763-.736 2.38.025 5.036 3.132 5.658 5.603.686 2.726.203 4.851-.822 6.378-1.024 1.526-2.598 2.459-4.21 2.798-3.52.745-6.826-.477-9.56-2.655-2.415-1.92-4.37-4.585-5.371-7.324-1.299-3.55-1.734-6.893-1.383-10.008.635-5.686 3.93-10.617 8.795-14.424 4.867-3.807 11.274-6.46 17.57-7.758a51.518 51.518 0 0112.824.406c4.29.689 8.444 1.962 12.046 3.848 3.603 1.886 6.65 4.381 8.818 7.478a19.944 19.944 0 012.525 4.956c.657 1.885 1.058 3.928 1.183 6.13.122 2.164-.315 4.451-1.217 6.524a14.377 14.377 0 01-1.31 2.394c-1.762 2.589-4.345 4.483-7.776 4.805a7.578 7.578 0 01-5.104-1.382c-1.573-1.13-2.868-2.982-3.31-5.739-.4-2.499.847-6.185 3.096-6.904a5.464 5.464 0 012.926-.12c-1.675.402-3.054 2.607-2.603 5.564.183 1.2 1.064 2.486 2.207 3.446 1.144.96 2.55 1.595 3.856 1.479 1.98-.179 3.526-1.048 4.619-2.313 1.092-1.264 1.727-2.926 1.809-4.675.16-3.411-1.41-6.068-3.74-7.8-2.33-1.733-5.4-2.528-7.954-2.285-1.638.155-3.328.703-4.842 1.554-2.298.646-4.209 2.509-5.38 4.886-1.173 2.377-1.612 5.266-1.148 7.984.673 3.948 2.926 7.909 7.056 9.956 2.241 1.866 4.735 3.08 7.049 3.163 4.002.146 7.52-.688 10.516-2.304.598-.32 1.175-.67 1.73-1.05 3.381-2.303 5.99-5.67 7.37-9.757 1.026 4.355 3.47 8.025 6.829 10.592 3.144 2.388 7.12 3.79 11.9 3.895 2.35.052 5.005-1.009 7.423-2.734 4.356-1.79 6.907-5.613 7.877-9.512.668-2.684.431-5.586-.578-8.02s-2.795-4.395-5.062-5.176c-1.46-.938-3.1-1.62-4.735-1.872-2.55-.393-5.702.226-8.188 1.826s-4.284 4.167-4.401 7.578c-.06 1.749.445 3.444 1.445 4.77 1 1.326 2.49 2.283 4.47 2.575 1.307.192 2.772-.36 3.997-1.25s2.21-2.123 2.489-3.307c.686-2.922-.506-5.192-2.16-5.691a5.518 5.518 0 012.938.29c2.211.85 3.207 4.57 2.611 7.038-.657 2.723-2.112 4.499-3.793 5.539a7.86 7.86 0 01-5.273 1.091c-3.44-.52-5.893-2.558-7.46-5.242s-2.229-6.013-1.806-9.04c.596-4.269 2.195-7.878 4.626-10.84 2.43-2.962 5.69-5.273 9.456-6.943 3.765-1.67 8.032-2.696 12.393-3.135 4.36-.44 8.81-.292 12.929.323 3.986 1.05 8.002 2.642 11.618 4.72 3.615 2.079 6.827 4.641 9.256 7.585 2.43 2.944 4.076 6.265 4.65 9.859.573 3.593.074 7.454-1.67 11.527-1.233 2.884-3.612 5.618-6.484 7.405s-6.227 2.634-9.673 1.72c-1.677-.444-3.277-1.488-4.262-3.091-.985-1.604-1.364-3.77-.495-6.458.795-2.435 3.705-5.378 6.172-5.262 1.067.05 2.03.369 2.83.904-1.777-.208-4.115 1.357-5.066 4.236-.386 1.168-.151 2.66.492 3.946.644 1.285 1.694 2.365 3.001 2.715a7.83 7.83 0 005.505-.52 8.913 8.913 0 003.887-3.7c1.715-3.109 1.456-6.116.068-8.52s-3.894-4.19-6.414-4.84c-1.615-.42-3.49-.484-5.323-.225-2.471-.197-5.173.845-7.423 2.612-2.25 1.767-4.05 4.253-4.894 6.904-1.227 3.852-.927 8.284 2.097 11.635 1.298 2.514 3.181 4.53 5.38 5.434 4.557 1.875 9.117 2.197 13.395 1.231a22.345 22.345 0 0011.408-6.582c-.667 4.144.177 8.134 2.28 11.494 2.101 3.36 5.462 6.094 10.112 7.817 2.689.997 6.34.625 9.912-.651 3.572-1.276 7.072-3.46 9.213-6.221 2.694-3.475 3.386-7.12 2.653-10.277-.733-3.157-2.887-5.81-5.614-7.226-2.273-1.182-5.562-1.604-8.652-.906-3.09.699-5.96 2.515-7.556 5.69-.818 1.63-1.062 3.393-.659 4.98.403 1.586 1.45 2.993 3.26 3.937 2.392 1.244 6.728-.1 8.258-2.175 2.242-3.042 1.55-6.175-.57-6.585 3.452-.118 5.658 1.602 6.568 3.811.909 2.21.536 4.905-.938 6.823-1.695 2.206-4.118 4.108-6.615 5.29-2.497 1.183-5.066 1.648-7.175.935-5.152-1.743-8.438-4.967-10.075-8.756-1.636-3.789-1.605-8.145.329-11.964 2.054-4.056 5.034-7.21 8.672-9.525 3.638-2.314 7.929-3.784 12.46-4.503 4.533-.718 9.3-.683 13.828-.052 4.528.631 8.814 1.856 12.397 3.454a43.974 43.974 0 0111.209 7.262c3.395 3.034 6.255 6.605 8.094 10.448 1.839 3.842 2.655 7.952 2.073 12.075-.582 4.123-2.563 8.256-6.196 12.237-2.25 2.466-5.54 4.496-8.98 5.458s-7.027.861-10.068-1.005c-1.48-.907-2.666-2.381-3.03-4.218-.365-1.837.085-4.042 1.962-6.385 1.7-2.124 5.664-4.113 8.005-3.309 2.745.942 3.83 3.608 3.527 6.392 0 0 1.843-1.967 2.581-4.493.739-2.526.34-5.65-4.205-7.816-2.27-1.085-5.392-.94-8.395.092-3.004 1.032-5.884 2.949-7.812 5.332-2.077 2.57-3.4 5.757-3.116 8.968.284 3.211 2.153 6.429 6.555 9.246 3.766 2.41 8.45 2.363 13.104.939 4.654-1.425 9.266-4.235 12.527-7.496 4.083-4.084 6.422-8.492 7.247-13.001.825-4.51.134-9.111-1.707-13.467-1.842-4.357-4.835-8.461-8.47-11.948-3.634-3.487-7.906-6.353-12.192-8.283-6.995-3.15-16.19-5.336-25.108-4.887-4.46.225-8.84 1.1-12.83 2.766-3.99 1.667-7.587 4.124-10.56 7.48.948-4.019.776-7.82-.317-11.342-1.092-3.521-3.106-6.759-5.75-9.623-5.288-5.729-13.13-9.912-20.516-12.12a46.642 46.642 0 00-6.571-1.43 46.716 46.716 0 00-6.666-1.3c-5.367-.628-11.479-.522-17.339.628-5.86 1.15-11.448 3.345-15.832 6.695-4.104 3.1-7.16 7.187-8.683 12.293a22.612 22.612 0 00-5.23-10.65 26.768 26.768 0 00-4.377-3.977 33.514 33.514 0 00-5.412-3.22c-3.813-1.826-8.073-3.073-12.37-3.79a56.934 56.934 0 00-12.59-.666 45.992 45.992 0 00-6.644.907c-1.17.103-2.33.249-3.441.428zm-24.519 19.806c-1.832 4.986-1.714 10.495.781 16.312 2.024 4.717 5.967 9.425 10.398 12.074.66.395 1.333.744 2.016 1.04a17.41 17.41 0 01-1.768-.37 18.67 18.67 0 01-6.876-3.488c-2.015-1.614-3.697-3.636-4.809-5.934-1.703-3.52-2.47-6.962-2.384-10.264.085-3.303 1.022-6.463 2.642-9.37zm63.171-9.425a27.174 27.174 0 011.79 1.568c1.804 1.712 3.31 3.633 4.437 5.746 1.483 2.783 2.304 5.897 2.346 9.313.01.532-.036 1.06-.067 1.607-.154 2.757-1.151 5.404-2.74 7.677a16.708 16.708 0 01-4.054 4.07c-.721.514-1.49.974-2.303 1.373a16.3 16.3 0 002.307-2.55c1.033-1.39 1.904-2.965 2.595-4.63 1.162-2.8 1.817-5.861 1.823-8.732.01-5.143-1.545-9.59-4.345-13.316a23.848 23.848 0 00-1.79-2.126zm23.597.996c-1.567 1.431-2.925 3.02-4.034 4.761-1.91 2.975-3.085 6.4-3.4 10.281-.29 3.587.415 7.533 1.92 10.943.89 2.026 2.063 3.858 3.518 5.316a15.77 15.77 0 01-3.686-2.867c-2.772-2.915-4.412-6.786-4.306-10.768.152-5.75 2.348-10.558 6.057-14.349a26.412 26.412 0 013.931-3.316zm63.54 13.013c1.435 2.787 2.282 5.766 2.38 8.841.096 3.075-.557 6.246-2.064 9.444-.232.5-.513.98-.79 1.478-1.389 2.519-3.524 4.662-6.056 6.243a19.293 19.293 0 01-8.537 2.866c2.833-.976 5.553-2.764 7.917-4.973 2.363-2.209 4.367-4.84 5.683-7.509 2.824-5.726 3.14-11.286 1.467-16.39z" fill="url(#g)" transform="matrix(.34978 -.00803 .00743 .32352 28.025 -293.45)"/>
    <path d="M187.91 1205c-3.296.29-6.727 1.31-9.875 2.75a1.498 1.498 0 000 .031c-3.004 1.415-5.68 3.19-7.75 5.094-3.945 3.628-5.994 7.387-6.563 10.969-.567 3.578.349 6.925 2.032 9.75 1.682 2.823 4.113 5.214 6.844 7.187 2.73 1.973 5.766 3.51 8.75 4.594 3.49 1.269 7.613 2.34 11.937 3.031a53.01 53.01 0 0011.47.594c-.194.055-.401.102-.594.156-2.333.657-4.656 1.194-7.094 1.438a1.498 1.498 0 00-.813.344 1.498 1.498 0 00-.562-.095 1.498 1.498 0 00-.063 0c-3.26.052-6.202-.169-8.937-.437-2.737-.268-5.276-.583-7.688-.656-2.416-.074-4.708.105-6.875.937-2.174.835-4.184 2.37-5.78 4.75-1.048 1.562-1.388 3.313-1.032 4.844.357 1.536 1.39 2.777 2.719 3.5 1.008.548 2.24.678 3.5.563-.65.227-1.435.485-2.063.718-3.165 1.178-6.049 2.474-8.593 4.375-2.551 1.906-4.72 4.464-6.25 8-1.167 2.695-1.155 5.113-.188 6.906.973 1.805 2.813 2.755 4.719 3.032 1.703.247 3.51-.07 5.219-.813-.7.603-1.496 1.242-2.157 1.844-4.11 3.743-7.47 7.571-9.28 12.656a24.515 24.515 0 00-1.157 4.656c-.4 2.699.179 4.97 1.469 6.531s3.163 2.345 5.062 2.5c2.022.166 4.134-.381 5.875-1.5-.887 1.82-1.737 3.469-2.75 5.844-2.176 5.103-2.972 10.59-3.375 15.281-.403 4.697-.418 8.76-.718 10.531a1.498 1.498 0 002.812.875c10.363-22.306 15.411-42.147 24.25-60 4.026-8.391 9.08-16.578 15.656-24.062 3.687-4.208 7.904-8.218 12.531-11.969a1.498 1.498 0 00.156-2.156c3.124-.93 6.222-2.206 9.282-4.344 3.582-2.503 5.807-5.915 5.937-9.687.13-3.775-1.863-7.745-6.125-10.812-2.323-1.673-5.694-2.324-9.219-2.188-3.525.136-7.137 1.084-9.781 2.875-3.207 2.173-4.747 5.029-4.75 7.719-.003 2.68 1.453 5.025 3.5 6.5 1.768 1.274 4.215 2 6.844 2.094 2.634.094 5.531-.5 7.906-2.375 1.272-1.005 2.185-2.347 2.406-3.907.222-1.56-.397-3.293-1.812-4.562-1.188-1.062-2.763-1.4-4.344-1.437-1.585-.039-3.133.264-4.375 1.062-1.245.8-2.01 1.805-2.406 2.906-.268-.316-.508-.661-.563-1-.137-.852.364-2.048 1.531-2.812 1.616-1.058 3.835-1.846 5.907-2.094 2.077-.248 4 .073 5.03.75 3.305 2.17 4.418 4.7 4.407 6.938-.01 2.24-1.196 4.316-3.375 5.874-3.704 2.65-7.854 3.866-12.344 4.282-4.492.415-9.258.028-13.719-.782a1.498 1.498 0 00-.031 0c-3.015-.536-5.827-1.274-8.156-2.156-2.524-.955-5.131-2.245-7.438-3.844-2.313-1.602-4.335-3.494-5.656-5.562-1.321-2.068-1.975-4.278-1.625-6.781.35-2.506 1.728-5.363 4.937-8.438 1.3-1.246 3.183-2.485 5.282-3.406 1.973-.84 4.08-1.4 6.062-1.531 1.986-.132 3.837.16 5.281.875.967.478 1.427 1.12 1.47 1.719.042.617-.285 1.634-2.032 3.03-.668.535-1.931 1.197-3.188 1.626-1.265.431-2.57.57-3.03.469-.454-.1-.8-.244-1.032-.407-.547-.378-.713-.807-.594-1.656.001-.01.054-.143.094-.312a1.498 1.498 0 00-2.375-1.563l-.281.25c-.661.598-2.356 2.172-3.031 4.406-.338 1.116-.318 2.528.437 3.719.76 1.199 2.09 2.035 3.969 2.625.948.298 1.925.386 2.969.375 2.127 0 4.443-.497 6.687-1.25 2.249-.755 4.427-1.778 6.219-3.094 2.367-1.737 4.448-3.999 4.812-6.843.183-1.422-.161-2.966-1.062-4.375-.912-1.426-2.382-2.717-4.469-3.875-2.58-1.434-5.705-1.884-9-1.594zm7.938 48.844c-.017.443.017.823-.22 1.687-.004.02-.025.074-.03.094a1.498 1.498 0 00-1.75-.28c-5.099 2.594-9.455 4.434-13.438 5.905-1.832.677-3.344 1.18-5.032 1.75.848-.564 1.697-1.313 2.532-2.218a1.498 1.498 0 00-1.438-2.47c-2.008.496-2.597.01-2.625-.03-.02-.03.012-.11.094-.156 2.144-1.232 4.117-1.921 6-2.313 1.88-.391 3.672-.488 5.437-.531 1.764-.043 3.491-.022 5.281-.187 1.675-.156 3.4-.565 5.188-1.25zm-2 5.687c-.464 1.015-.565 1.593-1.282 2.907-.064.118-.214.348-.281.468a1.498 1.498 0 00-1.625.313 518.128 518.128 0 01-7.5 7.125 260.84 260.84 0 01-6.5 5.875c-2.745 2.373-5.309 4.485-7.719 6.469-.06.05-.096.107-.156.156.303-.443.664-.803.906-1.313a1.498 1.498 0 00-2.031-2c-1.762.903-2.997.724-3.437.438-.22-.143-.303-.274-.344-.5-.042-.226-.02-.602.281-1.156 1.726-3.188 4.879-5.59 8.625-7.594 3.702-1.98 7.944-3.497 11.969-5.344 3.268-1.499 6.385-3.282 9.094-5.844zm-10.282 18c-1.04 1.782-2.119 3.633-2.968 5.188-2.722 4.857-4.735 8.72-6.47 11.937a499.157 499.157 0 01-4.562 8.25c-.863 1.536-1.657 3.049-2.468 4.563a1.498 1.498 0 00-1.063-.407c-2.418.053-3.416-.623-3.844-1.5-.43-.881-.336-2.507.625-4.406 2.114-4.175 4.874-7.586 7.938-10.781 3.063-3.195 6.399-6.142 9.719-9.406 1.045-1.04 2.054-2.305 3.093-3.438z" stroke="#693d00" stroke-width=".5" fill="url(#h)" transform="matrix(.34963 -.0128 .0126 .32338 17.667 -312.8)"/>
    <path fill="url(#i)" d="M171.27 1214c-3.755 3.454-5.564 6.922-6.072 10.118-.507 3.196.287 6.134 1.833 8.73 1.546 2.595 3.846 4.856 6.45 6.738s5.513 3.389 8.373 4.428c3.389 1.232 7.436 2.287 11.667 2.964 4.56.74 9.287 1.053 13.934.434 4.646-.62 9.223-2.182 13.745-5.34 3.3-2.306 5.16-5.306 5.272-8.532.11-3.226-1.545-6.697-5.501-9.545-1.878-1.352-5.015-2.018-8.297-1.891-3.281.126-6.69 1.054-8.996 2.616-2.902 1.966-4.072 4.341-4.074 6.476-.002 2.134 1.141 4.045 2.853 5.279 1.428 1.029 3.687 1.739 6.056 1.824 2.368.085 4.855-.455 6.889-2.06 1.043-.825 1.73-1.855 1.884-2.94.154-1.084-.225-2.225-1.35-3.234-.745-.665-2.045-1.011-3.376-1.043-1.33-.032-2.688.25-3.526.788-2.455 1.577-2.588 3.704-1.107 4.31-2.595-.485-3.899-1.845-4.147-3.391-.248-1.546.58-3.269 2.176-4.314 1.837-1.203 4.242-2.054 6.558-2.33 2.317-.277 4.536.017 6.023.993 3.636 2.386 5.105 5.394 5.092 8.167s-1.495 5.333-3.99 7.118c-3.961 2.833-8.439 4.122-13.114 4.555-4.676.432-9.57.024-14.13-.803-3.084-.55-5.986-1.304-8.434-2.23-2.628-.995-5.322-2.362-7.745-4.041-2.424-1.68-4.58-3.676-6.05-5.978-1.47-2.302-2.257-4.915-1.854-7.803.403-2.887 1.996-6.06 5.39-9.311 1.461-1.4 3.456-2.709 5.698-3.693 2.104-.896 4.39-1.493 6.58-1.638 2.192-.146 4.287.158 6.03 1.022 1.301.643 2.214 1.693 2.302 2.957.089 1.264-.64 2.731-2.6 4.297-.889.71-2.254 1.404-3.645 1.879s-2.812.729-3.816.51c-.627-.137-1.144-.357-1.555-.645-1.02-.705-1.395-1.834-1.217-3.095.02-.139.046-.279.079-.42 0 0-.068.055-.182.158-.538.485-2.094 2.023-2.598 3.69-.252.834-.246 1.697.247 2.474s1.47 1.469 3.15 1.996c.737.232 1.597.331 2.535.322 1.894 0 4.088-.438 6.214-1.151 2.126-.714 4.188-1.708 5.815-2.902 2.188-1.607 3.91-3.62 4.191-5.817.14-1.098-.081-2.244-.815-3.392-.734-1.148-1.98-2.301-3.912-3.374-2.238-1.244-5.105-1.651-8.181-1.38-3.076.27-6.355 1.221-9.372 2.6-2.875 1.354-5.443 3.069-7.38 4.85zm-3.673 42.306c-.853 1.272-1.057 2.566-.801 3.666.256 1.1.969 2.009 1.954 2.545.986.535 2.242.7 3.622.314 1.38-.385 2.88-1.32 4.431-3.002-2.318.57-3.627.093-4.162-.678-.535-.77-.279-1.826.534-2.293a21.635 21.635 0 016.458-2.466c2.019-.42 3.903-.526 5.697-.57 1.794-.044 3.498-.025 5.19-.181s3.365-.488 5.142-1.217l.069-.028h-.08c-3.34.053-6.345-.173-9.108-.444s-5.279-.584-7.588-.655c-2.309-.07-4.41.104-6.31.833-1.9.73-3.602 2.018-5.048 4.175zm-11.59 21.75c-1.043 2.409-.976 4.277-.267 5.591s2.061 2.077 3.633 2.306c1.571.228 3.362-.075 4.98-.909a8.898 8.898 0 003.989-4.137c-2.083 1.067-3.865 1.05-4.93.36-1.065-.691-1.407-2.061-.553-3.638 1.936-3.574 5.33-6.12 9.202-8.192 3.835-2.051 8.124-3.597 12.07-5.407 3.944-1.81 7.538-3.888 10.4-7.313-5.152 2.622-9.562 4.495-13.593 5.984-4.03 1.488-7.659 2.599-10.923 3.813-3.11 1.157-5.878 2.391-8.245 4.16-2.367 1.769-4.33 4.073-5.763 7.382zm-1.676 23.548a23.078 23.078 0 00-1.085 4.382c-.708 4.773 2.032 7.05 5.187 7.31 3.154.258 6.674-1.45 7.615-4.683-2.758.06-4.467-.859-5.198-2.36-.73-1.5-.49-3.574.605-5.735 2.203-4.35 5.076-7.897 8.196-11.15 3.12-3.255 6.475-6.208 9.757-9.437 2.1-2.088 4.182-4.306 6.22-6.842 2.037-2.536 4.029-5.39 6.046-8.772a528.905 528.905 0 01-7.486 7.15 262.259 262.259 0 01-6.563 5.917c-2.76 2.386-5.342 4.51-7.753 6.495s-4.649 3.83-6.665 5.667c-4.033 3.674-7.181 7.299-8.876 12.058zm42.884-49.463s.156.272.21.887c.055.615.003 1.57-.37 2.938-.469 1.71-1.455 4.053-3.192 7.24s-4.225 7.212-7.447 12.46a176.753 176.753 0 00-4.516 7.824c-2.71 4.837-4.715 8.694-6.457 11.925a504.161 504.161 0 01-4.554 8.252c-1.357 2.413-2.61 4.634-3.902 7.145-1.293 2.51-2.618 5.309-4.162 8.929-2.075 4.864-2.87 10.18-3.267 14.803-.397 4.625-.392 8.56-.745 10.64 10.298-22.164 15.332-41.967 24.265-60.011 4.073-8.49 9.18-16.8 15.864-24.405 3.75-4.281 8.026-8.341 12.71-12.138-2.39.585-4.733 1.34-7.104 2.009-2.37.667-4.767 1.246-7.334 1.502z" transform="matrix(.34963 -.0128 .0126 .32338 17.667 -312.8)"/>
    <g>
      <path d="M187.91 1205c-3.296.29-6.727 1.31-9.875 2.75a1.498 1.498 0 000 .031c-3.004 1.415-5.68 3.19-7.75 5.094-3.945 3.628-5.994 7.387-6.563 10.969-.567 3.578.349 6.925 2.032 9.75 1.682 2.823 4.113 5.214 6.844 7.187 2.73 1.973 5.766 3.51 8.75 4.594 3.49 1.269 7.613 2.34 11.937 3.031a53.01 53.01 0 0011.47.594c-.194.055-.401.102-.594.156-2.333.657-4.656 1.194-7.094 1.438a1.498 1.498 0 00-.813.344 1.498 1.498 0 00-.562-.095 1.498 1.498 0 00-.063 0c-3.26.052-6.202-.169-8.937-.437-2.737-.268-5.276-.583-7.688-.656-2.416-.074-4.708.105-6.875.937-2.174.835-4.184 2.37-5.78 4.75-1.048 1.562-1.388 3.313-1.032 4.844.357 1.536 1.39 2.777 2.719 3.5 1.008.548 2.24.678 3.5.563-.65.227-1.435.485-2.063.718-3.165 1.178-6.049 2.474-8.593 4.375-2.551 1.906-4.72 4.464-6.25 8-1.167 2.695-1.155 5.113-.188 6.906.973 1.805 2.813 2.755 4.719 3.032 1.703.247 3.51-.07 5.219-.813-.7.603-1.496 1.242-2.157 1.844-4.11 3.743-7.47 7.571-9.28 12.656a24.515 24.515 0 00-1.157 4.656c-.4 2.699.179 4.97 1.469 6.531s3.163 2.345 5.062 2.5c2.022.166 4.134-.381 5.875-1.5-.887 1.82-1.737 3.469-2.75 5.844-2.176 5.103-2.972 10.59-3.375 15.281-.403 4.697-.418 8.76-.718 10.531a1.498 1.498 0 002.812.875c10.363-22.306 15.411-42.147 24.25-60 4.026-8.391 9.08-16.578 15.656-24.062 3.687-4.208 7.904-8.218 12.531-11.969a1.498 1.498 0 00.156-2.156c3.124-.93 6.222-2.206 9.282-4.344 3.582-2.503 5.807-5.915 5.937-9.687.13-3.775-1.863-7.745-6.125-10.812-2.323-1.673-5.694-2.324-9.219-2.188-3.525.136-7.137 1.084-9.781 2.875-3.207 2.173-4.747 5.029-4.75 7.719-.003 2.68 1.453 5.025 3.5 6.5 1.768 1.274 4.215 2 6.844 2.094 2.634.094 5.531-.5 7.906-2.375 1.272-1.005 2.185-2.347 2.406-3.907.222-1.56-.397-3.293-1.812-4.562-1.188-1.062-2.763-1.4-4.344-1.437-1.585-.039-3.133.264-4.375 1.062-1.245.8-2.01 1.805-2.406 2.906-.268-.316-.508-.661-.563-1-.137-.852.364-2.048 1.531-2.812 1.616-1.058 3.835-1.846 5.907-2.094 2.077-.248 4 .073 5.03.75 3.305 2.17 4.418 4.7 4.407 6.938-.01 2.24-1.196 4.316-3.375 5.874-3.704 2.65-7.854 3.866-12.344 4.282-4.492.415-9.258.028-13.719-.782a1.498 1.498 0 00-.031 0c-3.015-.536-5.827-1.274-8.156-2.156-2.524-.955-5.131-2.245-7.438-3.844-2.313-1.602-4.335-3.494-5.656-5.562-1.321-2.068-1.975-4.278-1.625-6.781.35-2.506 1.728-5.363 4.937-8.438 1.3-1.246 3.183-2.485 5.282-3.406 1.973-.84 4.08-1.4 6.062-1.531 1.986-.132 3.837.16 5.281.875.967.478 1.427 1.12 1.47 1.719.042.617-.285 1.634-2.032 3.03-.668.535-1.931 1.197-3.188 1.626-1.265.431-2.57.57-3.03.469-.454-.1-.8-.244-1.032-.407-.547-.378-.713-.807-.594-1.656.001-.01.054-.143.094-.312a1.498 1.498 0 00-2.375-1.563l-.281.25c-.661.598-2.356 2.172-3.031 4.406-.338 1.116-.318 2.528.437 3.719.76 1.199 2.09 2.035 3.969 2.625.948.298 1.925.386 2.969.375 2.127 0 4.443-.497 6.687-1.25 2.249-.755 4.427-1.778 6.219-3.094 2.367-1.737 4.448-3.999 4.812-6.843.183-1.422-.161-2.966-1.062-4.375-.912-1.426-2.382-2.717-4.469-3.875-2.58-1.434-5.705-1.884-9-1.594zm7.938 48.844c-.017.443.017.823-.22 1.687-.004.02-.025.074-.03.094a1.498 1.498 0 00-1.75-.28c-5.099 2.594-9.455 4.434-13.438 5.905-1.832.677-3.344 1.18-5.032 1.75.848-.564 1.697-1.313 2.532-2.218a1.498 1.498 0 00-1.438-2.47c-2.008.496-2.597.01-2.625-.03-.02-.03.012-.11.094-.156 2.144-1.232 4.117-1.921 6-2.313 1.88-.391 3.672-.488 5.437-.531 1.764-.043 3.491-.022 5.281-.187 1.675-.156 3.4-.565 5.188-1.25zm-2 5.687c-.464 1.015-.565 1.593-1.282 2.907-.064.118-.214.348-.281.468a1.498 1.498 0 00-1.625.313 518.128 518.128 0 01-7.5 7.125 260.84 260.84 0 01-6.5 5.875c-2.745 2.373-5.309 4.485-7.719 6.469-.06.05-.096.107-.156.156.303-.443.664-.803.906-1.313a1.498 1.498 0 00-2.031-2c-1.762.903-2.997.724-3.437.438-.22-.143-.303-.274-.344-.5-.042-.226-.02-.602.281-1.156 1.726-3.188 4.879-5.59 8.625-7.594 3.702-1.98 7.944-3.497 11.969-5.344 3.268-1.499 6.385-3.282 9.094-5.844zm-10.282 18c-1.04 1.782-2.119 3.633-2.968 5.188-2.722 4.857-4.735 8.72-6.47 11.937a499.157 499.157 0 01-4.562 8.25c-.863 1.536-1.657 3.049-2.468 4.563a1.498 1.498 0 00-1.063-.407c-2.418.053-3.416-.623-3.844-1.5-.43-.881-.336-2.507.625-4.406 2.114-4.175 4.874-7.586 7.938-10.781 3.063-3.195 6.399-6.142 9.719-9.406 1.045-1.04 2.054-2.305 3.093-3.438z" stroke="#693d00" stroke-width=".5" fill="url(#h)" transform="matrix(-.34946 -.01427 -.01668 .32332 303.352 -312.655)"/>
      <path d="M171.27 1214c-3.755 3.454-5.564 6.922-6.072 10.118-.507 3.196.287 6.134 1.833 8.73 1.546 2.595 3.846 4.856 6.45 6.738s5.513 3.389 8.373 4.428c3.389 1.232 7.436 2.287 11.667 2.964 4.56.74 9.287 1.053 13.934.434 4.646-.62 9.223-2.182 13.745-5.34 3.3-2.306 5.16-5.306 5.272-8.532.11-3.226-1.545-6.697-5.501-9.545-1.878-1.352-5.015-2.018-8.297-1.891-3.281.126-6.69 1.054-8.996 2.616-2.902 1.966-4.072 4.341-4.074 6.476-.002 2.134 1.141 4.045 2.853 5.279 1.428 1.029 3.687 1.739 6.056 1.824 2.368.085 4.855-.455 6.889-2.06 1.043-.825 1.73-1.855 1.884-2.94.154-1.084-.225-2.225-1.35-3.234-.745-.665-2.045-1.011-3.376-1.043-1.33-.032-2.688.25-3.526.788-2.455 1.577-2.588 3.704-1.107 4.31-2.595-.485-3.899-1.845-4.147-3.391-.248-1.546.58-3.269 2.176-4.314 1.837-1.203 4.242-2.054 6.558-2.33 2.317-.277 4.536.017 6.023.993 3.636 2.386 5.105 5.394 5.092 8.167s-1.495 5.333-3.99 7.118c-3.961 2.833-8.439 4.122-13.114 4.555-4.676.432-9.57.024-14.13-.803-3.084-.55-5.986-1.304-8.434-2.23-2.628-.995-5.322-2.362-7.745-4.041-2.424-1.68-4.58-3.676-6.05-5.978-1.47-2.302-2.257-4.915-1.854-7.803.403-2.887 1.996-6.06 5.39-9.311 1.461-1.4 3.456-2.709 5.698-3.693 2.104-.896 4.39-1.493 6.58-1.638 2.192-.146 4.287.158 6.03 1.022 1.301.643 2.214 1.693 2.302 2.957.089 1.264-.64 2.731-2.6 4.297-.889.71-2.254 1.404-3.645 1.879s-2.812.729-3.816.51c-.627-.137-1.144-.357-1.555-.645-1.02-.705-1.395-1.834-1.217-3.095.02-.139.046-.279.079-.42 0 0-.068.055-.182.158-.538.485-2.094 2.023-2.598 3.69-.252.834-.246 1.697.247 2.474s1.47 1.469 3.15 1.996c.737.232 1.597.331 2.535.322 1.894 0 4.088-.438 6.214-1.151 2.126-.714 4.188-1.708 5.815-2.902 2.188-1.607 3.91-3.62 4.191-5.817.14-1.098-.081-2.244-.815-3.392-.734-1.148-1.98-2.301-3.912-3.374-2.238-1.244-5.105-1.651-8.181-1.38-3.076.27-6.355 1.221-9.372 2.6-2.875 1.354-5.443 3.069-7.38 4.85zm-3.673 42.306c-.853 1.272-1.057 2.566-.801 3.666.256 1.1.969 2.009 1.954 2.545.986.535 2.242.7 3.622.314 1.38-.385 2.88-1.32 4.431-3.002-2.318.57-3.627.093-4.162-.678-.535-.77-.279-1.826.534-2.293a21.635 21.635 0 016.458-2.466c2.019-.42 3.903-.526 5.697-.57 1.794-.044 3.498-.025 5.19-.181s3.365-.488 5.142-1.217l.069-.028h-.08c-3.34.053-6.345-.173-9.108-.444s-5.279-.584-7.588-.655c-2.309-.07-4.41.104-6.31.833-1.9.73-3.602 2.018-5.048 4.175zm-11.59 21.75c-1.043 2.409-.976 4.277-.267 5.591s2.061 2.077 3.633 2.306c1.571.228 3.362-.075 4.98-.909a8.898 8.898 0 003.989-4.137c-2.083 1.067-3.865 1.05-4.93.36-1.065-.691-1.407-2.061-.553-3.638 1.936-3.574 5.33-6.12 9.202-8.192 3.835-2.051 8.124-3.597 12.07-5.407 3.944-1.81 7.538-3.888 10.4-7.313-5.152 2.622-9.562 4.495-13.593 5.984-4.03 1.488-7.659 2.599-10.923 3.813-3.11 1.157-5.878 2.391-8.245 4.16-2.367 1.769-4.33 4.073-5.763 7.382zm-1.676 23.548a23.078 23.078 0 00-1.085 4.382c-.708 4.773 2.032 7.05 5.187 7.31 3.154.258 6.674-1.45 7.615-4.683-2.758.06-4.467-.859-5.198-2.36-.73-1.5-.49-3.574.605-5.735 2.203-4.35 5.076-7.897 8.196-11.15 3.12-3.255 6.475-6.208 9.757-9.437 2.1-2.088 4.182-4.306 6.22-6.842 2.037-2.536 4.029-5.39 6.046-8.772a528.905 528.905 0 01-7.486 7.15 262.259 262.259 0 01-6.563 5.917c-2.76 2.386-5.342 4.51-7.753 6.495s-4.649 3.83-6.665 5.667c-4.033 3.674-7.181 7.299-8.876 12.058zm42.884-49.463s.156.272.21.887c.055.615.003 1.57-.37 2.938-.469 1.71-1.455 4.053-3.192 7.24s-4.225 7.212-7.447 12.46a176.753 176.753 0 00-4.516 7.824c-2.71 4.837-4.715 8.694-6.457 11.925a504.161 504.161 0 01-4.554 8.252c-1.357 2.413-2.61 4.634-3.902 7.145-1.293 2.51-2.618 5.309-4.162 8.929-2.075 4.864-2.87 10.18-3.267 14.803-.397 4.625-.392 8.56-.745 10.64 10.298-22.164 15.332-41.967 24.265-60.011 4.073-8.49 9.18-16.8 15.864-24.405 3.75-4.281 8.026-8.341 12.71-12.138-2.39.585-4.733 1.34-7.104 2.009-2.37.667-4.767 1.246-7.334 1.502z" fill="url(#i)" transform="matrix(-.34946 -.01427 -.01668 .32332 303.352 -312.655)"/>
    </g>
  </g>
  <text stroke-linejoin="round" font-size="144" font-family="ButterFly" fill="#112b00" style="text-align:end" stroke="#122a0b" y="3045.041" x="-716.908" font-weight="500" stroke-width="2" text-anchor="end" transform="translate(-179.95 -877.14)">
    
  </text>
  <text stroke-linejoin="round" font-size="144" font-family="ButterFly" fill="#112b00" style="text-align:end" stroke="#122a0b" y="1406.67" x="-2202.654" font-weight="500" stroke-width="2" text-anchor="end" transform="translate(-179.95 -877.14)">
    
  </text>
  <text font-size="144" y="-31.904" x="-1382.339" font-family="Jokerman" fill="green" transform="translate(-179.95 -877.14)">
    
  </text>
  <text font-size="144" y="-199.642" x="-1395.079" font-family="Jokerman" fill="green" transform="translate(-179.95 -877.14)">
    
  </text>
</svg>