<svg width="100%" height="100%" viewBox="0 0 734.668 560.183" xmlns="http://www.w3.org/2000/svg" xmlns:xlink="http://www.w3.org/1999/xlink">
  <defs>
    <linearGradient id="e">
      <stop offset="0" stop-color="#00aad4"/>
      <stop offset="1" stop-color="#5df"/>
    </linearGradient>
    <linearGradient id="d">
      <stop offset="0" stop-color="#fff"/>
      <stop offset="1" stop-color="#ccc"/>
    </linearGradient>
    <linearGradient id="c">
      <stop offset="0" stop-color="#ccc"/>
      <stop offset="1" stop-color="#666"/>
    </linearGradient>
    <linearGradient id="b">
      <stop offset="0" stop-color="#ececec"/>
      <stop offset="1" stop-color="#b3b3b3"/>
    </linearGradient>
    <linearGradient xlink:href="#d" id="g" x1="-168.162" y1="488.457" x2="17.746" y2="579.93" gradientUnits="userSpaceOnUse"/>
    <linearGradient xlink:href="#e" id="h" x1="-.204" y1="533.674" x2="-152.66" y2="501.353" gradientUnits="userSpaceOnUse"/>
    <linearGradient xlink:href="#d" id="m" x1="-168.162" y1="488.457" x2="17.746" y2="579.93" gradientUnits="userSpaceOnUse"/>
    <linearGradient xlink:href="#e" id="n" x1="-.204" y1="533.674" x2="-152.66" y2="501.353" gradientUnits="userSpaceOnUse"/>
    <linearGradient xlink:href="#d" id="s" x1="-168.162" y1="488.457" x2="17.746" y2="579.93" gradientUnits="userSpaceOnUse"/>
    <linearGradient xlink:href="#e" id="t" x1="-.204" y1="533.674" x2="-152.66" y2="501.353" gradientUnits="userSpaceOnUse"/>
    <radialGradient xlink:href="#b" id="l" cx="366.258" cy="653.149" fx="366.258" fy="653.149" r="38.397" gradientTransform="matrix(.59818 0 0 .44887 119.698 268.791)" gradientUnits="userSpaceOnUse"/>
    <radialGradient xlink:href="#c" id="k" cx="148.188" cy="662.684" fx="148.188" fy="662.684" r="42.938" gradientTransform="matrix(1.00035 0 0 .90735 2.446 56.214)" gradientUnits="userSpaceOnUse"/>
    <radialGradient xlink:href="#c" id="q" cx="148.188" cy="662.684" fx="148.188" fy="662.684" r="42.938" gradientTransform="matrix(1.00035 0 0 .90735 2.446 56.214)" gradientUnits="userSpaceOnUse"/>
    <radialGradient xlink:href="#b" id="r" cx="366.258" cy="653.149" fx="366.258" fy="653.149" r="38.397" gradientTransform="matrix(.59818 0 0 .44887 119.698 268.791)" gradientUnits="userSpaceOnUse"/>
    <pattern xlink:href="#a" id="j" patternTransform="matrix(.88817 0 0 1.00017 117.976 -40.285)"/>
    <pattern id="a" height="5.181" width="30.066" patternUnits="userSpaceOnUse">
      <path d="M7.597.061C5.079-.187 2.656.302-.01 1.788v1.273c2.783-1.63 5.183-2.009 7.482-1.781 2.298.228 4.497 1.081 6.781 1.938 4.567 1.713 9.551 3.458 15.813-.157l-.004-1.273c-6.44 3.709-10.816 1.982-15.371.273-2.278-.854-4.576-1.75-7.094-2z"/>
    </pattern>
    <pattern xlink:href="#f" id="p" patternTransform="matrix(.88817 0 0 1.00017 117.976 -40.285)"/>
    <pattern id="f" height="5.181" width="30.066" patternUnits="userSpaceOnUse">
      <path d="M7.597.061C5.079-.187 2.656.302-.01 1.788v1.273c2.783-1.63 5.183-2.009 7.482-1.781 2.298.228 4.497 1.081 6.781 1.938 4.567 1.713 9.551 3.458 15.813-.157l-.004-1.273c-6.44 3.709-10.816 1.982-15.371.273-2.278-.854-4.576-1.75-7.094-2z"/>
    </pattern>
    <filter id="i" color-interpolation-filters="sRGB">
      <feFlood flood-opacity=".498" flood-color="#000" result="flood"/>
      <feComposite in="flood" in2="SourceGraphic" operator="in" result="composite1"/>
      <feGaussianBlur in="composite1" stdDeviation="3" result="blur"/>
      <feOffset dx="6" dy="6" result="offset"/>
      <feComposite in="SourceGraphic" in2="offset" result="composite2"/>
    </filter>
    <filter id="o" color-interpolation-filters="sRGB">
      <feFlood flood-opacity=".498" flood-color="#000" result="flood"/>
      <feComposite in="flood" in2="SourceGraphic" operator="in" result="composite1"/>
      <feGaussianBlur in="composite1" stdDeviation="3" result="blur"/>
      <feOffset dx="6" dy="6" result="offset"/>
      <feComposite in="SourceGraphic" in2="offset" result="composite2"/>
    </filter>
  </defs>
  <g stroke="#000001" stroke-linecap="square">
    <path d="M-225.23 447.079c39.874 2.62 74.084-5.619 94.523-40.249 19.019 31.006 54.386 36.126 92.694 36.59-7.549 131.633 11.49 131.722-92.694 207.34-96.907-64.209-92.213-93.463-94.523-203.681z" fill="url(#g)" stroke-width=".5" transform="matrix(1.7426 0 0 1.7426 597.93 -640.388)"/>
    <path d="M-216.414 453.964c36.377 2.39 67.586-5.126 86.233-36.719 17.35 28.286 49.616 32.957 84.564 33.38-6.887 120.089 10.482 120.17-84.564 189.157-88.408-58.578-84.126-85.267-86.233-185.818z" fill="url(#h)" stroke-width=".456" transform="matrix(1.7426 0 0 1.7426 597.93 -640.388)"/>
    <path d="M281.43 311.488a85.546 85.546 0 0090.623 80.148A85.546 85.546 0 00452.2 301.01a85.546 85.546 0 00-1.704-12.103 85.546 85.546 0 01-78.035 65.972 85.546 85.546 0 01-88.922-68.044 85.546 85.546 0 00-2.109 24.653z" fill="#fc0" stroke-width=".8713"/>
    <path transform="matrix(.76794 .14858 -.14329 .7963 687.965 -12.405)" d="M-292.92 463.544l-37.065-21.112-30.869 32.898 8.625-41.775-40.827-19.192 42.396-4.706 5.636-44.76 17.577 38.867 44.31-8.47-31.532 28.726z" fill="#fc0" stroke-width=".5"/>
    <path transform="matrix(.76794 .14858 -.14329 .7963 598.743 -77.887)" d="M-292.92 463.544l-37.065-21.112-30.869 32.898 8.625-41.775-40.827-19.192 42.396-4.706 5.636-44.76 17.577 38.867 44.31-8.47-31.532 28.726z" fill="#fc0" stroke-width=".5"/>
    <path transform="matrix(.76794 .14858 -.14329 .7963 777.274 -84.263)" d="M-292.92 463.544l-37.065-21.112-30.869 32.898 8.625-41.775-40.827-19.192 42.396-4.706 5.636-44.76 17.577 38.867 44.31-8.47-31.532 28.726z" fill="#fc0" stroke-width=".5"/>
  </g>
  <g transform="rotate(48.867 537.453 297.51)" filter="url(#i)">
    <path d="M372.947 190.902l.672-.289c15.774 127.788 7.083 246.402 10.524 369.566h-24.19c4.297-123.097-2.291-247.75 12.994-369.277z" fill="#e6e6e6"/>
    <g transform="matrix(.52448 0 0 .4947 292.716 348.275)">
      <path d="M126.58 452.934h48.204c-7.42 57.943-7.215 115.886 0 173.829h-48.205c4.81-57.141 10.435-112.013 0-173.83z" fill="#502d16"/>
      <path d="M204.637 365.119h48.205c-7.42 57.943-7.216 115.886 0 173.829-14.41-7.185-29.015-13.528-48.205 0 4.81-57.141 10.435-112.012 0-173.829z" fill="url(#j)" transform="translate(-78.058 87.815)"/>
      <ellipse cx="150.686" cy="657.5" rx="42.703" ry="38.739" fill="url(#k)"/>
    </g>
    <g transform="translate(33.303)">
      <ellipse cx="338.423" cy="561.583" rx="22.819" ry="17.077" fill="url(#l)"/>
      <path d="M360.072 555.898c29.73.732 56.998-4.276 80.672-17.663-6.25 12.02-10.528 24.552 1.136 41.213-27.826-7.387-56.79-21.85-81.808-11.775-3.376-3.925-3.458-7.85 0-11.775zM317.417 555.75c-29.73.732-56.997-4.277-80.672-17.664 6.25 12.02 10.528 24.552-1.136 41.214 27.826-7.387 56.79-21.851 81.808-11.775 3.376-3.925 3.458-7.85 0-11.776z" fill="#999"/>
    </g>
  </g>
  <g stroke="#000001" stroke-linecap="square">
    <path d="M-225.23 447.079c39.874 2.62 74.084-5.619 94.523-40.249 19.019 31.006 54.386 36.126 92.694 36.59-7.549 131.633 11.49 131.722-92.694 207.34-96.907-64.209-92.213-93.463-94.523-203.681z" fill="url(#m)" stroke-width=".5" transform="matrix(.11487 .12275 -.12275 .11487 309.419 301.376)"/>
    <path d="M-216.414 453.964c36.377 2.39 67.586-5.126 86.233-36.719 17.35 28.286 49.616 32.957 84.564 33.38-6.887 120.089 10.482 120.17-84.564 189.157-88.408-58.578-84.126-85.267-86.233-185.818z" fill="url(#n)" stroke-width=".456" transform="matrix(.11487 .12275 -.12275 .11487 309.419 301.376)"/>
    <path d="M221.504 341.825a8.253 8.253 0 00.327 11.667 8.253 8.253 0 0011.667-.328 8.253 8.253 0 00.74-.918 8.253 8.253 0 01-9.79-1.148 8.253 8.253 0 01-1.069-10.75 8.253 8.253 0 00-1.875 1.477z" fill="#fc0" stroke-width=".084055"/>
    <path d="M-292.92 463.544l-37.065-21.112-30.869 32.898 8.625-41.775-40.827-19.192 42.396-4.706 5.636-44.76 17.577 38.867 44.31-8.47-31.532 28.726z" transform="matrix(.04015 .06389 -.06554 .0424 271.117 349.113)" fill="#fc0" stroke-width=".5"/>
    <path d="M-292.92 463.544l-37.065-21.112-30.869 32.898 8.625-41.775-40.827-19.192 42.396-4.706 5.636-44.76 17.577 38.867 44.31-8.47-31.532 28.726z" transform="matrix(.04015 .06389 -.06554 .0424 269.848 338.511)" fill="#fc0" stroke-width=".5"/>
    <path d="M-292.92 463.544l-37.065-21.112-30.869 32.898 8.625-41.775-40.827-19.192 42.396-4.706 5.636-44.76 17.577 38.867 44.31-8.47-31.532 28.726z" transform="matrix(.04015 .06389 -.06554 .0424 282.066 350.667)" fill="#fc0" stroke-width=".5"/>
  </g>
  <g>
    <g transform="scale(-1 1) rotate(48.867 159.278 -523.688)" filter="url(#o)">
      <path d="M372.947 190.902l.672-.289c15.774 127.788 7.083 246.402 10.524 369.566h-24.19c4.297-123.097-2.291-247.75 12.994-369.277z" fill="#e6e6e6"/>
      <g transform="matrix(.52448 0 0 .4947 292.716 348.275)">
        <path d="M126.58 452.934h48.204c-7.42 57.943-7.215 115.886 0 173.829h-48.205c4.81-57.141 10.435-112.013 0-173.83z" fill="#502d16"/>
        <path d="M204.637 365.119h48.205c-7.42 57.943-7.216 115.886 0 173.829-14.41-7.185-29.015-13.528-48.205 0 4.81-57.141 10.435-112.012 0-173.829z" fill="url(#p)" transform="translate(-78.058 87.815)"/>
        <ellipse cx="150.686" cy="657.5" rx="42.703" ry="38.739" fill="url(#q)"/>
      </g>
      <g transform="translate(33.303)">
        <ellipse cx="338.423" cy="561.583" rx="22.819" ry="17.077" fill="url(#r)"/>
        <path d="M360.072 555.898c29.73.732 56.998-4.276 80.672-17.663-6.25 12.02-10.528 24.552 1.136 41.213-27.826-7.387-56.79-21.85-81.808-11.775-3.376-3.925-3.458-7.85 0-11.775zM317.417 555.75c-29.73.732-56.997-4.277-80.672-17.664 6.25 12.02 10.528 24.552-1.136 41.214 27.826-7.387 56.79-21.851 81.808-11.775 3.376-3.925 3.458-7.85 0-11.776z" fill="#999"/>
      </g>
    </g>
    <g stroke="#000001" stroke-linecap="square">
      <path d="M-225.23 447.079c39.874 2.62 74.084-5.619 94.523-40.249 19.019 31.006 54.386 36.126 92.694 36.59-7.549 131.633 11.49 131.722-92.694 207.34-96.907-64.209-92.213-93.463-94.523-203.681z" fill="url(#s)" stroke-width=".5" transform="matrix(-.11487 .12275 .12275 .11487 438.508 305.203)"/>
      <path d="M-216.414 453.964c36.377 2.39 67.586-5.126 86.233-36.719 17.35 28.286 49.616 32.957 84.564 33.38-6.887 120.089 10.482 120.17-84.564 189.157-88.408-58.578-84.126-85.267-86.233-185.818z" fill="url(#t)" stroke-width=".456" transform="matrix(-.11487 .12275 .12275 .11487 438.508 305.203)"/>
      <path d="M526.423 345.652a8.253 8.253 0 01-.328 11.667 8.253 8.253 0 01-11.667-.328 8.253 8.253 0 01-.74-.918 8.253 8.253 0 009.791-1.148 8.253 8.253 0 001.068-10.75 8.253 8.253 0 011.876 1.477z" fill="#fc0" stroke-width=".084055"/>
      <path d="M-292.92 463.544l-37.065-21.112-30.869 32.898 8.625-41.775-40.827-19.192 42.396-4.706 5.636-44.76 17.577 38.867 44.31-8.47-31.532 28.726z" transform="matrix(-.04015 .06389 .06554 .0424 476.81 352.94)" fill="#fc0" stroke-width=".5"/>
      <path d="M-292.92 463.544l-37.065-21.112-30.869 32.898 8.625-41.775-40.827-19.192 42.396-4.706 5.636-44.76 17.577 38.867 44.31-8.47-31.532 28.726z" transform="matrix(-.04015 .06389 .06554 .0424 478.078 342.338)" fill="#fc0" stroke-width=".5"/>
      <path d="M-292.92 463.544l-37.065-21.112-30.869 32.898 8.625-41.775-40.827-19.192 42.396-4.706 5.636-44.76 17.577 38.867 44.31-8.47-31.532 28.726z" transform="matrix(-.04015 .06389 .06554 .0424 465.861 354.494)" fill="#fc0" stroke-width=".5"/>
    </g>
  </g>
</svg>