<svg width="100%" height="100%" viewBox="0 0 516 386" xmlns="http://www.w3.org/2000/svg">
  <defs>
    <radialGradient id="b" gradientUnits="userSpaceOnUse" cx="141.313" cy="230.252" r=".034">
      <stop offset="0" stop-color="#FFFFFE"/>
      <stop offset="1" stop-color="#E99B46"/>
    </radialGradient>
    <radialGradient id="c" gradientUnits="userSpaceOnUse" cx="367.581" cy="NaN" r="NaN" fx="NaN" fy="NaN">
      <stop offset="0" stop-color="#FFFFFE"/>
      <stop offset="1" stop-color="#E99B46"/>
    </radialGradient>
    <radialGradient id="e" gradientUnits="userSpaceOnUse" cx="359.137" cy="273.687" r=".028">
      <stop offset="0" stop-color="#FFFFFE"/>
      <stop offset="1" stop-color="#E99B46"/>
    </radialGradient>
    <radialGradient id="g" gradientUnits="userSpaceOnUse" cx="338.963" cy="237.181" r="55.067">
      <stop offset="0" stop-color="#FFFFFE"/>
      <stop offset="1" stop-color="#E99B46"/>
    </radialGradient>
    <radialGradient id="i" gradientUnits="userSpaceOnUse" cx="169.786" cy="263.288" r="30.538">
      <stop offset="0" stop-color="#FFFFFE"/>
      <stop offset="1" stop-color="#E99B46"/>
    </radialGradient>
    <radialGradient id="k" gradientUnits="userSpaceOnUse" cx="136.736" cy="236.602" r="53.579">
      <stop offset="0" stop-color="#FFFFFE"/>
      <stop offset="1" stop-color="#E99B46"/>
    </radialGradient>
    <radialGradient id="m" gradientUnits="userSpaceOnUse" cx="159.351" cy="295.647" r=".025">
      <stop offset="0" stop-color="#FFFFFE"/>
      <stop offset="1" stop-color="#E99B46"/>
    </radialGradient>
    <radialGradient id="o" gradientUnits="userSpaceOnUse" cx="171.507" cy="236.827" r="57.761">
      <stop offset="0" stop-color="#FFFFFE"/>
      <stop offset="1" stop-color="#E99B46"/>
    </radialGradient>
    <radialGradient id="p" gradientUnits="userSpaceOnUse" cx="256.47" cy="115.839" r="64.596">
      <stop offset="0" stop-color="#FFFFFE"/>
      <stop offset="1" stop-color="#E99B46"/>
    </radialGradient>
    <radialGradient id="q" gradientUnits="userSpaceOnUse" cx="241.538" cy="147.527" r="30.001">
      <stop offset="0" stop-color="#FFFFFE"/>
      <stop offset="1" stop-color="#E99B46"/>
    </radialGradient>
    <radialGradient id="r" gradientUnits="userSpaceOnUse" cx="231.358" cy="186.371" r="3.441">
      <stop offset="0" stop-color="#FFFFFE"/>
      <stop offset="1" stop-color="#E99B46"/>
    </radialGradient>
    <radialGradient id="s" gradientUnits="userSpaceOnUse" cx="256.498" cy="147.73" r="67.269">
      <stop offset="0" stop-color="#FFFFFE"/>
      <stop offset="1" stop-color="#E99B46"/>
    </radialGradient>
    <radialGradient id="u" gradientUnits="userSpaceOnUse" cx="343.52" cy="239.461" r="29.651">
      <stop offset="0" stop-color="#FFFFFE"/>
      <stop offset="1" stop-color="#E99B46"/>
    </radialGradient>
    <radialGradient id="w" gradientUnits="userSpaceOnUse" cx="374.209" cy="236.937" r="50.657">
      <stop offset="0" stop-color="#FFFFFE"/>
      <stop offset="1" stop-color="#E99B46"/>
    </radialGradient>
    <radialGradient id="x" gradientUnits="userSpaceOnUse" cx="275.912" cy="125.205" r=".035">
      <stop offset="0" stop-color="#FFFFFE"/>
      <stop offset="1" stop-color="#E99B46"/>
    </radialGradient>
    <radialGradient id="z" gradientUnits="userSpaceOnUse" cx="208.156" cy="128.501" r=".029">
      <stop offset="0" stop-color="#FFFFFE"/>
      <stop offset="1" stop-color="#E99B46"/>
    </radialGradient>
    <radialGradient id="B" gradientUnits="userSpaceOnUse" cx="311.371" cy="155.02" r="22.379">
      <stop offset="0" stop-color="#FFFFFE"/>
      <stop offset="1" stop-color="#E99B46"/>
    </radialGradient>
    <radialGradient id="D" gradientUnits="userSpaceOnUse" cx="225.285" cy="321.814" r="19.562">
      <stop offset="0" stop-color="#FFFFFE"/>
      <stop offset="1" stop-color="#E99B46"/>
    </radialGradient>
    <radialGradient id="E" gradientUnits="userSpaceOnUse" cx="256.999" cy="320.043" r="48.286">
      <stop offset="0" stop-color="#FFFFFE"/>
      <stop offset="1" stop-color="#E99B46"/>
    </radialGradient>
    <radialGradient id="F" gradientUnits="userSpaceOnUse" cx="284.307" cy="337.257" r=".019">
      <stop offset="0" stop-color="#FFFFFE"/>
      <stop offset="1" stop-color="#E99B46"/>
    </radialGradient>
    <radialGradient id="G" gradientUnits="userSpaceOnUse" cx="256.981" cy="353.186" r="44.993">
      <stop offset="0" stop-color="#FFFFFE"/>
      <stop offset="1" stop-color="#E99B46"/>
    </radialGradient>
    <radialGradient id="I" gradientUnits="userSpaceOnUse" cx="292.267" cy="321.094" r="13.775">
      <stop offset="0" stop-color="#FFFFFE"/>
      <stop offset="1" stop-color="#E99B46"/>
    </radialGradient>
    <radialGradient id="K" gradientUnits="userSpaceOnUse" cx="163.488" cy="191.566" r="17.697">
      <stop offset="0" stop-color="#FFFFFE"/>
      <stop offset="1" stop-color="#E99B46"/>
    </radialGradient>
    <radialGradient id="L" gradientUnits="userSpaceOnUse" cx="183.183" cy="143.556" r="2.384">
      <stop offset="0" stop-color="#FFFFFE"/>
      <stop offset="1" stop-color="#E99B46"/>
    </radialGradient>
    <radialGradient id="M" gradientUnits="userSpaceOnUse" cx="163.92" cy="192.989" r="22.828">
      <stop offset="0" stop-color="#FFFFFE"/>
      <stop offset="1" stop-color="#E99B46"/>
    </radialGradient>
    <radialGradient id="O" gradientUnits="userSpaceOnUse" cx="241.85" cy="152.819" r="37.042">
      <stop offset="0" stop-color="#FFFFFE"/>
      <stop offset="1" stop-color="#E99B46"/>
    </radialGradient>
    <radialGradient id="Q" gradientUnits="userSpaceOnUse" cx="342.89" cy="240.047" r="33.709">
      <stop offset="0" stop-color="#FFFFFE"/>
      <stop offset="1" stop-color="#E99B46"/>
    </radialGradient>
    <radialGradient id="S" gradientUnits="userSpaceOnUse" cx="309.945" cy="154.179" r="26.528">
      <stop offset="0" stop-color="#FFFFFE"/>
      <stop offset="1" stop-color="#E99B46"/>
    </radialGradient>
    <radialGradient id="U" gradientUnits="userSpaceOnUse" cx="280.951" cy="337.305" r="1.664">
      <stop offset="0" stop-color="#FFFFFE"/>
      <stop offset="1" stop-color="#E99B46"/>
    </radialGradient>
    <radialGradient id="V" gradientUnits="userSpaceOnUse" cx="297.36" cy="336.644" r="7.329">
      <stop offset="0" stop-color="#FFFFFE"/>
      <stop offset="1" stop-color="#E99B46"/>
    </radialGradient>
    <radialGradient id="X" gradientUnits="userSpaceOnUse" cx="226.057" cy="321.679" r="23.461">
      <stop offset="0" stop-color="#FFFFFE"/>
      <stop offset="1" stop-color="#E99B46"/>
    </radialGradient>
    <radialGradient id="Z" gradientUnits="userSpaceOnUse" cx="169.591" cy="263.036" r="34.542">
      <stop offset="0" stop-color="#FFFFFE"/>
      <stop offset="1" stop-color="#E99B46"/>
    </radialGradient>
    <radialGradient id="ab" gradientUnits="userSpaceOnUse" cx="311.694" cy="260.017" r=".021">
      <stop offset="0" stop-color="#FFFFFE"/>
      <stop offset="1" stop-color="#E99B46"/>
    </radialGradient>
    <radialGradient id="ad" gradientUnits="userSpaceOnUse" cx="292.121" cy="321.356" r="17.699">
      <stop offset="0" stop-color="#FFFFFE"/>
      <stop offset="1" stop-color="#E99B46"/>
    </radialGradient>
    <radialGradient id="ae" gradientUnits="userSpaceOnUse" cx="219.239" cy="244.419" r="1.795">
      <stop offset="0" stop-color="#FFFFFE"/>
      <stop offset="1" stop-color="#E99B46"/>
    </radialGradient>
    <radialGradient id="af" gradientUnits="userSpaceOnUse" cx="256.853" cy="201.189" r="14.523">
      <stop offset="0" stop-color="#FFFFFE"/>
      <stop offset="1" stop-color="#E99B46"/>
    </radialGradient>
    <radialGradient id="ag" gradientUnits="userSpaceOnUse" cx="323.318" cy="311.121" r="61.254">
      <stop offset="0" stop-color="#FFFFFE"/>
      <stop offset="1" stop-color="#E99B46"/>
    </radialGradient>
    <radialGradient id="ah" gradientUnits="userSpaceOnUse" cx="183.646" cy="190.052" r="52.796">
      <stop offset="0" stop-color="#FFFFFE"/>
      <stop offset="1" stop-color="#E99B46"/>
    </radialGradient>
    <radialGradient id="ai" gradientUnits="userSpaceOnUse" cx="200.439" cy="175.711" r="52.895">
      <stop offset="0" stop-color="#FFFFFE"/>
      <stop offset="1" stop-color="#E99B46"/>
    </radialGradient>
    <radialGradient id="ak" gradientUnits="userSpaceOnUse" cx="24.648" cy="22.492" r="16.079">
      <stop offset="0" stop-color="#FFFFFE"/>
      <stop offset="1" stop-color="#E99B46"/>
    </radialGradient>
    <radialGradient id="am" gradientUnits="userSpaceOnUse" cx="27.007" cy="26.833" r="10.2">
      <stop offset="0" stop-color="#FFFFFE"/>
      <stop offset="1" stop-color="#E99B46"/>
    </radialGradient>
    <radialGradient id="an" gradientUnits="userSpaceOnUse" cx="38.608" cy="39.179" r="12.806">
      <stop offset="0" stop-color="#FFFFFE"/>
      <stop offset="1" stop-color="#E99B46"/>
    </radialGradient>
    <radialGradient id="ap" gradientUnits="userSpaceOnUse" cx="50.049" cy="49.393" r="9.948">
      <stop offset="0" stop-color="#FFFFFE"/>
      <stop offset="1" stop-color="#E99B46"/>
    </radialGradient>
    <radialGradient id="ar" gradientUnits="userSpaceOnUse" cx="58.989" cy="57.772" r="8.792">
      <stop offset="0" stop-color="#FFFFFE"/>
      <stop offset="1" stop-color="#E99B46"/>
    </radialGradient>
    <radialGradient id="at" gradientUnits="userSpaceOnUse" cx="67.479" cy="65.735" r="8.306">
      <stop offset="0" stop-color="#FFFFFE"/>
      <stop offset="1" stop-color="#E99B46"/>
    </radialGradient>
    <radialGradient id="au" gradientUnits="userSpaceOnUse" cx="87.15" cy="84.216" r="8.95">
      <stop offset="0" stop-color="#FFFFFE"/>
      <stop offset="1" stop-color="#E99B46"/>
    </radialGradient>
    <radialGradient id="aw" gradientUnits="userSpaceOnUse" cx="97.164" cy="93.609" r="10.26">
      <stop offset="0" stop-color="#FFFFFE"/>
      <stop offset="1" stop-color="#E99B46"/>
    </radialGradient>
    <radialGradient id="ax" gradientUnits="userSpaceOnUse" cx="109.506" cy="105.065" r="14.489">
      <stop offset="0" stop-color="#FFFFFE"/>
      <stop offset="1" stop-color="#E99B46"/>
    </radialGradient>
    <radialGradient id="az" gradientUnits="userSpaceOnUse" cx="76.941" cy="74.621" r="9.013">
      <stop offset="0" stop-color="#FFFFFE"/>
      <stop offset="1" stop-color="#E99B46"/>
    </radialGradient>
    <radialGradient id="aB" gradientUnits="userSpaceOnUse" cx="100.907" cy="136.262" r="27.951">
      <stop offset="0" stop-color="#FFFFFE"/>
      <stop offset="1" stop-color="#E99B46"/>
    </radialGradient>
    <radialGradient id="aC" gradientUnits="userSpaceOnUse" cx="142.769" cy="95.862" r="29.719">
      <stop offset="0" stop-color="#FFFFFE"/>
      <stop offset="1" stop-color="#E99B46"/>
    </radialGradient>
    <radialGradient id="aD" gradientUnits="userSpaceOnUse" cx="259.355" cy="247.939" r="126.123">
      <stop offset="0" stop-color="#FFFFFE"/>
      <stop offset="1" stop-color="#E99B46"/>
    </radialGradient>
    <radialGradient id="aF" gradientUnits="userSpaceOnUse" cx="491.564" cy="22.49" r="16.079">
      <stop offset="0" stop-color="#FFFFFE"/>
      <stop offset="1" stop-color="#E99B46"/>
    </radialGradient>
    <radialGradient id="aH" gradientUnits="userSpaceOnUse" cx="489.202" cy="26.834" r="10.203">
      <stop offset="0" stop-color="#FFFFFE"/>
      <stop offset="1" stop-color="#E99B46"/>
    </radialGradient>
    <radialGradient id="aI" gradientUnits="userSpaceOnUse" cx="477.618" cy="38.962" r="12.914">
      <stop offset="0" stop-color="#FFFFFE"/>
      <stop offset="1" stop-color="#E99B46"/>
    </radialGradient>
    <radialGradient id="aK" gradientUnits="userSpaceOnUse" cx="466.159" cy="49.393" r="9.948">
      <stop offset="0" stop-color="#FFFFFE"/>
      <stop offset="1" stop-color="#E99B46"/>
    </radialGradient>
    <radialGradient id="aM" gradientUnits="userSpaceOnUse" cx="457.215" cy="57.77" r="8.792">
      <stop offset="0" stop-color="#FFFFFE"/>
      <stop offset="1" stop-color="#E99B46"/>
    </radialGradient>
    <radialGradient id="aN" gradientUnits="userSpaceOnUse" cx="448.726" cy="65.735" r="8.306">
      <stop offset="0" stop-color="#FFFFFE"/>
      <stop offset="1" stop-color="#E99B46"/>
    </radialGradient>
    <radialGradient id="aP" gradientUnits="userSpaceOnUse" cx="429.056" cy="84.214" r="8.95">
      <stop offset="0" stop-color="#FFFFFE"/>
      <stop offset="1" stop-color="#E99B46"/>
    </radialGradient>
    <radialGradient id="aR" gradientUnits="userSpaceOnUse" cx="419.046" cy="93.609" r="10.26">
      <stop offset="0" stop-color="#FFFFFE"/>
      <stop offset="1" stop-color="#E99B46"/>
    </radialGradient>
    <radialGradient id="aS" gradientUnits="userSpaceOnUse" cx="406.708" cy="105.065" r="14.489">
      <stop offset="0" stop-color="#FFFFFE"/>
      <stop offset="1" stop-color="#E99B46"/>
    </radialGradient>
    <radialGradient id="aU" gradientUnits="userSpaceOnUse" cx="439.263" cy="74.618" r="9.014">
      <stop offset="0" stop-color="#FFFFFE"/>
      <stop offset="1" stop-color="#E99B46"/>
    </radialGradient>
    <radialGradient id="aW" gradientUnits="userSpaceOnUse" cx="415.316" cy="136.253" r="27.952">
      <stop offset="0" stop-color="#FFFFFE"/>
      <stop offset="1" stop-color="#E99B46"/>
    </radialGradient>
    <radialGradient id="aY" gradientUnits="userSpaceOnUse" cx="370.844" cy="95.843" r="28.574">
      <stop offset="0" stop-color="#FFFFFE"/>
      <stop offset="1" stop-color="#E99B46"/>
    </radialGradient>
    <clipPath id="a">
      <path d="M141.31 230.251l-.009.045v-.009l.009-.036zm.016-.041v.004l-.007.028v-.018l.007-.014z"/>
    </clipPath>
    <clipPath id="d">
      <path d="M359.16 273.663v.001l-.023.03-.009.009.032-.04z"/>
    </clipPath>
    <clipPath id="f">
      <path d="M367.381 171.913c8.982 17.37 14.058 37.08 14.058 57.951 0 26.991-8.487 52.02-22.923 72.585l-46.809-42.417.009-.009-.045-.027-15.183-13.761c.387-.981.747-1.971 1.062-2.979l12.474-12.744c0 3.069-.072 6.156-.234 9.243-.09 1.782-.207 3.573-.333 5.355l-.216 2.673c-.081.882-.162 1.791-.252 2.628l-.279 2.61 2.178 1.35a648.16 648.16 0 0011.07 6.723c3.708 2.205 7.425 4.392 11.187 6.516a357.318 357.318 0 0011.439 6.201 171.75 171.75 0 005.913 2.916c2.034.927 4.059 1.836 6.381 2.61.585.189 1.188.369 1.881.531.351.072.711.153 1.125.207.423.054.882.099 1.512.072.135 0 .342-.027.504-.045a4.38 4.38 0 00.621-.117 4.763 4.763 0 002.133-1.134 5.65 5.65 0 00.441-.486l.189-.243.234-.324c.153-.189.36-.504.54-.765.189-.27.351-.522.513-.783 1.305-2.043 2.331-4.149 3.222-6.273 1.773-4.257 2.988-8.586 3.924-12.942.936-4.356 1.53-8.748 1.908-13.14.369-4.401.504-8.811.387-13.23-.126-4.41-.495-8.829-1.215-13.221-.738-4.383-1.773-8.775-3.483-13.023-.216-.522-.432-1.053-.675-1.575l-.135-.297c-.045-.063-.189-.459-.414-.684-.639-.693-.828-.666-1.071-.819a4.135 4.135 0 00-.495-.171c-.153-.036-.225-.045-.324-.063a2.54 2.54 0 00-.396-.036c-.207-.009-.351 0-.477.009-.495.036-.801.09-1.125.153-1.224.234-2.259.522-3.339.81a210.796 210.796 0 00-6.246 1.863 753.002 753.002 0 00-12.285 3.969 1387.357 1387.357 0 00-12.204 4.122l-5.616 1.962 32.508-33.21a8.76 8.76 0 001.233-1.044c.171-.171.351-.378.549-.666.054-.09.117-.189.18-.297l6.399-6.534z"/>
    </clipPath>
    <clipPath id="h">
      <path d="M143.875 231.745c1.26 0 2.574.054 3.879.117 2.061.117 4.158.288 6.255.495 4.194.405 8.406.918 12.627 1.485 4.212.567 8.433 1.179 12.645 1.818a870.53 870.53 0 019.702 1.557c.144.792.297 1.584.468 2.358a79.463 79.463 0 001.341 5.229 83.46 83.46 0 003.645 10.134c.729 1.647 1.485 3.294 2.331 4.887 1.621 2.996.783 1.514 2.515 4.446v.013l-1.93 1.571-19.989 16.155a695.323 695.323 0 01-10.071 7.938 213.019 213.019 0 01-5.076 3.807c-1.034.724-.52.365-1.543 1.077h-.008c-2.737-2.96-4.928-6.355-7.026-9.78-2.079-3.564-3.888-7.317-5.49-11.16-3.168-7.686-5.526-15.768-6.867-23.904-.675-4.068-1.062-8.163-.981-12.132.045-1.989.216-3.933.576-5.769l.036-.207c.279-.036.567-.063.873-.081a38.892 38.892 0 012.088-.054zm22.419 18.927a6.53 6.53 0 00-6.525 6.525 6.53 6.53 0 006.525 6.525 6.53 6.53 0 006.525-6.525 6.53 6.53 0 00-6.525-6.525z"/>
    </clipPath>
    <clipPath id="j">
      <path d="M139.551 162.432l3.568 3.649c-10.782 18.81-16.956 40.59-16.956 63.783 0 29.097 9.711 55.962 26.064 77.544l-3.609 3.267-.036.09c-17.808-23.118-26.739-51.276-27.347-80.281v-1.386c-.067-23.534 6.775-46.299 18.308-66.666h.008z"/>
    </clipPath>
    <clipPath id="l">
      <path d="M159.382 295.636l-.063.027.018-.009.045-.018z"/>
    </clipPath>
    <clipPath id="n">
      <path d="M144.594 167.583l3.439 3.511c-1.89 3.06-3.654 6.21-5.247 9.459-1.998 4.095-3.726 8.37-5.04 12.852-.648 2.241-1.188 4.536-1.539 6.912-.045.297-.099.594-.135.891l-.081.675-.009.117-.009.054c-.009-.099 0 .54.009.864v.036c.027.189.135.792.36 1.206.396.729.522.783.63.918.117.135.315.324.369.369l.261.207c.297.216.495.324.648.405.324.171.549.261.747.342.396.162.72.27 1.035.369 1.242.396 2.34.675 3.456.945 4.419 1.071 8.748 1.908 13.104 2.763 4.347.837 8.694 1.629 13.032 2.412 7.722 1.386 15.444 2.682 23.184 3.951l17.127 17.496a44.488 44.488 0 004.896 16.335l-9.018 8.172a64.473 64.473 0 01-1.629-2.889 74.452 74.452 0 01-2.088-4.356 77.171 77.171 0 01-3.312-9.126 80.128 80.128 0 01-1.224-4.698 58.373 58.373 0 01-.495-2.367l-.207-1.17-.099-.567-.072-.513-.441-3.114-2.97-.477a637.931 637.931 0 00-12.798-1.962c-4.266-.612-8.541-1.206-12.834-1.719-4.293-.513-8.595-.981-12.942-1.341-2.178-.18-4.365-.324-6.579-.414-2.232-.09-4.446-.144-6.885.036-.612.045-1.251.108-1.944.225-.351.063-.711.135-1.125.243-.405.117-.855.243-1.413.513a4.826 4.826 0 00-.981.585c-.369.27-.837.684-1.251 1.332-.099.171-.198.342-.279.531-.09.207-.171.414-.234.621l-.072.297-.09.387c-.063.234-.144.594-.207.909-.072.333-.117.621-.18.918-.414 2.394-.558 4.734-.567 7.038 0 4.608.54 9.072 1.35 13.455.81 4.383 1.944 8.658 3.276 12.87a119.202 119.202 0 004.725 12.357c1.809 4.032 3.852 7.956 6.192 11.745 2.367 3.762 5.004 7.416 8.208 10.683.405.405.819.81 1.242 1.206l.153.144.081.072c-.072-.045.387.288.639.459v.009c.144.099.207.144.018.009.081.036.297.135.531.216l-5.598 5.067c-16.648-21.828-24.972-48.336-25.539-75.621v-1.296c-.062-21.657 6.062-42.653 16.395-61.558h.026z"/>
    </clipPath>
    <clipPath id="t">
      <path d="M366.058 206.617c1.323 3.726 2.187 7.704 2.727 11.736.549 4.086.792 8.244.783 12.402-.018 8.325-.936 16.686-2.826 24.723-.936 4.005-2.151 7.938-3.753 11.574-.801 1.818-1.71 3.555-2.736 5.103l-.114.163h-.068c-.49-.15-.232-.069-.772-.244-1.737-.612-3.636-1.467-5.481-2.358-1.872-.9-3.735-1.854-5.589-2.844a346.865 346.865 0 01-11.088-6.228 691.24 691.24 0 01-10.989-6.534c-5.8-3.558-2.905-1.77-8.684-5.363v-.011l.017-.197.252-2.781c.153-1.854.27-3.708.378-5.571.198-3.708.306-7.443.279-11.196-.018-2.25-.099-4.509-.243-6.786l2.817-2.88.09-.027 24.66-7.245a702.115 702.115 0 0112.339-3.465 213.081 213.081 0 016.156-1.566 48.662 48.662 0 011.845-.405zm-19.953 23.562a6.524 6.524 0 00-6.525 6.525c0 3.6 2.925 6.516 6.525 6.516 3.6 0 6.525-2.916 6.525-6.516a6.524 6.524 0 00-6.525-6.525z"/>
    </clipPath>
    <clipPath id="v">
      <path d="M372.482 166.715c10.632 19.401 15.549 41.139 15.896 63.149 0 28.782-9.144 55.458-24.678 77.283l-3.675-3.325v-.036c15.481-21.676 22.891-47.476 23.412-73.922 0-21.438-5.274-41.661-14.589-59.454l3.614-3.695h.02z"/>
    </clipPath>
    <clipPath id="y">
      <path d="M208.148 128.477l.014.056v.008l-.014-.062v-.002z"/>
    </clipPath>
    <clipPath id="A">
      <path d="M308.26 130.648a46.526 46.526 0 014.374 1.791c3.753 1.746 7.389 3.924 10.881 6.327 5.452 3.948 2.773 1.908 8.036 6.119v.002L293.475 179.4h-.026c-.647-.421-.319-.211-.984-.629-.845-.479-.42-.243-1.275-.709v-.01c4.926-14.335 2.449-7.171 7.431-21.493 1.449-4.149 2.916-8.28 4.41-12.393 1.503-4.113 3.033-8.235 4.653-12.177.189-.45.387-.909.576-1.341z"/>
    </clipPath>
    <clipPath id="C">
      <path d="M241.292 300.741c.584 9.621.296 4.81.863 14.434.252 4.383.486 8.775.675 13.149.189 4.365.36 8.757.378 13.023 0 .486 0 .981-.018 1.458-1.548.09-3.132.09-4.725.027-4.14-.171-8.325-.792-12.474-1.665a106.076 106.076 0 01-12.33-3.402 112.882 112.882 0 01-6.3-2.367l33.919-34.657h.012z"/>
    </clipPath>
    <clipPath id="H">
      <path d="M280.021 305.944l24.486 25.026c-1.008.423-2.025.837-3.051 1.233-3.816 1.467-7.722 2.673-11.601 3.393-1.935.369-3.87.612-5.715.648h-.243c-.072-.216-.135-.441-.207-.684-.486-1.782-.864-3.825-1.188-5.859a150.495 150.495 0 01-.837-6.228c-.486-4.194-.9-8.424-1.251-12.672-.268-3.225-.137-1.618-.393-4.824v-.033z"/>
    </clipPath>
    <clipPath id="J">
      <path d="M152.953 176.122l30.228 30.885v.004h-.006c-8.129-1.319-4.065-.657-12.192-1.987-4.329-.711-8.658-1.449-12.969-2.214-4.302-.765-8.631-1.566-12.789-2.484-.477-.108-.963-.216-1.431-.333a49.889 49.889 0 011.017-4.617c1.071-3.996 2.592-7.947 4.356-11.808 2.414-5.012 1.155-2.53 3.777-7.446h.009z"/>
    </clipPath>
    <clipPath id="N">
      <path d="M252.343 116.149c10.251 0 19.629 1.539 25.803 4.824 1.215.639 3.474 1.845-6.039 28.404-4.572 12.744-9.738 25.371-9.783 25.497l-.279.684-.738-.063c-.18-.018-14.769-1.17-29.484 3.717 1.71 3.204 3.393 6.354 5.031 9.396-.621.27-1.224.54-1.827.837a3850.048 3850.048 0 01-5.103-9.567 52.367 52.367 0 00-4.545 1.917l-1.62-1.467a58.264 58.264 0 015.202-2.259c-2.493-4.689-5.247-9.9-7.974-15.093-17.838-34.038-17.19-34.47-16.119-35.181 11.124-7.434 30.492-11.646 47.475-11.646zm2.619 2.094c-16.516.141-34.1 2.135-48.501 10.902 1.116 3.888 13.005 26.829 24.39 48.249 13.41-4.581 26.613-4.149 29.889-3.951 9.414-23.058 18.045-48.096 16.407-50.742-6.86-3.488-14.635-4.078-22.185-4.458z"/>
    </clipPath>
    <clipPath id="P">
      <path d="M367.838 203.258l.173.047c.036.018.072.027.162.117l.072.117.036.099.081.189c.225.495.423.99.621 1.494 1.548 4.041 2.52 8.262 3.177 12.519.639 4.266.954 8.568 1.026 12.87.072 4.302-.108 8.604-.522 12.888-.414 4.284-1.062 8.55-1.998 12.753-.936 4.203-2.16 8.361-3.852 12.339-.855 1.989-1.836 3.933-3.024 5.76-.288.459-.612.918-.927 1.35l-.243.324-.126.171-.243.225c-.351.234-.702.279-1.008.297-.621.018-1.179-.09-1.719-.216a18.805 18.805 0 01-1.584-.459c-2.061-.702-4.032-1.584-5.985-2.493a191.534 191.534 0 01-5.769-2.889c-3.807-1.989-7.56-4.086-11.277-6.219-7.452-4.266-14.796-8.694-22.086-13.239l-.251-.156v-.093l.026-.228c.387-3.609.657-7.245.846-10.881.189-3.636.288-7.272.252-10.908-.009-.747-.027-1.494-.045-2.232l.999-1.026c.036 1.08.063 2.169.072 3.249.036 3.663-.072 7.317-.261 10.971a210.048 210.048 0 01-.846 10.62c7.182 4.491 14.427 8.874 21.771 13.095 3.717 2.133 7.452 4.221 11.241 6.21 1.89.99 3.798 1.962 5.733 2.88 1.926.9 3.879 1.782 5.877 2.466.495.162.999.315 1.503.432.495.117 1.008.207 1.458.189.225 0 .432-.054.522-.117l.054-.054.108-.153.243-.315c.324-.432.612-.846.9-1.296 1.152-1.773 2.106-3.672 2.952-5.625 1.665-3.906 2.88-8.01 3.816-12.177a104.921 104.921 0 002.025-12.636c.432-4.248.63-8.523.576-12.798-.045-4.275-.342-8.541-.963-12.771-.639-4.212-1.575-8.397-3.087-12.384a42.07 42.07 0 00-.594-1.476l-.081-.171h-.18a5.576 5.576 0 00-.756.09c-1.035.18-2.079.441-3.114.693-2.07.531-4.131 1.116-6.192 1.701a743.783 743.783 0 00-12.321 3.69c-7.29 2.25-14.562 4.563-21.825 6.876l.666-.684a1724.204 1724.204 0 0120.988-6.741 772.013 772.013 0 0112.312-3.744 211.4 211.4 0 016.21-1.728c1.044-.27 2.088-.531 3.159-.72.498-.078.271-.05.68-.092h.542z"/>
    </clipPath>
    <clipPath id="R">
      <path d="M306.532 125.725l.162.027.045.009.099.036.207.054.396.117c.27.081.531.171.801.252 2.115.693 4.167 1.548 6.165 2.502 4.005 1.926 7.794 4.248 11.403 6.804a105.902 105.902 0 018.568 6.795l-.621.567a105.584 105.584 0 00-8.46-6.642c-3.582-2.52-7.335-4.824-11.277-6.705-1.971-.945-3.996-1.782-6.066-2.448l-.774-.252-.396-.108-.18-.054-.036.036c-.063.09-.135.189-.207.306-.126.216-.252.45-.378.684-.495.963-.927 1.971-1.368 2.979-1.701 4.041-3.249 8.163-4.797 12.276-1.53 4.131-3.024 8.271-4.509 12.411a2194.815 2194.815 0 00-8.568 24.507c.603.261 1.179.54 1.755.837a40.16 40.16 0 012.097 1.179l.081.045-.773.702h-.026c-1.211-.711-.598-.363-1.838-1.044a25.84 25.84 0 00-2.088-.99l-.444-.178v-.019l.147-.424a2210.85 2210.85 0 018.757-24.939c1.485-4.14 2.997-8.28 4.536-12.411 1.548-4.122 3.105-8.244 4.824-12.321.441-1.017.882-2.025 1.395-3.024.135-.252.27-.504.423-.756.072-.126.153-.252.261-.378l.18-.207.153-.117c.027-.027.045-.045.162-.081l.189-.027z"/>
    </clipPath>
    <clipPath id="T">
      <path d="M280.127 335.104l.27 1.17.035.141c.217.774.131.505.231.813l.272.809c.332.802.137.4.595 1.204.161.192.077.108.249.258-.496-.333-.665-.929-.844-1.462l-.053-.128-.219-.681c-.203-.6-.111-.283-.266-.954-.182-.73-.091-.341-.27-1.17z"/>
    </clipPath>
    <clipPath id="W">
      <path d="M245.593 296.334c.715 12.404.373 6.202 1.026 18.607.216 4.401.414 8.811.576 13.212.153 4.401.297 8.811.27 13.23-.018 1.107-.036 2.214-.126 3.339a14.37 14.37 0 01-.099.846c-.027.153-.045.297-.09.459-.027.081-.045.162-.09.261l-.09.162-.09.108a.481.481 0 01-.225.135l-.135.036h-.054l-.099.018-.207.018-.414.045c-.279.027-.558.045-.837.072-2.214.18-4.446.18-6.66.054-4.428-.234-8.82-.927-13.131-1.899a109.529 109.529 0 01-12.717-3.744 113.355 113.355 0 01-7.758-3.114l.585-.603a117.484 117.484 0 007.452 2.943c4.14 1.467 8.352 2.7 12.636 3.654 4.275.954 8.613 1.638 12.978 1.863a49.58 49.58 0 006.543-.063c.27-.027.549-.036.81-.072l.414-.045.189-.018.018-.054c.027-.108.045-.225.072-.351.036-.261.063-.522.081-.792.09-1.071.108-2.169.117-3.267.027-4.383-.117-8.784-.279-13.185-.171-4.392-.378-8.793-.594-13.185-.306-5.913-.639-11.817-.999-17.721l.922-.949h.005z"/>
    </clipPath>
    <clipPath id="Y">
      <path d="M144.28 227.434c1.233 0 2.457.045 3.681.099 2.151.099 4.293.261 6.435.45 4.275.378 8.541.873 12.798 1.404 8.523 1.089 17.01 2.358 25.479 3.753l.36.063.045.378c.225 1.647.549 3.33.918 4.986a77.483 77.483 0 001.278 4.923 79.889 79.889 0 003.456 9.576 79.52 79.52 0 002.205 4.59 65.3 65.3 0 002.097 3.708l-.783.711a73.842 73.842 0 01-2.232-3.942 75.881 75.881 0 01-2.223-4.653 80.942 80.942 0 01-3.492-9.702 79.69 79.69 0 01-1.287-4.995 62.22 62.22 0 01-.864-4.716 692.598 692.598 0 00-25.074-3.726c-4.248-.54-8.505-1.035-12.762-1.422a169.824 169.824 0 00-6.399-.459c-2.133-.09-4.266-.153-6.372-.018-.522.036-1.044.09-1.557.171-.504.09-1.008.198-1.422.387-.207.09-.378.216-.432.315l-.036.063-.045.189-.099.387a31.323 31.323 0 00-.333 1.539c-.378 2.079-.54 4.194-.567 6.318-.036 4.257.414 8.514 1.152 12.717a103.874 103.874 0 002.979 12.447 112.557 112.557 0 004.383 12.042c1.683 3.924 3.6 7.758 5.787 11.412 2.205 3.654 4.68 7.155 7.605 10.251.369.387.738.765 1.116 1.134l.144.135h.009l.153-.072c.216-.099.441-.234.666-.378.882-.558 1.746-1.197 2.601-1.836a191.67 191.67 0 005.076-3.942 708.032 708.032 0 008.136-6.642l-8.757 7.938a175.25 175.25 0 01-4.059 3.177c-.855.639-1.719 1.287-2.637 1.872a5.842 5.842 0 01-.738.423l-.207.09-.135.045-.081.009-.153.009-.153-.045-.117-.081-.216-.216c-.387-.369-.765-.756-1.143-1.143-2.988-3.132-5.499-6.669-7.74-10.341-2.232-3.69-4.167-7.542-5.886-11.484a114.244 114.244 0 01-4.464-12.114c-1.26-4.113-2.304-8.298-3.051-12.537-.747-4.239-1.215-8.55-1.179-12.879.027-2.16.189-4.329.576-6.471.09-.531.216-1.089.342-1.602l.099-.396.054-.207c.036-.108.081-.207.135-.297.234-.351.549-.531.819-.666.567-.252 1.116-.36 1.665-.459a17.37 17.37 0 011.647-.18 41.72 41.72 0 012.799-.09z"/>
    </clipPath>
    <clipPath id="aa">
      <path d="M311.676 259.999l.04.024-.009.009-.033-.033h.002z"/>
    </clipPath>
    <clipPath id="ac">
      <path d="M276.202 302.044l1.017 1.035c.603 13.662 1.62 25.776 2.907 32.022.513 2.502 1.062 4.068 1.656 4.401l.207.081c1.674.144 3.492.117 5.409-.072 5.94-.567 12.879-2.628 19.917-5.679l.726.735v.004c-7.58 3.374-15.582 5.759-23.899 6.101h-.007c-1.499-.028-.753.002-2.236-.09-1.044-.09-3.483-.297-5.166-28.026a534.338 534.338 0 01-.531-10.512z"/>
    </clipPath>
    <clipPath id="aj">
      <path d="M20.701 7.402c5.49 0 11.259 2.565 15.822 7.02 2.151 2.115 3.879 4.5 5.121 7.02l-.252.045a15.985 15.985 0 00-3.042-4.149c-2.997-2.925-6.903-4.527-11.007-4.527-4.032 0-7.776 1.557-10.548 4.392-5.547 6.009-5.305 14.059-.458 20.383h-.004c-.875-.771-.441-.376-1.302-1.186-8.055-7.884-9.801-19.224-3.879-25.281 2.367-2.43 5.67-3.717 9.549-3.717z"/>
    </clipPath>
    <clipPath id="al">
      <path d="M27.343 16.807c3.051 0 5.967 1.206 8.208 3.393 1.318 1.463.711.698 1.825 2.292v.004c-6.898 2.64-12.295 7.761-15.901 14.12l-.114.246h-.01c-.775-.622-.396-.298-1.136-.975-4.545-4.437-4.797-11.565-.567-15.885 2.016-2.061 4.743-3.195 7.695-3.195z"/>
    </clipPath>
    <clipPath id="ao">
      <path d="M54.42 39.547c3.765 4.384 1.874 2.205 5.674 6.537L46.938 59.24h-.005c-4.596-3.541-2.285-1.782-6.931-5.277v-.009l14.407-14.407h.011z"/>
    </clipPath>
    <clipPath id="aq">
      <path d="M62.767 49.072c3.392 3.721 1.692 1.874 5.1 5.541v.006L55.999 66.478c-3.902-3.179-1.939-1.596-5.89-4.748v-.009l12.658-12.649z"/>
    </clipPath>
    <clipPath id="as">
      <path d="M70.615 57.514a382.045 382.045 0 005.256 5.391l-11.05 11.05h-.004c-3.775-3.27-1.865-1.633-5.729-4.91v-.004l11.527-11.527z"/>
    </clipPath>
    <clipPath id="av">
      <path d="M98.83 83.468c5.805 4.401 2.9 2.273 8.712 6.392l-13.887 13.887a159.246 159.246 0 00-6.867-8.244l12.026-12.035h.016z"/>
    </clipPath>
    <clipPath id="ay">
      <path d="M78.715 65.722a304.101 304.101 0 007.353 6.966L75.241 83.515a282.642 282.642 0 00-7.425-6.894l10.899-10.899z"/>
    </clipPath>
    <clipPath id="aA">
      <path d="M118.639 114.331l-2.223 2.016 17.37 19.206-11.25 3.915-8.244-8.676-30.144 27.4h-.015l-16.114-9.064v-.044c.494-5.099 2.357-10.097 6.403-13.387 3.852-2.844 9.405-3.276 16.515-1.296-.108.558-.216 1.125-.342 1.683-.558 2.583-1.224 5.139-2.304 7.272-.27.531-.567 1.035-.891 1.494a8.03 8.03 0 01-1.08 1.233 6.113 6.113 0 01-2.61 1.458c-.918.252-1.818.279-2.619.216-.801-.045-1.494-.207-2.061-.333a19.47 19.47 0 01-1.305-.387l-.459-.153.441.207c.279.144.702.324 1.251.549.558.198 1.242.45 2.07.603a8.654 8.654 0 002.853.108 7.17 7.17 0 003.204-1.323c1.017-.72 1.899-1.719 2.637-2.826.747-1.098 1.359-2.322 1.917-3.564a49.576 49.576 0 001.485-3.834c.774-2.196 1.449-4.383 2.151-6.417l4.464-12.168 11.979.864 6.921-4.752z"/>
    </clipPath>
    <clipPath id="aE">
      <path d="M495.505 7.402c3.879 0 7.182 1.287 9.549 3.717 5.922 6.057 4.185 17.397-3.879 25.281-.864.809-.43.414-1.302 1.186h-.003c2.338-2.726 3.433-6.07 3.699-9.601.126-4.086-1.35-7.911-4.149-10.782-2.772-2.835-6.525-4.392-10.557-4.392-4.104 0-8.01 1.602-11.007 4.527a16 16 0 00-3.042 4.149l-.252-.045a26.193 26.193 0 015.121-7.02c4.572-4.455 10.332-7.02 15.822-7.02z"/>
    </clipPath>
    <clipPath id="aG">
      <path d="M488.863 16.807c2.952 0 5.679 1.134 7.695 3.195 2.034 2.079 3.105 4.869 3.015 7.857-.099 3.015-1.368 5.868-3.582 8.028-.741.678-.361.353-1.137.976h-.008l-.115-.247c-3.405-6.576-9.192-11.237-15.902-14.121v-.001c1.121-1.597.513-.832 1.826-2.294 2.241-2.187 5.157-3.393 8.208-3.393z"/>
    </clipPath>
    <clipPath id="aJ">
      <path d="M461.797 39.547l14.409 14.409v.005c-4.647 3.501-2.336 1.741-6.933 5.279h-.005l-13.156-13.156c3.804-4.34 1.913-2.161 5.674-6.537h.011z"/>
    </clipPath>
    <clipPath id="aL">
      <path d="M453.439 49.072l12.654 12.654c-3.95 3.161-1.989 1.578-5.882 4.749h-.007l-11.859-11.859a532.836 532.836 0 005.094-5.544z"/>
    </clipPath>
    <clipPath id="aO">
      <path d="M427.168 75.37l10.942 10.942v.004c-4.424 4.479-2.253 2.231-6.517 6.742h-.012l-11.577-11.586a229.872 229.872 0 007.164-6.102z"/>
    </clipPath>
    <clipPath id="aQ">
      <path d="M417.392 83.468l12.026 12.035a159.246 159.246 0 00-6.867 8.244l-13.882-13.882v-.008c5.807-4.116 2.903-1.989 8.707-6.389h.016z"/>
    </clipPath>
    <clipPath id="aT">
      <path d="M437.491 65.722l10.899 10.899a297.06 297.06 0 00-7.416 6.894l-10.836-10.827a305.04 305.04 0 007.353-6.966z"/>
    </clipPath>
    <clipPath id="aV">
      <path d="M397.567 114.331l6.921 4.752 7.515 5.166 6.291-3.177c.711 2.034 4.014 13.536 4.788 15.732.45 1.287.936 2.583 1.485 3.834.558 1.242 1.17 2.466 1.917 3.564.738 1.107 1.62 2.106 2.637 2.826a7.21 7.21 0 003.204 1.323 8.642 8.642 0 002.853-.108c.828-.153 1.512-.405 2.07-.603.549-.225.972-.405 1.251-.549l.441-.207-.459.153a19.47 19.47 0 01-1.305.387c-.567.126-1.26.288-2.061.333-.801.063-1.701.036-2.619-.216a6.113 6.113 0 01-2.61-1.458 7.53 7.53 0 01-1.071-1.233c-.333-.459-.63-.963-.9-1.494-1.08-2.133-1.737-4.689-2.304-7.272-.126-.558-.234-1.125-.342-1.683 7.11-1.98 12.663-1.548 16.515 1.296 4.869 3.591 6.102 10.305 6.417 13.428l-16.114 9.059h-.037l-1.984-1.805c.261-.108.495-.216.657-.297l.441-.207-.468.153a7.94 7.94 0 01-.756.234l-28.026-25.47-8.244 8.676-11.242-3.912v-.012l17.362-19.197-2.223-2.016z"/>
    </clipPath>
    <clipPath id="aX">
      <path d="M354.007 63.688c3.132.027 9.882.648 13.923 5.202 3.339 3.753 4.185 9.621 2.547 17.415-.918-.225-1.809-.477-2.637-.81a10.1 10.1 0 01-1.566-.765 7.234 7.234 0 01-1.323-.963 6.114 6.114 0 01-1.683-2.466c-.324-.891-.432-1.791-.45-2.592-.018-.801.081-1.503.162-2.088.099-.567.189-1.026.27-1.332.072-.306.117-.468.117-.468s-.063.162-.171.459c-.126.288-.261.729-.441 1.296-.144.576-.342 1.278-.414 2.115a8.65 8.65 0 00.135 2.844 7.203 7.203 0 001.602 3.078c.81.954 1.881 1.737 3.042 2.385 1.17.648 2.43 1.152 3.726 1.602 1.296.432 2.619.81 3.942 1.143l.882.216 19.629 3.645v.001l-2.196 17.486-2.205-2.043-17.599 18.966h-.021l-4.88-10.848 7.92-8.973-29.925-27.639 7.614-16.866z"/>
    </clipPath>
  </defs>
  <g clip-path="url(#a)">
    <path d="M141.31 230.251l-.009.045v-.009l.009-.036zm.016-.041v.004l-.007.028v-.018l.007-.014z" fill="url(#b)"/>
  </g>
  <path d="M367.543 206.374h.072-.072z" fill="url(#c)"/>
  <g clip-path="url(#d)">
    <path d="M359.16 273.663l-.023.031-.009.009.032-.04z" fill="url(#e)"/>
  </g>
  <g clip-path="url(#f)">
    <path d="M360.982 178.447c-.063.108-.126.207-.18.297a4.604 4.604 0 01-.549.666 8.76 8.76 0 01-1.233 1.044l-32.508 33.21 5.616-1.962c4.059-1.395 8.127-2.763 12.204-4.122a753.002 753.002 0 0112.285-3.969 210.796 210.796 0 016.246-1.863c1.08-.288 2.115-.576 3.339-.81.324-.063.63-.117 1.125-.153.126-.009.27-.018.477-.009.099 0 .225.009.396.036.099.018.171.027.324.063.108.027.297.09.495.171.243.153.432.126 1.071.819.225.225.369.621.414.684l.135.297c.243.522.459 1.053.675 1.575 1.71 4.248 2.745 8.64 3.483 13.023.72 4.392 1.089 8.811 1.215 13.221.117 4.419-.018 8.829-.387 13.23-.378 4.392-.972 8.784-1.908 13.14-.936 4.356-2.151 8.685-3.924 12.942-.891 2.124-1.917 4.23-3.222 6.273-.162.261-.324.513-.513.783-.18.261-.387.576-.54.765l-.234.324-.189.243a5.65 5.65 0 01-.441.486 4.763 4.763 0 01-2.133 1.134 4.38 4.38 0 01-.621.117c-.162.018-.369.045-.504.045a8.348 8.348 0 01-1.512-.072c-.414-.054-.774-.135-1.125-.207a22.995 22.995 0 01-1.881-.531c-2.322-.774-4.347-1.683-6.381-2.61a171.75 171.75 0 01-5.913-2.916 357.318 357.318 0 01-11.439-6.201c-3.762-2.124-7.479-4.311-11.187-6.516a648.16 648.16 0 01-11.07-6.723l-2.178-1.35.279-2.61c.09-.837.171-1.746.252-2.628l.216-2.673c.126-1.782.243-3.573.333-5.355.162-3.087.234-6.174.234-9.243l-12.474 12.744a43.379 43.379 0 01-1.062 2.979l15.183 13.761.045.027-.009.009 46.809 42.417c14.436-20.565 22.923-45.594 22.923-72.585 0-20.871-5.076-40.581-14.058-57.951l-6.399 6.534z" fill="url(#g)"/>
  </g>
  <g clip-path="url(#h)">
    <path d="M143.875 231.745c1.26 0 2.574.054 3.879.117 2.061.117 4.158.288 6.255.495 4.194.405 8.406.918 12.627 1.485 4.212.567 8.433 1.179 12.645 1.818a870.53 870.53 0 019.702 1.557c.144.792.297 1.584.468 2.358a79.463 79.463 0 001.341 5.229 83.46 83.46 0 003.645 10.134c.729 1.647 1.485 3.294 2.331 4.887 1.621 2.996.783 1.514 2.515 4.446v.013l-1.93 1.571-19.989 16.155a695.323 695.323 0 01-10.071 7.938 213.019 213.019 0 01-5.076 3.807c-1.034.724-.52.365-1.544 1.077h-.006c-2.738-2.96-4.929-6.355-7.027-9.78-2.079-3.564-3.888-7.317-5.49-11.16-3.168-7.686-5.526-15.768-6.867-23.904-.675-4.068-1.062-8.163-.981-12.132.045-1.989.216-3.933.576-5.769l.036-.207c.279-.036.567-.063.873-.081a38.892 38.892 0 012.088-.054zm22.419 18.927a6.53 6.53 0 00-6.525 6.525 6.53 6.53 0 006.525 6.525 6.53 6.53 0 006.525-6.525 6.53 6.53 0 00-6.525-6.525z" fill="url(#i)"/>
  </g>
  <g clip-path="url(#j)">
    <path d="M139.551 162.432l3.568 3.649c-10.782 18.81-16.956 40.59-16.956 63.783 0 29.097 9.711 55.962 26.064 77.544l-3.609 3.267-.036.09c-17.808-23.118-26.739-51.276-27.347-80.281v-1.386c-.067-23.534 6.775-46.299 18.308-66.666h.008z" fill="url(#k)"/>
  </g>
  <g clip-path="url(#l)">
    <path d="M159.337 295.654l-.018.009.063-.027-.045.018z" fill="url(#m)"/>
  </g>
  <g clip-path="url(#n)">
    <path d="M144.594 167.583l3.439 3.511c-1.89 3.06-3.654 6.21-5.247 9.459-1.998 4.095-3.726 8.37-5.04 12.852-.648 2.241-1.188 4.536-1.539 6.912-.045.297-.099.594-.135.891l-.081.675-.009.117-.009.054c-.009-.099 0 .54.009.864v.036c.027.189.135.792.36 1.206.396.729.522.783.63.918.117.135.315.324.369.369l.261.207c.297.216.495.324.648.405.324.171.549.261.747.342.396.162.72.27 1.035.369 1.242.396 2.34.675 3.456.945 4.419 1.071 8.748 1.908 13.104 2.763 4.347.837 8.694 1.629 13.032 2.412 7.722 1.386 15.444 2.682 23.184 3.951l17.127 17.496a44.488 44.488 0 004.896 16.335l-9.018 8.172a64.473 64.473 0 01-1.629-2.889 74.452 74.452 0 01-2.088-4.356 77.171 77.171 0 01-3.312-9.126 80.128 80.128 0 01-1.224-4.698 58.373 58.373 0 01-.495-2.367l-.207-1.17-.099-.567-.072-.513-.441-3.114-2.97-.477a637.931 637.931 0 00-12.798-1.962c-4.266-.612-8.541-1.206-12.834-1.719-4.293-.513-8.595-.981-12.942-1.341-2.178-.18-4.365-.324-6.579-.414-2.232-.09-4.446-.144-6.885.036-.612.045-1.251.108-1.944.225-.351.063-.711.135-1.125.243-.405.117-.855.243-1.413.513a4.826 4.826 0 00-.981.585c-.369.27-.837.684-1.251 1.332-.099.171-.198.342-.279.531-.09.207-.171.414-.234.621l-.072.297-.09.387c-.063.234-.144.594-.207.909-.072.333-.117.621-.18.918-.414 2.394-.558 4.734-.567 7.038 0 4.608.54 9.072 1.35 13.455.81 4.383 1.944 8.658 3.276 12.87a119.202 119.202 0 004.725 12.357c1.809 4.032 3.852 7.956 6.192 11.745 2.367 3.762 5.004 7.416 8.208 10.683.405.405.819.81 1.242 1.206l.153.144.081.072c-.072-.045.387.288.639.459v.009c.144.099.207.144.018.009.081.036.297.135.531.216l-5.598 5.067c-16.646-21.826-24.972-48.333-25.539-75.616v-1.307c-.062-21.655 6.063-42.649 16.395-61.552h.026z" fill="url(#o)"/>
  </g>
  <path d="M254.8 96.286c35.082 0 67.032 13.599 90.891 35.793l-3.669 3.318h-.006c-24.274-22.422-54.43-33.381-87.216-34.17-32.022 0-61.353 11.772-83.898 31.203l-3.667-3.326v-.025c24.759-21.579 54.969-32.041 87.565-32.793z" fill="url(#p)"/>
  <path d="M251.935 120.703c2.763.042 1.187.002 4.728.153 4.113.234 8.19.747 12.051 1.701 1.926.477 3.789 1.071 5.499 1.818l.198.09c-.027.27-.063.558-.117.855-.288 1.827-.81 3.834-1.368 5.814a157.273 157.273 0 01-1.845 5.994 339.35 339.35 0 01-4.212 11.997 662.951 662.951 0 01-4.545 11.943 808.632 808.632 0 01-3.654 9.162c-.81-.018-1.62-.027-2.43-.027a97.076 97.076 0 00-5.364.189 90.529 90.529 0 00-10.647 1.323 76.363 76.363 0 00-10.197 2.619l-1.116-2.232-11.394-23.049a677.588 677.588 0 01-5.544-11.556 216.492 216.492 0 01-2.601-5.787 55.219 55.219 0 01-.711-1.755c3.438-1.944 7.2-3.474 11.079-4.707 3.933-1.251 7.983-2.196 12.087-2.916 5.98-1.094 12.053-1.494 18.121-1.629h1.982zm-8.313 20.97c-3.6 0-6.525 2.916-6.525 6.516a6.53 6.53 0 006.525 6.525 6.53 6.53 0 006.525-6.525c0-3.6-2.925-6.516-6.525-6.516z" fill="url(#q)"/>
  <path d="M230.977 182.902l1.161 2.052a469.512 469.512 0 002.628 4.626c-.171.081-.342.171-.513.261l-6.305-5.712v-.005l.059-.025a53.8 53.8 0 012.97-1.197z" fill="url(#r)"/>
  <path d="M254.8 103.225c33.039 0 63.162 12.726 85.734 33.525l-3.951 3.582c-2.871-2.583-5.859-5.04-9-7.326-3.69-2.682-7.596-5.121-11.781-7.182a54.15 54.15 0 00-6.552-2.718l-.855-.279-.432-.126-.216-.072-.108-.027-.054-.018c.09.009-.531-.09-.855-.144h-.018c-.189-.036-.252-.045-.018 0-.198-.009-.828 0-1.26.153-.792.261-.846.369-1.017.45-.144.09-.36.261-.414.306l-.252.216c-.261.261-.396.432-.513.576a6.55 6.55 0 00-.459.666c-.234.369-.387.666-.549.963-.603 1.152-1.062 2.187-1.521 3.24-1.818 4.167-3.393 8.289-4.977 12.429-1.575 4.14-3.114 8.28-4.635 12.429-3.033 8.289-5.958 16.605-8.874 24.948l-1.242 3.564 3.663 1.611.351.153.441.207c.306.144.612.306.918.468.234.126.468.261.702.396l-7.772 7.046h-.077c-7.339-4.943-15.825-7.008-24.56-7.334a44.64 44.64 0 00-17.532 3.564l-3.294-6.57a67.785 67.785 0 017.938-1.989 80.743 80.743 0 019.675-1.224c1.62-.117 3.249-.18 4.878-.198.81-.009 1.62-.009 2.421.009l1.197.036c.378.009.819.036 1.116.054l3.06.225 1.116-2.772a832.94 832.94 0 004.707-12.06c1.53-4.032 3.042-8.073 4.482-12.15 1.44-4.077 2.844-8.172 4.14-12.339a147.877 147.877 0 001.845-6.327c.576-2.151 1.107-4.311 1.476-6.723.09-.612.162-1.242.198-1.953.018-.351.027-.72.009-1.143a8.029 8.029 0 00-.189-1.494c-.027-.144-.081-.333-.126-.495a5.573 5.573 0 00-.225-.594 4.844 4.844 0 00-1.026-1.503 6.873 6.873 0 00-.468-.405 5.697 5.697 0 00-.549-.351l-.63-.315c-.216-.108-.558-.261-.846-.396-.306-.144-.576-.252-.855-.369-2.241-.927-4.5-1.584-6.741-2.097-4.5-1.008-8.973-1.467-13.419-1.629-4.455-.171-8.883 0-13.284.387a119.195 119.195 0 00-13.095 1.899c-4.32.882-8.604 2.016-12.807 3.483-4.194 1.476-8.334 3.249-12.231 5.67-.486.306-.963.612-1.44.936l-.18.126-.09.063c-.054.063-.396.243-.612.549-.567.756-.495.909-.603 1.179a3.175 3.175 0 00-.081.513c-.018.153-.009.225-.009.333 0 .171.018.288.027.396.036.198.063.342.09.468.126.477.234.765.342 1.071.45 1.17.909 2.142 1.386 3.15a195.526 195.526 0 002.907 5.832 762.02 762.02 0 006.03 11.421c2.043 3.78 4.095 7.551 6.165 11.313l6.291 11.241.99 1.764c-.729.288-1.458.585-2.187.891-.837.378-1.674.765-2.502 1.17-.297.153-.594.306-.882.459l-30.438-27.576-.144-.234c-1.215-1.872-2.457-3.735-3.825-5.589-.702-.927-1.404-1.845-2.286-2.781-.45-.477-.891-.945-1.674-1.485a4.626 4.626 0 00-.756-.423 3.674 3.674 0 00-1.44-.342 3.342 3.342 0 00-1.215.207l-.279.108-6.743-6.107v-.059c23.37-20.101 51.775-29.827 82.37-30.527z" fill="url(#s)"/>
  <g clip-path="url(#t)">
    <path d="M366.058 206.617c1.323 3.726 2.187 7.704 2.727 11.736.549 4.086.792 8.244.783 12.402-.018 8.325-.936 16.686-2.826 24.723-.936 4.005-2.151 7.938-3.753 11.574-.801 1.818-1.71 3.555-2.736 5.103l-.114.163h-.067c-.491-.15-.233-.069-.773-.244-1.737-.612-3.636-1.467-5.481-2.358-1.872-.9-3.735-1.854-5.589-2.844a346.865 346.865 0 01-11.088-6.228 691.24 691.24 0 01-10.989-6.534c-5.799-3.558-2.905-1.77-8.684-5.363v-.013l.017-.195.252-2.781c.153-1.854.27-3.708.378-5.571.198-3.708.306-7.443.279-11.196-.018-2.25-.099-4.509-.243-6.786l2.817-2.88.09-.027 24.66-7.245a702.115 702.115 0 0112.339-3.465 213.081 213.081 0 016.156-1.566 48.662 48.662 0 011.845-.405zm-19.953 23.562a6.524 6.524 0 00-6.525 6.525c0 3.6 2.925 6.516 6.525 6.516 3.6 0 6.525-2.916 6.525-6.516a6.524 6.524 0 00-6.525-6.525z" fill="url(#u)"/>
  </g>
  <g clip-path="url(#v)">
    <path d="M372.482 166.715c10.632 19.401 15.549 41.139 15.896 63.149 0 28.782-9.144 55.458-24.678 77.283l-3.675-3.325v-.036c15.481-21.676 22.891-47.476 23.412-73.922 0-21.438-5.274-41.661-14.589-59.454l3.614-3.695h.02z" fill="url(#w)"/>
  </g>
  <path d="M275.878 125.185c.099.054.081.045.054.036l-.009-.009-.045-.027z" fill="url(#x)"/>
  <g clip-path="url(#y)">
    <path d="M208.148 128.477l.014.056v.008l-.014-.062v-.002z" fill="url(#z)"/>
  </g>
  <g clip-path="url(#A)">
    <path d="M308.26 130.648a46.526 46.526 0 014.374 1.791c3.753 1.746 7.389 3.924 10.881 6.327 5.452 3.948 2.773 1.908 8.036 6.119v.002L293.475 179.4h-.026c-.647-.421-.319-.211-.984-.629-.845-.479-.42-.243-1.275-.709v-.011c4.926-14.334 2.449-7.17 7.431-21.492 1.449-4.149 2.916-8.28 4.41-12.393 1.503-4.113 3.033-8.235 4.653-12.177.189-.45.387-.909.576-1.341z" fill="url(#B)"/>
  </g>
  <g clip-path="url(#C)">
    <path d="M241.292 300.741c.584 9.621.296 4.81.863 14.434.252 4.383.486 8.775.675 13.149.336 8.704.211 4.365.378 13.018v.037c-.003.942.003.467-.018 1.426-1.548.09-3.132.09-4.725.027-4.14-.171-8.325-.792-12.474-1.665a106.076 106.076 0 01-12.33-3.402 112.882 112.882 0 01-6.3-2.367l33.919-34.657h.012z" fill="url(#D)"/>
  </g>
  <path d="M258.112 283.567l15.561 15.885c.027 3.906.072 7.812.198 11.727.144 4.311.315 8.64.648 12.978.162 2.178.36 4.356.621 6.552.27 2.214.549 4.41 1.125 6.786.153.603.324 1.215.558 1.89.117.333.243.675.423 1.062s.387.81.747 1.332c.081.117.216.27.315.405.135.153.27.306.441.468.342.315.846.711 1.566 1.008.198.072.387.135.594.189.216.054.441.09.666.117l.306.018.396.036c.243.027.621.036.936.054.342.018.639.018.945.018 2.439.027 4.779-.207 7.074-.576 4.563-.765 8.91-2.043 13.122-3.573a94.222 94.222 0 006.399-2.601l3.974 4.055v.006c-18.41 10.096-39.038 14.77-59.927 15.1-19.299.131-38.153-4.62-55.529-12.843v-.001l3.266-3.338a116.472 116.472 0 008.883 3.735c4.248 1.575 8.586 2.925 13.023 3.987 4.437 1.062 8.982 1.809 13.644 2.106 2.322.144 4.689.162 7.083 0l.9-.072.45-.045.225-.027.117-.009.054-.009c.036-.009.612-.081.729-.153 1.035-.378 1.242-.684 1.521-.909.252-.252.387-.432.513-.612.207-.306.324-.549.396-.711.144-.342.198-.54.252-.72.09-.351.135-.576.171-.792.072-.423.099-.765.135-1.098.117-1.296.135-2.421.162-3.573.081-4.545-.054-8.955-.171-13.383-.135-4.428-.306-8.847-.495-13.257-.18-4.41-.405-8.82-.639-13.221l-.486-8.703 9.09-9.288h.018z" fill="url(#E)"/>
  <path d="M284.294 337.234h.042v.067h-.042z" fill="url(#F)"/>
  <path d="M316.195 342.91l3.567 3.639c-19.242 10.755-41.391 16.893-64.962 16.893-21.135.141-41.741-5.246-60.614-14.562v-.028l3.617-3.689c17.19 8.532 36.54 13.347 56.997 13.347 21.507.142 42.402-5.636 61.351-15.6h.044z" fill="url(#G)"/>
  <g clip-path="url(#H)">
    <path d="M280.021 305.944l24.486 25.026c-1.008.423-2.025.837-3.051 1.233-3.816 1.467-7.722 2.673-11.601 3.393-1.935.369-3.87.612-5.715.648h-.243c-.072-.216-.135-.441-.207-.684-.486-1.782-.864-3.825-1.188-5.859a150.495 150.495 0 01-.837-6.228c-.486-4.194-.9-8.424-1.251-12.672-.268-3.225-.137-1.618-.393-4.823v-.034z" fill="url(#I)"/>
  </g>
  <g clip-path="url(#J)">
    <path d="M152.953 176.122l30.228 30.885v.004h-.007c-8.128-1.319-4.064-.657-12.191-1.987-4.329-.711-8.658-1.449-12.969-2.214-4.302-.765-8.631-1.566-12.789-2.484-.477-.108-.963-.216-1.431-.333a49.889 49.889 0 011.017-4.617c1.071-3.996 2.592-7.947 4.356-11.808 2.414-5.012 1.155-2.53 3.777-7.446h.009z" fill="url(#K)"/>
  </g>
  <path d="M180.685 141.295c2.207.502 3.666 2.859 4.993 4.525l-4.993-4.525z" fill="url(#L)"/>
  <path d="M149.76 172.857l1.495 1.531c-5.526 9.45-9.549 19.431-10.503 27.612 3.528 1.476 26.937 5.589 46.053 8.712l2.353 2.398v.004c-7.129-1.142-14.246-2.356-21.361-3.581-29.304-5.094-29.223-5.922-29.097-7.182 1.215-10.597 5.873-20.315 11.047-29.494h.013z" fill="url(#M)"/>
  <g clip-path="url(#N)">
    <path d="M204.868 127.795c-1.071.711-1.719 1.143 16.119 35.181a3401.494 3401.494 0 007.974 15.093 58.264 58.264 0 00-5.202 2.259l1.62 1.467a52.367 52.367 0 014.545-1.917c1.944 3.654 3.69 6.93 5.103 9.567a42.016 42.016 0 011.827-.837 2913.225 2913.225 0 01-5.031-9.396c14.715-4.887 29.304-3.735 29.484-3.717l.738.063.279-.684c.045-.126 5.211-12.753 9.783-25.497 9.513-26.559 7.254-27.765 6.039-28.404-6.174-3.285-15.552-4.824-25.803-4.824-16.983 0-36.351 4.212-47.475 11.646zm1.593 1.35c17.235-11.115 55.197-14.625 70.686-6.444 1.638 2.646-6.993 27.684-16.407 50.742-3.276-.198-16.479-.63-29.889 3.951-11.385-21.42-23.274-44.361-24.39-48.249z" fill="url(#O)"/>
  </g>
  <g clip-path="url(#P)">
    <path d="M367.838 203.258l.173.047c.036.018.072.027.162.117l.072.117.036.099.081.189c.225.495.423.99.621 1.494 1.548 4.041 2.52 8.262 3.177 12.519.639 4.266.954 8.568 1.026 12.87.072 4.302-.108 8.604-.522 12.888-.414 4.284-1.062 8.55-1.998 12.753-.936 4.203-2.16 8.361-3.852 12.339-.855 1.989-1.836 3.933-3.024 5.76-.288.459-.612.918-.927 1.35l-.243.324-.126.171-.243.225c-.351.234-.702.279-1.008.297-.621.018-1.179-.09-1.719-.216a18.805 18.805 0 01-1.584-.459c-2.061-.702-4.032-1.584-5.985-2.493a191.534 191.534 0 01-5.769-2.889c-3.807-1.989-7.56-4.086-11.277-6.219-7.452-4.266-14.796-8.694-22.086-13.239l-.251-.156v-.094l.026-.227c.387-3.609.657-7.245.846-10.881.189-3.636.288-7.272.252-10.908-.009-.747-.027-1.494-.045-2.232l.999-1.026c.036 1.08.063 2.169.072 3.249.036 3.663-.072 7.317-.261 10.971a210.048 210.048 0 01-.846 10.62c7.182 4.491 14.427 8.874 21.771 13.095 3.717 2.133 7.452 4.221 11.241 6.21 1.89.99 3.798 1.962 5.733 2.88 1.926.9 3.879 1.782 5.877 2.466.495.162.999.315 1.503.432.495.117 1.008.207 1.458.189.225 0 .432-.054.522-.117l.054-.054.108-.153.243-.315c.324-.432.612-.846.9-1.296 1.152-1.773 2.106-3.672 2.952-5.625 1.665-3.906 2.88-8.01 3.816-12.177a104.921 104.921 0 002.025-12.636c.432-4.248.63-8.523.576-12.798-.045-4.275-.342-8.541-.963-12.771-.639-4.212-1.575-8.397-3.087-12.384a42.07 42.07 0 00-.594-1.476l-.081-.171h-.18a5.576 5.576 0 00-.756.09c-1.035.18-2.079.441-3.114.693-2.07.531-4.131 1.116-6.192 1.701a743.783 743.783 0 00-12.321 3.69c-7.29 2.25-14.562 4.563-21.825 6.876l.666-.684a1724.204 1724.204 0 0120.988-6.741 772.013 772.013 0 0112.312-3.744 211.4 211.4 0 016.21-1.728c1.044-.27 2.088-.531 3.159-.72.498-.078.271-.05.68-.092h.542z" fill="url(#Q)"/>
  </g>
  <g clip-path="url(#R)">
    <path d="M306.532 125.725l.162.027.045.009.099.036.207.054.396.117c.27.081.531.171.801.252 2.115.693 4.167 1.548 6.165 2.502 4.005 1.926 7.794 4.248 11.403 6.804a105.902 105.902 0 018.568 6.795l-.621.567a105.584 105.584 0 00-8.46-6.642c-3.582-2.52-7.335-4.824-11.277-6.705-1.971-.945-3.996-1.782-6.066-2.448l-.774-.252-.396-.108-.18-.054-.036.036c-.063.09-.135.189-.207.306-.126.216-.252.45-.378.684-.495.963-.927 1.971-1.368 2.979-1.701 4.041-3.249 8.163-4.797 12.276-1.53 4.131-3.024 8.271-4.509 12.411a2194.815 2194.815 0 00-8.568 24.507c.603.261 1.179.54 1.755.837a40.16 40.16 0 012.097 1.179l.081.045-.773.702h-.025c-1.212-.711-.599-.363-1.839-1.044a25.84 25.84 0 00-2.088-.99l-.444-.178v-.019l.147-.424a2210.85 2210.85 0 018.757-24.939c1.485-4.14 2.997-8.28 4.536-12.411 1.548-4.122 3.105-8.244 4.824-12.321.441-1.017.882-2.025 1.395-3.024.135-.252.27-.504.423-.756.072-.126.153-.252.261-.378l.18-.207.153-.117c.027-.027.045-.045.162-.081l.189-.027z" fill="url(#S)"/>
  </g>
  <g clip-path="url(#T)">
    <path d="M280.127 335.104l.27 1.17.035.141c.217.774.131.505.231.813l.272.809c.332.802.137.4.595 1.204.161.193.077.108.249.258-.496-.333-.665-.929-.844-1.462l-.053-.128-.219-.681c-.203-.6-.111-.283-.266-.954-.182-.73-.091-.341-.27-1.17z" fill="url(#U)"/>
  </g>
  <path d="M307.252 333.769l.063.063c-4.946 2.189-10.09 3.882-15.391 4.945l-1.466.302-.186.03c-.835.167-.399.095-1.31.208-.538.085-.021.004-1.561.194l1.561-.194 1.31-.208 1.652-.332c3.709-.655 7.273-1.913 10.81-3.172a93.059 93.059 0 004.518-1.836z" fill="url(#V)"/>
  <g clip-path="url(#W)">
    <path d="M245.593 296.334c.715 12.404.373 6.202 1.026 18.607.216 4.401.414 8.811.576 13.212.153 4.401.297 8.811.27 13.23-.018 1.107-.036 2.214-.126 3.339a14.37 14.37 0 01-.099.846c-.027.153-.045.297-.09.459-.027.081-.045.162-.09.261l-.09.162-.09.108a.481.481 0 01-.225.135l-.135.036h-.054l-.099.018-.207.018-.414.045c-.279.027-.558.045-.837.072-2.214.18-4.446.18-6.66.054-4.428-.234-8.82-.927-13.131-1.899a109.529 109.529 0 01-12.717-3.744 113.355 113.355 0 01-7.758-3.114l.585-.603a117.484 117.484 0 007.452 2.943c4.14 1.467 8.352 2.7 12.636 3.654 4.275.954 8.613 1.638 12.978 1.863a49.58 49.58 0 006.543-.063c.27-.027.549-.036.81-.072l.414-.045.189-.018.018-.054c.027-.108.045-.225.072-.351.036-.261.063-.522.081-.792.09-1.071.108-2.169.117-3.267.027-4.383-.117-8.784-.279-13.185-.171-4.392-.378-8.793-.594-13.185-.306-5.913-.639-11.817-.999-17.721l.922-.949h.005z" fill="url(#X)"/>
  </g>
  <g clip-path="url(#Y)">
    <path d="M141.481 227.524a17.37 17.37 0 00-1.647.18c-.549.099-1.098.207-1.665.459-.27.135-.585.315-.819.666-.054.09-.099.189-.135.297l-.054.207-.099.396a22.962 22.962 0 00-.342 1.602c-.387 2.142-.549 4.311-.576 6.471-.036 4.329.432 8.64 1.179 12.879.747 4.239 1.791 8.424 3.051 12.537a114.244 114.244 0 004.464 12.114c1.719 3.942 3.654 7.794 5.886 11.484 2.241 3.672 4.752 7.209 7.74 10.341.378.387.756.774 1.143 1.143l.216.216.117.081.153.045.153-.009.081-.009.135-.045.207-.09c.27-.126.504-.27.738-.423.918-.585 1.782-1.233 2.637-1.872a175.25 175.25 0 004.059-3.177l8.757-7.938a708.032 708.032 0 01-8.136 6.642 191.67 191.67 0 01-5.076 3.942c-.855.639-1.719 1.278-2.601 1.836-.225.144-.45.279-.666.378l-.153.072h-.009l-.144-.135a44.32 44.32 0 01-1.116-1.134c-2.925-3.096-5.4-6.597-7.605-10.251-2.187-3.654-4.104-7.488-5.787-11.412a112.557 112.557 0 01-4.383-12.042 103.874 103.874 0 01-2.979-12.447c-.738-4.203-1.188-8.46-1.152-12.717.027-2.124.189-4.239.567-6.318.099-.522.207-1.017.333-1.539l.099-.387.045-.189.036-.063c.054-.099.225-.225.432-.315.414-.189.918-.297 1.422-.387a17.899 17.899 0 011.557-.171c2.106-.135 4.239-.072 6.372.018 2.133.108 4.266.27 6.399.459 4.257.387 8.514.882 12.762 1.422 8.379 1.08 16.74 2.34 25.074 3.726a62.22 62.22 0 00.864 4.716 79.69 79.69 0 001.287 4.995 80.942 80.942 0 003.492 9.702 75.881 75.881 0 002.223 4.653 73.842 73.842 0 002.232 3.942l.783-.711a65.3 65.3 0 01-2.097-3.708 79.52 79.52 0 01-2.205-4.59 79.889 79.889 0 01-3.456-9.576 77.483 77.483 0 01-1.278-4.923 61.226 61.226 0 01-.918-4.986l-.045-.378-.36-.063c-8.469-1.395-16.956-2.664-25.479-3.753-4.257-.531-8.523-1.026-12.798-1.404a153.438 153.438 0 00-6.435-.45 83.368 83.368 0 00-3.681-.099c-.927 0-1.863.027-2.799.09z" fill="url(#Z)"/>
  </g>
  <g clip-path="url(#aa)">
    <path d="M311.676 259.999l.04.024-.009.009-.033-.033h.002z" fill="url(#ab)"/>
  </g>
  <g clip-path="url(#ac)">
    <path d="M276.202 302.044l1.017 1.035c.603 13.662 1.62 25.776 2.907 32.022.513 2.502 1.062 4.068 1.656 4.401l.207.081c1.674.144 3.492.117 5.409-.072 5.94-.567 12.879-2.628 19.917-5.679l.726.735v.004c-7.58 3.374-15.583 5.759-23.901 6.101-.765 0-1.512-.027-2.241-.09-1.044-.09-3.483-.297-5.166-28.026a534.338 534.338 0 01-.531-10.512z" fill="url(#ad)"/>
  </g>
  <path d="M217.775 242.348l2.931 2.994v.004l-1.267 1.141c-1.188-2.723-.633-1.344-1.665-4.139h.001z" fill="url(#ae)"/>
  <path d="M254.647 190.93a38.691 38.691 0 0119.989 5.535l-16.533 14.985-19.04-17.249v-.006c4.915-2.234 10.225-3.124 15.584-3.265z" fill="url(#af)"/>
  <path d="M291.304 249.637l71.181 64.512 21.851 58.461h-.006l-51.923-21.723-70.101-71.622 13.248-13.545 3.375 3.231-3.249-3.357 15.624-15.957z" fill="url(#ag)"/>
  <path d="M142.775 138.782l95.15 90.965-12.771 11.565-95.788-97.858v-.011l13.382-4.661h.027z" fill="url(#ah)"/>
  <path d="M151.71 123.128L253.639 215.5l-14.112 12.789-92.293-95.2v-.036l4.469-9.925h.007z" fill="url(#ai)"/>
  <g clip-path="url(#aj)">
    <path d="M20.701 7.402c5.49 0 11.259 2.565 15.822 7.02 2.151 2.115 3.879 4.5 5.121 7.02l-.252.045a15.985 15.985 0 00-3.042-4.149c-2.997-2.925-6.903-4.527-11.007-4.527-4.032 0-7.776 1.557-10.548 4.392-5.547 6.01-5.305 14.058-.458 20.383h-.004c-.875-.771-.441-.376-1.302-1.186-8.055-7.884-9.801-19.224-3.879-25.281 2.367-2.43 5.67-3.717 9.549-3.717z" fill="url(#ak)"/>
  </g>
  <g clip-path="url(#al)">
    <path d="M27.343 16.807c3.051 0 5.967 1.206 8.208 3.393 1.318 1.463.711.698 1.825 2.292v.004c-6.898 2.64-12.295 7.761-15.901 14.12l-.114.246h-.011c-.774-.622-.395-.298-1.135-.975-4.545-4.437-4.797-11.565-.567-15.885 2.016-2.061 4.743-3.195 7.695-3.195z" fill="url(#am)"/>
  </g>
  <path d="M44.002 26.806c1.116 1.44 3.879 4.95 7.821 9.675L36.749 51.555h-.002a369.65 369.65 0 00-11.132-7.847c-.486-.945-.207-2.655.783-4.653 2.871-5.796 10.665-12.249 17.271-12.249h.333z" fill="url(#an)"/>
  <g clip-path="url(#ao)">
    <path d="M54.42 39.547c3.765 4.384 1.874 2.205 5.674 6.537L46.938 59.24h-.005c-4.595-3.541-2.285-1.782-6.931-5.277v-.009l14.407-14.407h.011z" fill="url(#ap)"/>
  </g>
  <g clip-path="url(#aq)">
    <path d="M62.767 49.072c3.392 3.721 1.692 1.874 5.1 5.541v.006L55.999 66.478c-3.902-3.179-1.939-1.596-5.89-4.748v-.009l12.658-12.649z" fill="url(#ar)"/>
  </g>
  <g clip-path="url(#as)">
    <path d="M70.615 57.514a382.045 382.045 0 005.256 5.391l-11.05 11.05h-.004c-3.775-3.27-1.865-1.633-5.729-4.91v-.004l11.527-11.527z" fill="url(#at)"/>
  </g>
  <path d="M89.039 75.371c4.766 4.142 2.377 2.111 7.166 6.096v.011L84.623 93.06h-.008c-4.265-4.512-2.094-2.263-6.512-6.746l10.934-10.943h.002z" fill="url(#au)"/>
  <g clip-path="url(#av)">
    <path d="M98.83 83.468c5.805 4.401 2.9 2.273 8.712 6.392l-13.887 13.887a159.246 159.246 0 00-6.867-8.244l12.026-12.035h.016z" fill="url(#aw)"/>
  </g>
  <path d="M110.823 90.826c4.252 2.823 8.786 5.17 13.414 7.305-.811 11.942-10.042 20.046-21.603 21.172h-.054c-2.194-4.382-4.979-8.424-7.809-12.411v-.022l16.044-16.044h.008z" fill="url(#ax)"/>
  <g clip-path="url(#ay)">
    <path d="M78.715 65.722c4.892 4.711 2.44 2.39 7.353 6.966L75.241 83.515a282.642 282.642 0 00-7.425-6.894l10.899-10.899z" fill="url(#az)"/>
  </g>
  <g clip-path="url(#aA)">
    <path d="M118.639 114.331l-2.223 2.016 17.37 19.206-11.25 3.915-8.244-8.676-30.144 27.4h-.015l-16.114-9.064v-.044c.494-5.099 2.357-10.097 6.403-13.387 3.852-2.844 9.405-3.276 16.515-1.296-.108.558-.216 1.125-.342 1.683-.558 2.583-1.224 5.139-2.304 7.272-.27.531-.567 1.035-.891 1.494a8.03 8.03 0 01-1.08 1.233 6.113 6.113 0 01-2.61 1.458c-.918.252-1.818.279-2.619.216-.801-.045-1.494-.207-2.061-.333a19.47 19.47 0 01-1.305-.387l-.459-.153.441.207c.279.144.702.324 1.251.549.558.198 1.242.45 2.07.603a8.654 8.654 0 002.853.108 7.17 7.17 0 003.204-1.323c1.017-.72 1.899-1.719 2.637-2.826.747-1.098 1.359-2.322 1.917-3.564a49.576 49.576 0 001.485-3.834c.774-2.196 1.449-4.383 2.151-6.417l4.464-12.168 11.979.864 6.921-4.752z" fill="url(#aB)"/>
  </g>
  <path d="M162.199 63.697l7.614 16.857-29.925 27.639 7.92 8.973-4.887 10.863-17.613-18.981-2.205 2.043-7.384-17.259v-.013l24.817-3.86.882-.216a54.748 54.748 0 003.942-1.143c1.296-.45 2.565-.954 3.726-1.602 1.161-.648 2.232-1.431 3.051-2.385a7.282 7.282 0 001.593-3.078c.234-1.044.225-2.016.144-2.844-.081-.837-.279-1.539-.423-2.115-.18-.567-.315-1.008-.432-1.296-.117-.297-.171-.459-.171-.459s.036.162.108.468c.081.306.171.765.27 1.332.081.585.18 1.287.162 2.088-.018.801-.126 1.701-.45 2.592a6.114 6.114 0 01-1.683 2.466c-.387.36-.837.684-1.323.963a10.1 10.1 0 01-1.566.765c-.828.333-1.719.585-2.637.81-1.638-7.785-.792-13.635 2.529-17.397 4.005-4.536 10.809-5.175 13.941-5.211z" fill="url(#aC)"/>
  <path d="M364.533 123.196l4.45 9.882-131.706 135.873 136.17-130.176 13.395 4.669v.008L183.799 350.887l-51.93 21.726 21.852-58.464 210.701-190.953h.111z" fill="url(#aD)"/>
  <g clip-path="url(#aE)">
    <path d="M495.505 7.402c3.879 0 7.182 1.287 9.549 3.717 5.922 6.057 4.185 17.397-3.879 25.281-.864.809-.43.414-1.302 1.186h-.004c2.339-2.726 3.434-6.07 3.7-9.601.126-4.086-1.35-7.911-4.149-10.782-2.772-2.835-6.525-4.392-10.557-4.392-4.104 0-8.01 1.602-11.007 4.527a16 16 0 00-3.042 4.149l-.252-.045a26.193 26.193 0 015.121-7.02c4.572-4.455 10.332-7.02 15.822-7.02z" fill="url(#aF)"/>
  </g>
  <g clip-path="url(#aG)">
    <path d="M488.863 16.807c2.952 0 5.679 1.134 7.695 3.195 2.034 2.079 3.105 4.869 3.015 7.857-.099 3.015-1.368 5.868-3.582 8.028-.741.678-.361.353-1.137.976h-.008l-.115-.247c-3.405-6.576-9.192-11.237-15.902-14.121v-.001c1.122-1.597.513-.832 1.826-2.294 2.241-2.187 5.157-3.393 8.208-3.393z" fill="url(#aH)"/>
  </g>
  <path d="M472.69 26.806c5.994 0 14.319 6.453 17.19 12.249.99 1.998 1.197 3.708.711 4.653-3.765 2.533-7.455 5.175-11.126 7.843h-.012l-15.067-15.067v-.007c2.66-3.201 5.322-6.402 7.899-9.671h.405z" fill="url(#aI)"/>
  <g clip-path="url(#aJ)">
    <path d="M461.797 39.547l14.409 14.409v.005c-4.647 3.501-2.336 1.741-6.933 5.279h-.005l-13.156-13.156c3.804-4.34 1.913-2.161 5.674-6.537h.011z" fill="url(#aK)"/>
  </g>
  <g clip-path="url(#aL)">
    <path d="M453.439 49.072l12.654 12.654c-3.95 3.161-1.989 1.578-5.882 4.749h-.007l-11.859-11.859a532.836 532.836 0 005.094-5.544z" fill="url(#aM)"/>
  </g>
  <path d="M445.591 57.514l11.527 11.527v.004c-3.858 3.276-1.949 1.639-5.729 4.91h-.004l-11.05-11.05a382.045 382.045 0 005.256-5.391z" fill="url(#aN)"/>
  <g clip-path="url(#aO)">
    <path d="M427.168 75.37l10.942 10.942v.004c-4.424 4.479-2.253 2.231-6.517 6.742h-.012l-11.577-11.586a229.872 229.872 0 007.164-6.102z" fill="url(#aP)"/>
  </g>
  <g clip-path="url(#aQ)">
    <path d="M417.392 83.468l12.026 12.035a159.246 159.246 0 00-6.867 8.244l-13.882-13.882v-.008c5.807-4.116 2.903-1.989 8.707-6.389h.016z" fill="url(#aR)"/>
  </g>
  <path d="M405.391 90.826l16.053 16.053c-2.954 3.913-5.477 8.119-7.809 12.424h-.054c-12.325-1.143-20.196-8.835-21.608-21.137v-.037c4.704-1.982 9.085-4.616 13.41-7.303h.008z" fill="url(#aS)"/>
  <g clip-path="url(#aT)">
    <path d="M430.138 72.688l10.836 10.827a297.06 297.06 0 017.416-6.894l-10.899-10.899a305.04 305.04 0 01-7.353 6.966z" fill="url(#aU)"/>
  </g>
  <g clip-path="url(#aV)">
    <path d="M397.567 114.331l6.921 4.752 7.515 5.166 6.291-3.177c.711 2.034 4.014 13.536 4.788 15.732.45 1.287.936 2.583 1.485 3.834.558 1.242 1.17 2.466 1.917 3.564.738 1.107 1.62 2.106 2.637 2.826a7.21 7.21 0 003.204 1.323 8.642 8.642 0 002.853-.108c.828-.153 1.512-.405 2.07-.603.549-.225.972-.405 1.251-.549l.441-.207-.459.153a19.47 19.47 0 01-1.305.387c-.567.126-1.26.288-2.061.333-.801.063-1.701.036-2.619-.216a6.113 6.113 0 01-2.61-1.458 7.53 7.53 0 01-1.071-1.233c-.333-.459-.63-.963-.9-1.494-1.08-2.133-1.737-4.689-2.304-7.272-.126-.558-.234-1.125-.342-1.683 7.11-1.98 12.663-1.548 16.515 1.296 4.869 3.591 6.102 10.305 6.417 13.428l-16.114 9.059h-.037l-1.984-1.805c.261-.108.495-.216.657-.297l.441-.207-.468.153a7.94 7.94 0 01-.756.234l-28.026-25.47-8.244 8.676-11.242-3.912v-.012l17.362-19.197-2.223-2.016z" fill="url(#aW)"/>
  </g>
  <g clip-path="url(#aX)">
    <path d="M354.007 63.688c3.132.027 9.882.648 13.923 5.202 3.339 3.753 4.185 9.621 2.547 17.415-.918-.225-1.809-.477-2.637-.81a10.1 10.1 0 01-1.566-.765 7.234 7.234 0 01-1.323-.963 6.114 6.114 0 01-1.683-2.466c-.324-.891-.432-1.791-.45-2.592-.018-.801.081-1.503.162-2.088.099-.567.189-1.026.27-1.332.072-.306.117-.468.117-.468s-.063.162-.171.459c-.126.288-.261.729-.441 1.296-.144.576-.342 1.278-.414 2.115a8.65 8.65 0 00.135 2.844 7.203 7.203 0 001.602 3.078c.81.954 1.881 1.737 3.042 2.385 1.17.648 2.43 1.152 3.726 1.602 1.296.432 2.619.81 3.942 1.143l.882.216 19.629 3.645-2.196 17.487-2.205-2.043-17.599 18.966h-.021l-4.88-10.848 7.92-8.973-29.925-27.639 7.614-16.866z" fill="url(#aY)"/>
  </g>
  <path d="M501.173 36.403a28.16 28.16 0 01-1.312 1.194c2.289-2.715 3.596-6.074 3.707-9.609.129-4.085-1.346-7.916-4.152-10.786-2.77-2.834-6.518-4.395-10.551-4.395-4.108 0-8.016 1.61-11.004 4.531a16.01 16.01 0 00-3.047 4.146l-.256-.039a26.132 26.132 0 015.129-7.019c4.564-4.461 10.33-7.02 15.818-7.02 3.875 0 7.178 1.283 9.551 3.709 5.924 6.059 4.182 17.404-3.883 25.288m-5.177-.515c-.364.356-.75.675-1.147.976l-.113-.251c-2.801-5.652-9.065-11.634-15.906-14.114a12.072 12.072 0 011.828-2.301c2.236-2.187 5.15-3.391 8.207-3.391 2.947 0 5.679 1.133 7.691 3.192 2.037 2.084 3.108 4.876 3.014 7.862-.096 3.017-1.365 5.868-3.574 8.027m-5.338 7.821c-1.188.797-5.373 3.612-11.164 7.845l-15.032-15.076c3.946-4.72 6.756-8.23 7.873-9.668.112-.005.463-.007.463-.007 6 0 14.264 6.456 17.135 12.25.992 2.003 1.211 3.71.725 4.656m-21.391 15.529l-13.154-13.155a457.682 457.682 0 005.679-6.538l14.415 14.413a443.05 443.05 0 00-6.94 5.28m-9.059 7.241l-11.867-11.867a418.9 418.9 0 005.1-5.544l12.656 12.658a410.011 410.011 0 00-5.889 4.753m-8.818 7.48l-11.055-11.055a365.521 365.521 0 005.256-5.385l11.528 11.527a361.422 361.422 0 00-5.729 4.913m-10.422 9.559L430.14 72.689a297.428 297.428 0 007.354-6.97l10.9 10.899a292.118 292.118 0 00-7.426 6.9m-9.383 9.543l-11.584-11.585a233.233 233.233 0 007.165-6.105l10.943 10.942a225.87 225.87 0 00-6.524 6.748m-9.031 10.687l-13.888-13.891c2.834-1.93 5.753-4.07 8.718-6.392l12.035 12.036a159.536 159.536 0 00-6.865 8.247m-8.926 15.556c-8.496-.499-20.714-6.429-21.656-21.174 4.213-1.819 8.721-4.273 13.42-7.303l16.053 16.052c-3.176 4.317-5.801 8.491-7.817 12.425m6.934 10.029c.123.341.244.701.367 1.054.703 2.032 1.381 4.221 2.151 6.417.449 1.29.937 2.58 1.484 3.832.559 1.248 1.172 2.465 1.922 3.568.74 1.102 1.615 2.102 2.637 2.828a7.158 7.158 0 003.207 1.318c1.062.146 2.029.053 2.849-.107.826-.153 1.508-.405 2.067-.603a17.51 17.51 0 001.257-.548c.286-.135.438-.209.438-.209l-.459.154c-.297.109-.742.236-1.305.387-.57.127-1.261.29-2.062.337-.795.057-1.701.029-2.621-.216a6.13 6.13 0 01-2.604-1.46 7.45 7.45 0 01-1.078-1.238c-.332-.458-.627-.96-.896-1.493-1.081-2.132-1.741-4.683-2.307-7.266-.123-.56-.229-1.125-.344-1.688 7.113-1.978 12.668-1.546 16.52 1.297 4.869 3.595 6.103 10.308 6.414 13.433l-16.135 9.063-1.994-1.813c.26-.11.488-.212.652-.296l.438-.209s-.16.052-.459.153c-.19.07-.457.15-.76.236l-28.027-25.471-8.243 8.676-11.248-3.92 17.594-19.532 11.986 8.237c.545.05 1.084.087 1.604.101l2.23.063.952-1.901c.33.275.683.645 1.037 1.132.99 1.327 1.906 3.38 2.736 5.684M183.801 350.89l-51.93 21.725 21.853-58.469 210.779-191.019 4.479 9.95L237.274 268.95l136.171-130.176 13.4 4.67L183.801 350.89zM388.38 229.867c0 28.775-9.146 55.453-24.683 77.281l-3.688-3.341c14.754-20.932 23.432-46.441 23.432-73.94 0-21.438-5.277-41.664-14.592-59.458l3.625-3.703c10.143 18.816 15.906 40.327 15.906 63.161m-29.218 43.788l-.028.036c.02-.024-.072.095.028-.036m8.377-67.281l.08-.002-.077.003-.003-.001m-49.387 15.83l2.82-2.88.082-.024 24.664-7.246a687.732 687.732 0 0112.342-3.463 199.764 199.764 0 016.15-1.57 64.552 64.552 0 011.844-.404c1.33 3.725 2.19 7.7 2.737 11.731.546 4.09.785 8.248.781 12.41-.018 8.319-.944 16.684-2.828 24.716-.942 4.008-2.153 7.94-3.754 11.578-.801 1.814-1.707 3.55-2.74 5.1l-.12.18a13.301 13.301 0 01-.83-.26c-1.74-.605-3.633-1.463-5.486-2.352-1.863-.9-3.729-1.862-5.586-2.852-3.719-1.984-7.412-4.082-11.086-6.222a672.247 672.247 0 01-10.984-6.532 715.28 715.28 0 01-8.69-5.368l.022-.211.246-2.78c.154-1.854.273-3.708.375-5.565.199-3.714.31-7.443.281-11.198a122.07 122.07 0 00-.24-6.788m-4.498 4.597l1-1.023c.035 1.083.06 2.165.072 3.247.029 3.662-.076 7.32-.269 10.972a204.537 204.537 0 01-.84 10.622 691.726 691.726 0 0021.767 13.091c3.715 2.133 7.455 4.224 11.242 6.215 1.895.992 3.801 1.96 5.731 2.875 1.93.908 3.883 1.785 5.879 2.465.498.167 1 .318 1.502.437.498.117 1.01.207 1.463.192.224-.006.427-.06.519-.126l.053-.047.113-.151.242-.321c.319-.431.61-.848.897-1.296 1.15-1.769 2.109-3.669 2.949-5.619 1.672-3.909 2.887-8.016 3.822-12.177a106.956 106.956 0 002.026-12.641c.428-4.25.625-8.526.574-12.798-.051-4.273-.348-8.543-.967-12.766-.633-4.218-1.572-8.403-3.086-12.384-.191-.495-.386-.99-.597-1.476l-.077-.179h-.179c-.24.014-.502.053-.76.096-1.035.18-2.076.436-3.109.695a210.155 210.155 0 00-6.194 1.697 713.833 713.833 0 00-12.316 3.693 2498.285 2498.285 0 00-21.834 6.875l.672-.686a1621.722 1621.722 0 0120.99-6.739 712.468 712.468 0 0112.312-3.747 208.602 208.602 0 016.206-1.729c1.044-.265 2.085-.526 3.162-.719.269-.047.541-.089.836-.108.16.004.273-.034.552.061.043.025.078.028.166.123l.073.119.041.093.078.186c.218.495.42.997.617 1.5 1.555 4.038 2.519 8.265 3.176 12.52.642 4.26.961 8.561 1.029 12.864a115.62 115.62 0 01-.525 12.892c-.416 4.283-1.057 8.548-1.996 12.754-.94 4.202-2.161 8.357-3.856 12.339-.853 1.988-1.832 3.931-3.016 5.76-.289.454-.613.917-.929 1.35l-.371.492-.241.225c-.355.239-.705.278-1.009.294-.621.02-1.174-.087-1.719-.211a18.533 18.533 0 01-1.584-.459c-2.065-.701-4.033-1.583-5.983-2.498a157.45 157.45 0 01-5.769-2.886c-3.807-1.993-7.559-4.083-11.283-6.214a699.137 699.137 0 01-22.08-13.242l-.264-.165.035-.315a202.1 202.1 0 00.85-10.879c.187-3.634.287-7.274.252-10.91-.008-.745-.026-1.489-.045-2.233m-2.764 27.574a727.19 727.19 0 0011.068 6.722 578.496 578.496 0 0011.19 6.512c3.768 2.122 7.562 4.206 11.441 6.205 1.94.999 3.901 1.976 5.912 2.912 2.028.931 4.053 1.835 6.374 2.608.585.192 1.195.375 1.882.532.35.078.709.152 1.129.208.422.055.881.103 1.506.075a5.923 5.923 0 001.129-.161 4.838 4.838 0 002.131-1.135c.158-.153.308-.316.445-.485l.186-.246.238-.323c.146-.192.355-.502.535-.762.194-.276.352-.527.516-.782 1.301-2.05 2.332-4.155 3.222-6.279 1.768-4.254 2.991-8.585 3.924-12.94.934-4.356 1.53-8.747 1.91-13.144.37-4.4.504-8.811.381-13.224-.121-4.413-.498-8.827-1.213-13.221-.734-4.387-1.769-8.772-3.476-13.022a42.108 42.108 0 00-.682-1.582l-.088-.197-.045-.099c-.05-.058-.189-.456-.416-.679-.64-.697-.826-.671-1.074-.818a2.809 2.809 0 00-.494-.172c-.146-.037-.221-.049-.318-.065a3.672 3.672 0 00-.401-.038 4.593 4.593 0 00-.478.008c-.491.035-.795.095-1.117.153-1.227.239-2.268.524-3.34.815a209.6 209.6 0 00-6.25 1.858 710.057 710.057 0 00-12.285 3.976 1344.908 1344.908 0 00-12.207 4.116l-5.614 1.963 32.508-33.211a8.89 8.89 0 001.234-1.038 5.19 5.19 0 00.547-.67c.057-.088.119-.189.182-.3l6.398-6.535c8.983 17.377 14.061 37.084 14.061 57.957 0 26.983-8.486 52.018-22.926 72.586l-46.805-42.418-.041-.036-15.183-13.761a45.31 45.31 0 001.064-2.984l12.471-12.742c.002 3.069-.07 6.152-.229 9.24a246.253 246.253 0 01-.337 5.356l-.215 2.673c-.076.88-.162 1.793-.25 2.628l-.28 2.612 2.18 1.354zm73.447 118.24l-51.929-21.725-70.106-71.624 13.256-13.543 3.375 3.227-3.252-3.354 15.621-15.958 71.182 64.508 21.853 58.469zm-104.214-37.512c.095.438.197.876.306 1.31.135.51.283 1.013.457 1.497.176.481.381.958.645 1.327.08.117.166.202.248.27l.207.08c1.68.142 3.496.11 5.414-.074a44.347 44.347 0 003.058-.43c4.184-.744 8.282-1.979 12.272-3.476a97.196 97.196 0 004.52-1.841l.07.069.721.738c-8.62 3.772-17.12 6.102-23.899 6.102-.769 0-1.516-.03-2.24-.092-1.043-.088-3.486-.294-5.17-28.023a551.961 551.961 0 01-.531-10.517l1.017 1.041c.606 13.657 1.623 25.77 2.905 32.019m4.171 2.131l.006.011-.006-.011m-.158-.994l-.238.005a21.307 21.307 0 01-.205-.683c-.486-1.78-.869-3.825-1.192-5.859a153.83 153.83 0 01-.837-6.227 379.007 379.007 0 01-1.25-12.673 775.586 775.586 0 01-.393-4.858l24.49 25.024c-1.011.427-2.031.841-3.051 1.236-3.82 1.47-7.728 2.667-11.609 3.394-1.934.368-3.863.607-5.715.641m-72.716 7.814c4.246 1.579 8.584 2.929 13.022 3.99 4.439 1.057 8.982 1.809 13.642 2.104 2.33.144 4.692.166 7.087-.002.3-.024.598-.04.898-.073l.452-.043.225-.022.112-.012.057-.006c.035-.014.611-.083.734-.157 1.032-.379 1.241-.684 1.517-.907.253-.251.388-.432.517-.613.205-.303.322-.55.391-.707.148-.344.203-.544.254-.723.095-.353.132-.574.17-.796.068-.422.103-.761.134-1.093.114-1.294.141-2.422.166-3.574.075-4.545-.054-8.953-.177-13.388-.133-4.427-.305-8.841-.495-13.253-.181-4.411-.408-8.817-.638-13.223l-.487-8.701 9.104-9.3 15.564 15.901c.032 3.904.079 7.811.202 11.723.144 4.314.318 8.637.646 12.981.166 2.174.361 4.353.619 6.554.274 2.211.557 4.409 1.133 6.786.15.6.318 1.213.551 1.883.119.337.25.68.428 1.068.179.388.386.807.75 1.324.08.12.209.279.314.412.135.154.266.3.441.466.336.317.838.713 1.567 1.006.191.073.383.139.59.191.218.051.441.089.664.113l.306.025.401.033c.236.023.615.037.931.051.342.019.637.019.944.023 2.439.022 4.785-.212 7.074-.579 4.568-.764 8.91-2.041 13.121-3.572a92.497 92.497 0 006.399-2.603l3.978 4.064c-17.852 9.629-38.262 15.103-59.926 15.103-19.908 0-38.754-4.625-55.531-12.845l3.269-3.34a118.046 118.046 0 008.88 3.731m-4.06-8.655l33.933-34.669c.297 4.818.584 9.635.862 14.448.25 4.384.483 8.768.678 13.142.189 4.367.359 8.763.374 13.025 0 .489-.003.983-.013 1.464a48.677 48.677 0 01-4.728.022c-4.137-.174-8.326-.791-12.477-1.667-4.154-.869-8.276-2.023-12.324-3.401a112.12 112.12 0 01-6.305-2.364m5.321 5.121c4.136 1.464 8.351 2.703 12.631 3.655 4.278.954 8.621 1.635 12.987 1.864 2.182.112 4.369.109 6.54-.066.271-.024.543-.04.812-.074l.406-.043.193-.021.015-.047a3.57 3.57 0 00.072-.357 11.4 11.4 0 00.088-.787c.085-1.074.105-2.172.117-3.267.025-4.386-.125-8.786-.285-13.184-.167-4.395-.372-8.794-.593-13.19-.302-5.908-.642-11.815-.995-17.722l.928-.948c.366 6.202.715 12.406 1.021 18.608.218 4.4.416 8.807.578 13.211.154 4.405.299 8.812.268 13.232-.016 1.107-.036 2.213-.125 3.335-.024.28-.053.563-.098.853a3.922 3.922 0 01-.094.452c-.02.081-.044.164-.087.261l-.091.167-.091.11c-.045.037-.083.083-.223.135l-.133.029-.052.005-.104.012-.209.022-.414.044c-.277.033-.555.049-.832.074-2.219.175-4.445.175-6.659.057-4.431-.241-8.82-.928-13.132-1.906-4.314-.979-8.558-2.245-12.717-3.736a115.626 115.626 0 01-7.762-3.122l.592-.604a114.868 114.868 0 007.448 2.948m42.121 22.923c-21.815 0-42.424-5.257-60.63-14.571l3.628-3.707c17.191 8.533 36.544 13.343 57.002 13.343 22.213 0 43.129-5.662 61.381-15.614l3.578 3.654c-19.242 10.754-41.394 16.895-64.959 16.895M121.226 229.867c0-24.585 6.683-47.636 18.318-67.442l3.579 3.656c-10.787 18.811-16.96 40.591-16.96 63.786 0 29.096 9.716 55.963 26.065 77.538l-3.613 3.275-.031.083c-17.153-22.468-27.358-50.511-27.358-80.896m31.722-53.747l30.236 30.89c-4.07-.656-8.137-1.319-12.201-1.986a1053.37 1053.37 0 01-12.971-2.213c-4.302-.77-8.629-1.567-12.79-2.484-.478-.107-.959-.22-1.425-.334a48.628 48.628 0 011.011-4.616c1.075-3.999 2.593-7.952 4.355-11.811a102.663 102.663 0 013.785-7.446m-12.196 25.879c3.531 1.476 26.94 5.594 46.056 8.714l2.353 2.404a1923.697 1923.697 0 01-21.367-3.58c-29.301-5.099-29.218-5.928-29.093-7.182.883-8.799 5.146-19.483 11.05-29.502l1.503 1.535c-5.522 9.453-9.55 19.432-10.502 27.611m61.344 49.602a76.59 76.59 0 01-3.312-9.13 80.382 80.382 0 01-1.226-4.701 65.614 65.614 0 01-.495-2.359l-.209-1.169-.092-.573-.072-.508-.447-3.115-2.965-.483a715.551 715.551 0 00-12.799-1.959 569.035 569.035 0 00-12.833-1.718c-4.293-.515-8.597-.983-12.946-1.34-2.174-.178-4.36-.326-6.577-.418-2.228-.084-4.447-.14-6.885.037-.615.048-1.248.112-1.945.231a12.99 12.99 0 00-1.121.242c-.41.112-.853.245-1.419.508-.13.058-.307.156-.454.237a5.967 5.967 0 00-.527.346c-.366.27-.835.685-1.245 1.334-.104.174-.2.345-.286.536a5.318 5.318 0 00-.226.618l-.075.294-.096.389c-.061.234-.135.6-.202.91-.073.33-.121.621-.175.92-.415 2.391-.56 4.732-.567 7.036 0 4.605.533 9.073 1.342 13.454.811 4.381 1.946 8.663 3.282 12.871a118.843 118.843 0 004.723 12.357c1.806 4.028 3.847 7.96 6.195 11.742 2.361 3.77 5 7.421 8.209 10.69.404.405.812.808 1.234 1.2l.158.148.078.073c-.074-.05.39.286.635.461l.003.002c.146.105.207.148.021.011.08.04.297.139.529.213l-5.594 5.071c-16.031-21.216-25.552-47.612-25.552-76.192 0-22.632 5.973-43.891 16.417-62.297l3.45 3.525a110.1 110.1 0 00-5.243 9.457c-2.001 4.1-3.729 8.369-5.038 12.85-.65 2.243-1.188 4.543-1.547 6.916-.042.298-.093.592-.127.893l-.055.45-.028.225-.013.113-.007.056c-.004-.1.002.536.006.865v.015c.003.187.004.26.003.016.027.189.139.795.363 1.208.393.733.52.783.626.924.116.133.317.321.371.363l.258.205c.303.222.495.325.656.412.317.166.543.26.74.34.401.16.722.269 1.04.371 1.238.393 2.334.668 3.451.946 4.42 1.065 8.75 1.904 13.104 2.755 4.348.838 8.692 1.636 13.039 2.418 7.72 1.385 15.442 2.677 23.18 3.952l17.123 17.493a44.565 44.565 0 004.9 16.332l-9.023 8.177a68.503 68.503 0 01-1.621-2.89 72.916 72.916 0 01-2.092-4.356m-4.3 1.875a81.613 81.613 0 01-3.495-9.699 81.944 81.944 0 01-1.285-4.994 61.18 61.18 0 01-.865-4.715 691.604 691.604 0 00-25.074-3.725c-4.248-.543-8.504-1.038-12.765-1.422-2.13-.191-4.263-.353-6.395-.457-2.131-.098-4.269-.158-6.374-.02-.524.037-1.046.089-1.555.172-.505.083-1.012.197-1.425.386-.205.091-.372.219-.431.315l-.031.066-.047.18-.1.39a24.454 24.454 0 00-.331 1.541c-.382 2.075-.541 4.197-.567 6.32-.044 4.251.411 8.511 1.144 12.712a106.644 106.644 0 002.981 12.451 114.984 114.984 0 004.382 12.038c1.687 3.924 3.6 7.756 5.794 11.417 2.201 3.651 4.675 7.157 7.601 10.251.367.383.736.764 1.119 1.133l.139.136.013-.004.154-.066c.217-.105.442-.24.664-.38.886-.563 1.75-1.199 2.604-1.836a207.888 207.888 0 005.068-3.944 645.843 645.843 0 008.143-6.642l-8.761 7.941a186.67 186.67 0 01-4.054 3.169c-.862.646-1.724 1.288-2.644 1.879-.232.147-.465.29-.73.419l-.215.093-.131.041-.084.016-.153.001-.15-.044-.115-.081-.072-.07-.145-.142c-.391-.373-.769-.76-1.144-1.149-2.985-3.132-5.5-6.665-7.738-10.341-2.23-3.686-4.173-7.538-5.887-11.484a115.245 115.245 0 01-4.465-12.105c-1.258-4.116-2.304-8.298-3.051-12.544-.745-4.241-1.213-8.546-1.175-12.875.024-2.162.182-4.331.573-6.476.094-.529.214-1.082.343-1.602l.099-.39.053-.207a1.24 1.24 0 01.136-.3c.236-.356.543-.527.82-.661.564-.256 1.117-.368 1.666-.463a18.08 18.08 0 011.64-.184c2.175-.147 4.332-.086 6.483.008 2.15.104 4.295.263 6.435.451 4.28.38 8.546.872 12.802 1.409a694.249 694.249 0 0125.473 3.754l.361.06.05.374c.219 1.655.545 3.336.914 4.987a79.57 79.57 0 001.276 4.93 80.453 80.453 0 003.463 9.571 76.009 76.009 0 002.199 4.589 68.534 68.534 0 002.1 3.707l-.784.711a68.511 68.511 0 01-2.231-3.939 75.734 75.734 0 01-2.223-4.657M141.301 230.3l.002-.008.013-.049-.013.051-.002.006m18.082 65.334l-.06.026.011-.007.049-.019zm-5.742-10.579c-2.076-3.568-3.892-7.316-5.486-11.16-3.177-7.69-5.533-15.77-6.874-23.91-.669-4.061-1.06-8.158-.978-12.131.044-1.983.215-3.934.574-5.762l.042-.215c.272-.031.559-.059.864-.076 1.842-.111 3.918-.046 5.971.065 2.065.115 4.157.288 6.253.489 4.193.406 8.411.924 12.625 1.492a678.983 678.983 0 0122.349 3.372c.147.792.303 1.58.473 2.36a80.851 80.851 0 001.336 5.223 85.083 85.083 0 003.645 10.138c.729 1.649 1.489 3.287 2.33 4.889a72.342 72.342 0 002.522 4.447l-1.931 1.576-19.994 16.158a711.624 711.624 0 01-10.067 7.936 207.197 207.197 0 01-5.077 3.808c-.52.371-1.042.734-1.553 1.078-2.655-2.928-4.973-6.268-7.024-9.777m67.066-39.709l-1.263 1.144a38.408 38.408 0 01-1.672-4.142l2.935 2.998zm-91.344-101.902l13.401-4.67 95.159 90.97-12.768 11.569-95.792-97.869zm-6.827-3.975l-8.241-8.676-30.152 27.4-16.134-9.063c.313-3.129 1.547-9.839 6.414-13.433 3.852-2.843 9.406-3.276 16.519-1.297-.114.563-.221 1.128-.343 1.688-.566 2.583-1.226 5.134-2.307 7.266a11.03 11.03 0 01-.896 1.493 7.497 7.497 0 01-1.078 1.238 6.136 6.136 0 01-2.604 1.46c-.919.245-1.824.273-2.621.216-.801-.047-1.493-.21-2.063-.337a17.184 17.184 0 01-1.304-.387l-.458-.154s.151.074.436.209c.281.143.706.325 1.258.548.558.198 1.239.45 2.065.603.822.16 1.789.253 2.851.107a7.162 7.162 0 003.207-1.318c1.021-.726 1.898-1.726 2.638-2.828.748-1.103 1.363-2.32 1.92-3.568a53.59 53.59 0 001.486-3.832c.768-2.196 1.447-4.385 2.15-6.417.122-.353.244-.713.368-1.054.829-2.304 1.746-4.357 2.736-5.684a6.134 6.134 0 011.038-1.132l.951 1.901 2.23-.063c.52-.014 1.057-.051 1.602-.101l11.817-8.122 17.764 19.417-11.249 3.92zm-27.772-32.59l16.052-16.052c4.7 3.03 9.208 5.484 13.419 7.303-.94 14.745-13.16 20.675-21.655 21.174-2.016-3.934-4.641-8.108-7.816-12.425m-2.118.5l-.517-.693.704-.705 17.003-17.002.712-.714.002.003-.712.711-17.709 17.707.517.693zm6.178-23.914a162.667 162.667 0 008.719 6.392l-13.89 13.891a159.536 159.536 0 00-6.865-8.247l12.036-12.036zm-20.725 2.848l10.943-10.942c2.402 2.13 4.8 4.174 7.166 6.105L84.622 93.061a226.772 226.772 0 00-6.523-6.748m-10.284-9.695l10.898-10.899a300.623 300.623 0 007.354 6.97L75.238 83.518a296.653 296.653 0 00-7.423-6.9m-8.726-7.572l11.527-11.527a370.41 370.41 0 005.256 5.385L64.818 73.959a362.889 362.889 0 00-5.729-4.913m-8.979-7.32l12.658-12.658a420.225 420.225 0 005.098 5.544L55.999 66.479a394.977 394.977 0 00-5.889-4.753m-10.109-7.768l14.414-14.413a438.142 438.142 0 005.681 6.538L46.94 59.238a438.579 438.579 0 00-6.939-5.28M25.614 43.709c-.487-.946-.204-2.652.788-4.656 2.87-5.794 10.666-12.25 17.264-12.25.111 0 .222.002.333.007a358.848 358.848 0 007.826 9.668L36.747 51.555c-5.791-4.234-9.945-7.049-11.133-7.846m-4.14-7.097l-.116.253a11.982 11.982 0 01-1.146-.977c-4.539-4.436-4.789-11.564-.56-15.888 2.012-2.06 4.743-3.193 7.691-3.193 3.056 0 5.971 1.204 8.207 3.391a11.956 11.956 0 011.825 2.302c-6.84 2.48-13.102 8.462-15.901 14.112m-6.439-.209c-8.064-7.885-9.806-19.229-3.883-25.288 2.372-2.426 5.674-3.709 9.55-3.709 5.489 0 11.255 2.559 15.818 7.019a25.975 25.975 0 015.128 7.02l-.26.04a15.936 15.936 0 00-3.041-4.147c-2.989-2.921-6.897-4.531-11.004-4.531-4.033 0-7.78 1.561-10.552 4.395-5.412 5.536-5.501 14.384-.446 20.393a27.044 27.044 0 01-1.31-1.192m106.822 59.335s-.796.502-1.14.539c.366-.06 1.14-.539 1.14-.539m5.292-.957c-.12-.051-.242-.107-.362-.157l.002-.003a6.253 6.253 0 011.067-.796c1.407-.869 3.532-1.605 5.9-2.229 2.11-.564 4.432-1.064 6.782-1.639.294-.073.586-.142.88-.216a52.611 52.611 0 003.946-1.145c1.293-.445 2.558-.95 3.723-1.601 1.162-.641 2.235-1.426 3.048-2.379a7.177 7.177 0 001.593-3.08c.238-1.045.23-2.016.143-2.848-.081-.837-.272-1.538-.421-2.111a17.645 17.645 0 00-.435-1.301l-.17-.453.113.47c.082.305.171.76.273 1.333.075.58.176 1.282.155 2.085-.013.797-.123 1.697-.446 2.591a6.147 6.147 0 01-1.683 2.468c-.39.359-.838.68-1.327.964-.483.291-1.011.541-1.564.764-.827.33-1.719.585-2.634.807-1.641-7.783-.793-13.637 2.528-17.397 4.007-4.537 10.803-5.177 13.942-5.215l7.615 16.864-29.93 27.64 7.921 8.97-4.89 10.862-17.775-19.409 3.175-3.849c.54-2.028.88-4.23.975-6.625l.095-2.427-2.239-.938zm24.556 28.346l101.931 92.376-14.112 12.79-92.298-95.216 4.479-9.95zm33.975 22.692l-4.995-4.527c.779.007 2.084.755 4.995 4.527m49.091 43.758c-.174.086-.344.176-.515.264l-6.31-5.717.057-.027a62.644 62.644 0 012.972-1.195l1.16 2.056a617.982 617.982 0 002.636 4.619m-4.85-9.699a55.593 55.593 0 00-4.544 1.918l-1.619-1.468a57.412 57.412 0 015.202-2.256 2914.528 2914.528 0 01-7.973-15.098c-17.834-34.034-17.188-34.465-16.119-35.179 17.838-11.919 56.876-15.553 73.282-6.826 1.213.646 3.471 1.847-6.047 28.407-4.566 12.746-9.73 25.373-9.781 25.5l-.28.678-.732-.062c-.187-.016-14.773-1.168-29.487 3.72 1.707 3.209 3.392 6.355 5.026 9.399-.614.265-1.22.541-1.819.832-1.416-2.639-3.164-5.91-5.109-9.565m44.719 16.59l-16.535 14.986-19.046-17.26a38.719 38.719 0 0115.589-3.267 38.686 38.686 0 0119.992 5.541m52.947-63.463c-3.695-2.679-7.599-5.117-11.791-7.179-2.095-1.027-4.267-1.953-6.545-2.718-.285-.093-.566-.192-.857-.277l-.434-.134-.216-.065-.108-.034-.054-.015c.097.012-.532-.091-.856-.144l-.016-.002c-.183-.03-.253-.041-.015 0-.197-.006-.826.001-1.264.154-.789.263-.846.371-1.008.455a3.904 3.904 0 00-.42.301l-.248.219c-.267.26-.402.432-.515.576a7.05 7.05 0 00-.463.669 13.63 13.63 0 00-.545.96c-.602 1.152-1.061 2.185-1.525 3.236-1.815 4.17-3.387 8.291-4.975 12.433a1053.95 1053.95 0 00-4.631 12.426c-3.037 8.295-5.963 16.606-8.875 24.948l-1.244 3.568 3.66 1.609.35.154.445.208c.305.146.611.303.92.464.234.124.467.268.699.399l-7.805 7.074a44.659 44.659 0 00-24.603-7.363 44.696 44.696 0 00-17.536 3.564l-3.287-6.57a68.193 68.193 0 017.938-1.992 81.711 81.711 0 019.668-1.225 92.52 92.52 0 014.877-.197 81.637 81.637 0 012.426.01l1.197.035c.381.014.82.039 1.113.059l3.061.222 1.113-2.771a714.688 714.688 0 004.711-12.061 579.12 579.12 0 004.485-12.147c1.441-4.076 2.839-8.174 4.138-12.337a159.723 159.723 0 001.848-6.329c.568-2.156 1.107-4.308 1.471-6.726.087-.61.162-1.243.199-1.949.015-.357.027-.721.01-1.146a8.244 8.244 0 00-.186-1.497c-.027-.139-.086-.333-.133-.494a5.702 5.702 0 00-.222-.591 4.884 4.884 0 00-1.03-1.507 4.801 4.801 0 00-.461-.397 5.339 5.339 0 00-.552-.355l-.272-.138-.359-.178c-.213-.11-.555-.262-.842-.396-.307-.142-.58-.254-.859-.371-2.243-.929-4.497-1.583-6.743-2.093-4.494-1.008-8.97-1.465-13.421-1.633-4.452-.168-8.88.002-13.277.387a118.842 118.842 0 00-13.092 1.904c-4.325.881-8.609 2.013-12.814 3.477-4.195 1.479-8.336 3.256-12.226 5.671-.485.306-.966.616-1.442.942l-.178.121-.089.061c-.057.07-.399.244-.616.551-.57.76-.497.909-.605 1.184a3.05 3.05 0 00-.081.513 3.025 3.025 0 00-.009.326 4.127 4.127 0 00.123.866c.119.476.23.767.343 1.075.448 1.166.907 2.143 1.38 3.149a208.518 208.518 0 002.908 5.834 714.308 714.308 0 006.035 11.416c2.039 3.783 4.088 7.555 6.162 11.315l6.284 11.24.995 1.762c-.732.289-1.461.584-2.185.897-.838.376-1.674.759-2.5 1.17-.297.151-.594.304-.888.456l-30.431-27.576-.146-.233c-1.214-1.878-2.457-3.741-3.832-5.591-.694-.924-1.404-1.841-2.278-2.78-.457-.473-.895-.943-1.677-1.485a5.066 5.066 0 00-.752-.423c-.32-.135-.739-.313-1.44-.339a3.227 3.227 0 00-1.224.205l-.275.111-6.772-6.139c22.164-19.034 50.961-30.555 82.401-30.555 33.039 0 63.16 12.723 85.733 33.521l-3.952 3.583c-2.867-2.583-5.855-5.043-8.996-7.328m3.965 11.885l-38.086 34.516c-.334-.21-.66-.429-1-.635-.416-.247-.849-.473-1.275-.71a2712.075 2712.075 0 017.426-21.502c1.453-4.144 2.92-8.282 4.42-12.397 1.498-4.105 3.029-8.228 4.65-12.17.189-.451.383-.907.574-1.347a48.367 48.367 0 014.373 1.793c3.754 1.749 7.387 3.926 10.883 6.327a103.47 103.47 0 018.035 6.125m-6.254-8.645c-3.584-2.523-7.334-4.819-11.277-6.704-1.971-.943-3.992-1.78-6.064-2.45-.26-.083-.518-.172-.78-.246l-.39-.115-.184-.055-.033.041a2.532 2.532 0 00-.203.303c-.135.217-.262.453-.385.691-.49.959-.93 1.965-1.361 2.971-1.707 4.04-3.258 8.163-4.797 12.284a1054.847 1054.847 0 00-4.514 12.41 1989.04 1989.04 0 00-8.566 24.505 27.7 27.7 0 011.756.836c.708.369 1.404.765 2.091 1.174l.08.05-.777.705a38.508 38.508 0 00-1.857-1.046 25.463 25.463 0 00-2.09-.988l-.446-.182.153-.443c2.867-8.33 5.781-16.641 8.756-24.936 1.488-4.145 2.992-8.285 4.535-12.414 1.547-4.126 3.101-8.248 4.828-12.318.437-1.017.881-2.026 1.394-3.028.131-.25.264-.5.418-.75a4.65 4.65 0 01.26-.384l.182-.206.152-.121c.031-.018.051-.039.162-.076l.2-.027.15.024.051.013.099.031.201.059.401.118c.267.076.531.167.797.251 2.115.69 4.172 1.545 6.172 2.503 3.998 1.922 7.787 4.242 11.394 6.801 2.979 2.112 5.83 4.396 8.576 6.799l-.623.564a106.21 106.21 0 00-8.461-6.644m-70.496-39.954c35.076 0 67.031 13.595 90.889 35.786l-3.67 3.326c-22.941-21.199-53.592-34.174-87.219-34.174-32.026 0-61.356 11.767-83.897 31.201l-3.683-3.339c23.466-20.42 54.103-32.8 87.58-32.8m91.588-15.734l7.619-16.869c3.129.026 9.883.65 13.92 5.198 3.336 3.76 4.192 9.621 2.547 17.419-.914-.222-1.807-.477-2.635-.807a10.989 10.989 0 01-1.562-.764 7.536 7.536 0 01-1.328-.964 6.16 6.16 0 01-1.684-2.468c-.322-.894-.432-1.794-.445-2.591-.022-.803.08-1.505.156-2.085.102-.573.191-1.028.272-1.333l.113-.47-.168.453c-.119.293-.264.731-.438 1.301-.146.573-.34 1.274-.42 2.111-.087.832-.095 1.803.143 2.848a7.202 7.202 0 001.594 3.08c.812.953 1.884 1.738 3.049 2.379 1.164.651 2.427 1.156 3.72 1.601 1.295.437 2.623.811 3.948 1.145.294.074.587.143.88.216 2.35.575 4.672 1.075 6.784 1.639 2.367.624 4.494 1.36 5.9 2.229.439.262.787.532 1.07.796-.121.052-.244.108-.367.16l-2.238.938.096 2.427c.093 2.395.435 4.597.974 6.625l3.264 3.956-17.863 19.302-4.891-10.862 7.922-8.97-29.932-27.64zM509.345 6.921c-3.476-3.556-8.39-5.515-13.84-5.515-7.043 0-14.336 3.182-20.011 8.729-4.282 4.186-7.104 9.206-8.377 14.254-7.035 8.935-42.082 52.205-73.147 68.098a7.79 7.79 0 00-.66-.708c-.824-.779-1.842-1.424-2.932-1.902-2.187-.976-4.656-1.443-7.218-1.804-2.205-.309-4.493-.524-6.762-.787 1.978-9.638.646-17.17-3.982-22.383-7.356-8.287-20.116-7.193-20.653-7.142l-1.736.163-10.887 24.107 28.799 26.594-6.6 7.471.577 1.279-10.278 9.313c-25.34-23.796-59.414-38.397-96.836-38.397-35.824 0-68.577 13.381-93.54 35.399l-6.968-6.315.574-1.279-6.599-7.471 28.798-26.594-10.886-24.107-1.737-.163c-.539-.051-13.297-1.145-20.652 7.142-4.627 5.213-5.96 12.745-3.981 22.383-2.27.263-4.557.478-6.763.787-2.562.361-5.03.828-7.219 1.804-1.089.478-2.107 1.123-2.93 1.902a7.677 7.677 0 00-.662.708C91.213 76.612 56.184 33.396 49.108 24.412c-1.31-5.203-4.213-10.189-8.393-14.277-5.675-5.547-12.97-8.729-20.013-8.729-5.449 0-10.364 1.959-13.841 5.515-8.235 8.423-6.45 23.574 3.98 33.773 3.215 3.143 6.951 5.524 10.865 7l.034.045.495.327c.573.379 55.245 36.773 74.873 70.205-.11.088-.223.169-.329.265-.849.753-1.579 1.71-2.151 2.753-1.163 2.093-1.846 4.511-2.43 7.033l-.039.187c-8.826-2.374-15.997-1.572-21.334 2.387-8.899 6.603-8.924 19.405-8.921 19.947l.011 1.745 23.061 12.956 29.01-26.364 6.868 7.23 2.249-.783 10.65 10.88c-13.022 21.408-20.527 46.524-20.527 73.36 0 33.991 12.045 65.22 32.085 89.652L121.396 383.5l65.841-27.544 1.096-1.118c19.832 10.59 42.46 16.605 66.469 16.605 25.752 0 49.92-6.915 70.748-18.981l3.42 3.494 65.842 27.544-26.059-69.716c17.352-23.499 27.627-52.529 27.627-83.917 0-25.09-6.57-48.671-18.066-69.129l14.791-15.111 2.25.783 6.867-7.23 29.008 26.364 23.064-12.956.01-1.745c.004-.542-.021-13.344-8.922-19.947-5.336-3.958-12.507-4.759-21.334-2.386l-.039-.188c-.582-2.522-1.265-4.94-2.427-7.033-.573-1.043-1.303-2-2.153-2.753-.105-.096-.219-.177-.328-.265 19.627-33.432 74.299-69.826 74.871-70.205l.496-.327.033-.045c3.916-1.477 7.651-3.857 10.866-7.001 10.429-10.198 12.215-25.348 3.978-33.772m-259.201 141.27a6.521 6.521 0 11-13.043.001 6.521 6.521 0 0113.043-.001m-90.372 109.005a6.522 6.522 0 1113.044.002 6.522 6.522 0 01-13.044-.002M339.583 236.7a6.521 6.521 0 016.522-6.521 6.521 6.521 0 110 13.043 6.522 6.522 0 01-6.522-6.522m-88.703-66.306a90.176 90.176 0 00-10.656 1.322 75.58 75.58 0 00-10.194 2.619l-1.115-2.232-11.393-23.047a734.632 734.632 0 01-5.541-11.558 205.973 205.973 0 01-2.605-5.788 60.826 60.826 0 01-.712-1.75c3.439-1.952 7.204-3.481 11.077-4.714 3.934-1.246 7.988-2.197 12.089-2.912 8.198-1.417 16.599-1.949 24.834-1.478 4.111.236 8.193.751 12.052 1.701 1.924.477 3.791 1.071 5.496 1.82l.2.088c-.03.271-.065.557-.114.859-.295 1.821-.812 3.832-1.371 5.811a152.584 152.584 0 01-1.844 5.995c-1.314 4.003-2.742 8.004-4.216 11.994a700.853 700.853 0 01-4.539 11.945 731.364 731.364 0 01-3.659 9.164c-.81-.019-1.619-.027-2.425-.027a88.786 88.786 0 00-5.364.188m-42.733-41.931l.017.073v.006l-.017-.079m67.729-3.277l.045.023c-.025-.013.12.062-.046-.023l-.006-.006.007.006zm-15.132 48.261c9.412-23.058 18.037-48.102 16.406-50.744-15.49-8.181-53.456-4.673-70.692 6.442 1.119 3.885 13.008 26.831 24.396 48.247 13.409-4.575 26.614-4.141 29.89-3.945" fill="#1A1919"/>
</svg>