<svg width="100%" height="100%" viewBox="0 0 224.33 262.96" xmlns="http://www.w3.org/2000/svg" version="1.0">
  <g stroke="#000">
    <path d="M.5.5l4.06 170.58c2.9 121.79 212.31 121.79 215.21 0L223.83.5H.5z" stroke-linejoin="bevel" color="#000" fill="#2972ce"/>
    <path d="M3.628 132.21l.937 38.88c.281 11.8 2.501 22.45 6.282 31.96l101.31-70.84H3.627z" stroke-linejoin="bevel" color="#000" fill="#fcea00"/>
    <path d="M112.159 132.21l101.31 70.84c3.78-9.51 6-20.16 6.28-31.96l.94-38.88h-108.53z" stroke-linejoin="bevel" fill="#fcea00"/>
    <path d="M112.159 131.99l-39.531 124.6c25.231 7.83 53.831 7.83 79.061 0l-39.53-124.6z" stroke-linejoin="bevel" color="#000" fill="#fcea00"/>
    <path d="M15.553 47.144C23.93 77.47 42.671 94.21 56.639 94.21h148.02c5.15-1.993 6.81-17.692 6.48-27.659H64.869c-9.689 0-31.62-6.2-49.312-19.407z" fill-rule="evenodd" fill="#fff"/>
    <path d="M15.553 47.144c12.782 5.834 38.572 7.069 41.262 7.069h143.61l10.71 12.338H64.865c-9.689 0-31.62-6.2-49.312-19.407z" fill-rule="evenodd" fill="#fff"/>
    <path d="M46.082 57.136c1.947.328 9.744 1.129 11.755 1.129h134.49l4.01 4.409H56.577c-5.478 0-9.011-1.87-11.125-3.046-2.047-1.138-1.4-2.834.632-2.492z" fill-rule="evenodd" fill="#fff"/>
  </g>
</svg>